<svg xmlns="http://www.w3.org/2000/svg" width="56" height="56" fill="none" viewBox="0 0 56 56">
  <defs/>
  <path fill="#6E5FA7" d="M20.696 0H3.65A3.655 3.655 0 000 3.652v17.044a3.656 3.656 0 003.652 3.652h17.044a3.656 3.656 0 003.652-3.652V3.652A3.656 3.656 0 0020.696 0zm1.217 20.696a1.22 1.22 0 01-1.217 1.217H3.652a1.22 1.22 0 01-1.217-1.217V3.652A1.218 1.218 0 013.65 2.435h17.045a1.22 1.22 0 011.217 1.217v17.044zM52.348 0H35.304a3.656 3.656 0 00-3.652 3.652v17.044a3.656 3.656 0 003.652 3.652h17.044A3.657 3.657 0 0056 20.696V3.652A3.656 3.656 0 0052.348 0zm1.218 20.696a1.22 1.22 0 01-1.218 1.217H35.304a1.22 1.22 0 01-1.217-1.217V3.652a1.22 1.22 0 011.217-1.217h17.044a1.22 1.22 0 011.218 1.217v17.044zM20.696 31.652H3.65A3.655 3.655 0 000 35.304v17.044A3.656 3.656 0 003.652 56h17.044a3.656 3.656 0 003.652-3.652V35.304a3.657 3.657 0 00-3.652-3.652zm1.217 20.696a1.22 1.22 0 01-1.217 1.217H3.652a1.22 1.22 0 01-1.217-1.217V35.304a1.218 1.218 0 011.216-1.217h17.045a1.22 1.22 0 011.217 1.217v17.044zM52.348 31.652H35.304a3.657 3.657 0 00-3.652 3.652v17.044A3.656 3.656 0 0035.304 56h17.044A3.657 3.657 0 0056 52.348V35.304a3.656 3.656 0 00-3.652-3.652zm1.218 20.696a1.219 1.219 0 01-1.218 1.217H35.304a1.219 1.219 0 01-1.217-1.217V35.304a1.219 1.219 0 011.217-1.217h17.044a1.219 1.219 0 011.218 1.217v17.044z"/>
</svg>
