<svg xmlns="http://www.w3.org/2000/svg" width="57" height="56" fill="none" viewBox="0 0 57 56">
  <defs/>
  <path fill="#6E5FA7" d="M23.34 56a6.533 6.533 0 006.46-5.6h9.955l-1.208 1.206 1.32 1.321 2.8-2.8a.934.934 0 000-1.32l-2.8-2.8-1.32 1.32 1.208 1.206h-9.956A6.534 6.534 0 1023.341 56zm0-11.2a4.667 4.667 0 11-4.666 4.667 4.672 4.672 0 014.667-4.667z"/>
  <path fill="#6E5FA7" d="M49.475 56a6.533 6.533 0 10-6.534-6.533A6.54 6.54 0 0049.475 56zm0-11.2a4.667 4.667 0 110 9.333 4.667 4.667 0 010-9.333zM19.608 21.467a6.533 6.533 0 00-6.459 5.6h-1.474a11.667 11.667 0 000 23.333h1.947l-1.208 1.206 1.32 1.321 2.8-2.8a.934.934 0 000-1.32l-2.8-2.8-1.32 1.32 1.208 1.206h-1.947a9.8 9.8 0 110-19.6h1.474a6.533 6.533 0 106.459-7.466zm0 11.2a4.667 4.667 0 110-9.334 4.667 4.667 0 010 9.334zM23.068 3.073l-1.32 1.32L22.954 5.6H13a6.533 6.533 0 100 1.867h9.955l-1.208 1.206 1.321 1.32 2.8-2.8a.934.934 0 000-1.32l-2.8-2.8zM6.541 11.2a4.667 4.667 0 110-9.333 4.667 4.667 0 010 9.333z"/>
  <path fill="#6E5FA7" d="M56.008 17.267A11.68 11.68 0 0044.341 5.6h-5.208a6.533 6.533 0 100 1.867h5.208a9.8 9.8 0 110 19.6H29.328l1.207-1.207-1.32-1.32-2.8 2.8a.932.932 0 000 1.32l2.8 2.8 1.32-1.32-1.207-1.207H44.34a11.68 11.68 0 0011.667-11.666zM32.675 11.2a4.667 4.667 0 110-9.333 4.667 4.667 0 010 9.333z"/>
</svg>
