<svg width="55" height="52" viewBox="0 0 55 52" fill="none" xmlns="http://www.w3.org/2000/svg">
<path d="M22.6406 1C10.703 1 1 10.703 1 22.6406C1 34.5782 10.703 44.2812 22.6406 44.2812C34.5782 44.2812 44.2812 34.5782 44.2812 22.6406C44.2812 10.703 34.5488 1 22.6406 1ZM22.6406 41.0175C12.526 41.0175 4.29313 32.7846 4.29313 22.67C4.29313 12.5554 12.526 4.32254 22.6406 4.32254C32.7552 4.32254 40.9881 12.5554 40.9881 22.67C40.9881 32.7846 32.7552 41.0175 22.6406 41.0175Z" stroke="#6E5FA7" stroke-width="0.75" stroke-miterlimit="10"/>
<path d="M23.6987 23.4638V12.8494H20.4056V25.1986L28.8736 30.9616L30.726 28.2565L23.6987 23.4638Z" stroke="#6E5FA7" stroke-width="0.75" stroke-miterlimit="10"/>
<path d="M45.1631 50.7496C42.311 50.7496 39.5765 49.6323 37.5477 47.6035L28.5798 38.6356C27.5507 37.6065 27.5507 35.9011 28.5798 34.872C29.0797 34.3722 29.7559 34.1076 30.4616 34.1076C31.1085 34.1076 31.7553 34.2546 32.314 34.5486L36.1364 36.4598V22.9932C36.1364 21.4643 37.3713 20.2293 38.9297 20.2293C39.4295 20.2293 39.9 20.3469 40.3116 20.6116V20.2293C40.3116 18.7004 41.5465 17.4655 43.0755 17.4655C44.6045 17.4655 45.8394 18.7004 45.8394 20.2293V20.6116C47.1625 19.8471 48.8679 20.2881 49.6324 21.6407C49.8676 22.0523 50.0146 22.5522 50.0146 23.0226V23.4049C51.3377 22.6404 53.0431 23.0814 53.8076 24.434C54.0428 24.8456 54.1898 25.3455 54.1898 25.8159V41.7817C54.1604 46.7214 50.1322 50.7496 45.1631 50.7496Z" fill="white" stroke="#6E5FA7" stroke-width="0.75" stroke-miterlimit="10"/>
<path d="M45.1631 50.7496C42.311 50.7496 39.5765 49.6323 37.5477 47.6035L28.5798 38.6356C27.5507 37.6065 27.5507 35.9011 28.5798 34.872C29.0797 34.3722 29.7559 34.1076 30.4616 34.1076C31.1085 34.1076 31.7553 34.2546 32.314 34.5486L36.1364 36.4598V22.9932C36.1364 21.4643 37.3713 20.2293 38.9297 20.2293C39.4295 20.2293 39.9 20.3469 40.3116 20.6116V20.2293C40.3116 18.7004 41.5465 17.4655 43.0755 17.4655C44.6045 17.4655 45.8394 18.7004 45.8394 20.2293V20.6116C47.1625 19.8471 48.8679 20.2881 49.6324 21.6407C49.8676 22.0523 50.0146 22.5522 50.0146 23.0226V23.4049C51.3377 22.6404 53.0431 23.0814 53.8076 24.434C54.0428 24.8456 54.1898 25.3455 54.1898 25.8159V41.7817C54.1604 46.7214 50.1322 50.7496 45.1631 50.7496ZM30.4322 35.4895C29.7265 35.4895 29.1679 36.0482 29.1679 36.7538C29.1679 37.0773 29.3149 37.4007 29.5501 37.6359L38.518 46.6038C40.2822 48.368 42.6639 49.3383 45.1337 49.3383C49.3383 49.3383 52.7785 45.9276 52.7785 41.6935V25.7277C52.7785 24.9632 52.161 24.3458 51.3965 24.3458C50.6321 24.3458 50.0146 24.9632 50.0146 25.7277V31.9905C50.0146 32.3728 49.6912 32.6962 49.3089 32.6962C48.9267 32.6962 48.6033 32.3728 48.6033 31.9905V22.9638C48.6033 22.1993 47.9858 21.5819 47.2213 21.5819C46.4568 21.5819 45.8394 22.1993 45.8394 22.9638V31.9905C45.8394 32.3728 45.5159 32.6962 45.1337 32.6962C44.7515 32.6962 44.428 32.3728 44.428 31.9905V20.1999C44.428 19.4355 43.8106 18.818 43.0461 18.818C42.2816 18.818 41.6641 19.4355 41.6641 20.1999V31.9905C41.6641 32.3728 41.3407 32.6962 40.9585 32.6962C40.5762 32.6962 40.2528 32.3728 40.2528 31.9905V22.9638C40.2528 22.1993 39.6353 21.5819 38.8709 21.5819C38.1064 21.5819 37.4889 22.1993 37.4889 22.9638V37.5771C37.4889 37.9593 37.1655 38.2828 36.7832 38.2828C36.6656 38.2828 36.5774 38.2534 36.4598 38.1946L31.6377 35.7835C31.2849 35.5777 30.8733 35.4895 30.4322 35.4895Z" fill="white" stroke="#6E5FA7" stroke-width="0.75" stroke-miterlimit="10"/>
</svg>
