<svg width="55" height="52" viewBox="0 0 55 52" fill="none" xmlns="http://www.w3.org/2000/svg">
<path d="M22.6406 1C10.703 1 1 10.703 1 22.6406C1 34.5782 10.703 44.2812 22.6406 44.2812C34.5782 44.2812 44.2812 34.5782 44.2812 22.6406C44.2812 10.703 34.5488 1 22.6406 1ZM22.6406 41.0175C12.526 41.0175 4.29313 32.7846 4.29313 22.67C4.29313 12.5554 12.526 4.32254 22.6406 4.32254C32.7552 4.32254 40.9881 12.5554 40.9881 22.67C40.9881 32.7846 32.7552 41.0175 22.6406 41.0175Z" stroke="#00B4C2" stroke-width="0.75" stroke-miterlimit="10"/>
<path d="M23.6989 23.4638V12.8494H20.4058V25.1986L28.8738 30.9616L30.7262 28.2565L23.6989 23.4638Z" stroke="#00B4C2" stroke-width="0.75" stroke-miterlimit="10"/>
<path d="M45.1632 50.7498C42.3111 50.7498 39.5767 49.6325 37.5478 47.6036L28.5799 38.6357C27.5508 37.6066 27.5508 35.9013 28.5799 34.8721C29.0798 34.3723 29.7561 34.1077 30.4617 34.1077C31.1086 34.1077 31.7555 34.2547 32.3141 34.5487L36.1365 36.4599V22.9933C36.1365 21.4644 37.3714 20.2295 38.9298 20.2295C39.4296 20.2295 39.9001 20.3471 40.3117 20.6117V20.2295C40.3117 18.7005 41.5467 17.4656 43.0756 17.4656C44.6046 17.4656 45.8395 18.7005 45.8395 20.2295V20.6117C47.1626 19.8472 48.868 20.2883 49.6325 21.6408C49.8677 22.0524 50.0147 22.5523 50.0147 23.0227V23.405C51.3379 22.6405 53.0432 23.0815 53.8077 24.4341C54.0429 24.8457 54.1899 25.3456 54.1899 25.816V41.7819C54.1605 46.7216 50.1323 50.7498 45.1632 50.7498Z" fill="white" stroke="#00B4C2" stroke-width="0.75" stroke-miterlimit="10"/>
<path d="M45.1632 50.7498C42.3111 50.7498 39.5767 49.6325 37.5478 47.6036L28.5799 38.6357C27.5508 37.6066 27.5508 35.9013 28.5799 34.8721C29.0798 34.3723 29.7561 34.1077 30.4617 34.1077C31.1086 34.1077 31.7555 34.2547 32.3141 34.5487L36.1365 36.4599V22.9933C36.1365 21.4644 37.3714 20.2295 38.9298 20.2295C39.4296 20.2295 39.9001 20.3471 40.3117 20.6117V20.2295C40.3117 18.7005 41.5467 17.4656 43.0756 17.4656C44.6046 17.4656 45.8395 18.7005 45.8395 20.2295V20.6117C47.1626 19.8472 48.868 20.2883 49.6325 21.6408C49.8677 22.0524 50.0147 22.5523 50.0147 23.0227V23.405C51.3379 22.6405 53.0432 23.0815 53.8077 24.4341C54.0429 24.8457 54.1899 25.3456 54.1899 25.816V41.7819C54.1605 46.7216 50.1323 50.7498 45.1632 50.7498ZM30.4323 35.4896C29.7267 35.4896 29.168 36.0483 29.168 36.7539C29.168 37.0774 29.315 37.4008 29.5502 37.636L38.5182 46.6039C40.2823 48.3681 42.664 49.3384 45.1338 49.3384C49.3385 49.3384 52.7786 45.9277 52.7786 41.6936V25.7278C52.7786 24.9633 52.1611 24.3459 51.3967 24.3459C50.6322 24.3459 50.0147 24.9633 50.0147 25.7278V31.9907C50.0147 32.3729 49.6913 32.6963 49.309 32.6963C48.9268 32.6963 48.6034 32.3729 48.6034 31.9907V22.9639C48.6034 22.1995 47.9859 21.582 47.2214 21.582C46.457 21.582 45.8395 22.1995 45.8395 22.9639V31.9907C45.8395 32.3729 45.5161 32.6963 45.1338 32.6963C44.7516 32.6963 44.4281 32.3729 44.4281 31.9907V20.2001C44.4281 19.4356 43.8107 18.8181 43.0462 18.8181C42.2817 18.8181 41.6643 19.4356 41.6643 20.2001V31.9907C41.6643 32.3729 41.3408 32.6963 40.9586 32.6963C40.5764 32.6963 40.2529 32.3729 40.2529 31.9907V22.9639C40.2529 22.1995 39.6355 21.582 38.871 21.582C38.1065 21.582 37.489 22.1995 37.489 22.9639V37.5772C37.489 37.9595 37.1656 38.2829 36.7834 38.2829C36.6658 38.2829 36.5776 38.2535 36.4599 38.1947L31.6378 35.7836C31.285 35.5778 30.8734 35.4896 30.4323 35.4896Z" fill="white" stroke="#00B4C2" stroke-width="0.75" stroke-miterlimit="10"/>
</svg>
