<svg width="65" height="56" viewBox="0 0 65 56" fill="none" xmlns="http://www.w3.org/2000/svg">
<path d="M64.0633 28.0037C64.0633 28.3547 63.9709 28.6996 63.7953 29.0036L48.7893 55.0001C48.6138 55.3041 48.3614 55.5566 48.0574 55.7321C47.7534 55.9076 47.4086 56 47.0575 56L17.0615 56C16.7105 56 16.3656 55.9076 16.0616 55.7321C15.7577 55.5566 15.5052 55.3041 15.3297 55.0001L0.339691 29.0116C0.164177 28.7076 0.0717767 28.3627 0.0717767 28.0117C0.0717767 27.6607 0.164177 27.3158 0.339691 27.0118L15.3457 1.01524C15.5212 0.711249 15.7737 0.458811 16.0776 0.283297C16.3816 0.107787 16.7265 0.0153795 17.0775 0.0153719L47.0735 0.0153694C47.4245 0.015377 47.7694 0.107784 48.0734 0.283295C48.3774 0.458809 48.6298 0.711246 48.8053 1.01524L63.7953 27.0118C63.9695 27.3135 64.0619 27.6554 64.0633 28.0037ZM45.9017 52.0005L59.7519 28.0037L45.9177 4.00684L18.2293 4.00685L4.37916 28.0037L18.2173 52.0005L45.9017 52.0005Z" fill="white"/>
<path d="M49.0585 54.0003C49.0585 54.3513 48.9661 54.6962 48.7906 55.0002C48.615 55.3042 48.3626 55.5566 48.0586 55.7321C47.7546 55.9076 47.4098 56 47.0587 56C46.7077 56 46.3629 55.9076 46.0589 55.7321L1.07281 29.7435C0.83383 29.6185 0.622609 29.4464 0.451852 29.2377C0.281095 29.0289 0.154331 28.7878 0.0791867 28.5287C0.00404206 28.2697 -0.0179304 27.9982 0.014591 27.7304C0.0471125 27.4627 0.133456 27.2043 0.268427 26.9708C0.403397 26.7373 0.584207 26.5335 0.799977 26.3717C1.01575 26.2099 1.26202 26.0934 1.52398 26.0293C1.78593 25.9651 2.05817 25.9546 2.32429 25.9984C2.59042 26.0421 2.84494 26.1393 3.07255 26.284L48.0666 52.2605C48.3703 52.4377 48.6219 52.6919 48.796 52.9973C48.9702 53.3028 49.0607 53.6487 49.0585 54.0003Z" fill="white"/>
<path d="M49.0745 2.00572C49.0745 2.35674 48.9821 2.70157 48.8066 3.00556C48.6311 3.30955 48.3786 3.56198 48.0746 3.73749L3.07255 29.7421C2.84494 29.8868 2.59042 29.9839 2.32429 30.0277C2.05817 30.0715 1.78594 30.0609 1.52398 29.9968C1.26202 29.9326 1.01575 29.8161 0.799977 29.6543C0.584207 29.4925 0.403398 29.2887 0.268427 29.0552C0.133456 28.8217 0.0471131 28.5633 0.0145916 28.2956C-0.0179298 28.0279 0.00404266 27.7563 0.0791873 27.4973C0.154332 27.2383 0.281096 26.9971 0.451853 26.7884C0.62261 26.5796 0.833831 26.4075 1.07281 26.2825L46.0749 0.285948C46.3789 0.110437 46.7237 0.0180378 47.0747 0.0180359C47.4258 0.0180321 47.7706 0.11043 48.0746 0.285936C48.3786 0.461445 48.631 0.713879 48.8066 1.01787C48.9821 1.32186 49.0745 1.6667 49.0745 2.01772L49.0745 2.00572Z" fill="white"/>
<path d="M49.0734 2.00712L49.0734 54.0003C49.0734 54.5306 48.8628 55.0393 48.4877 55.4143C48.1127 55.7893 47.6041 56 47.0737 56C46.5433 56 46.0347 55.7893 45.6597 55.4143C45.2847 55.0393 45.074 54.5306 45.074 54.0003L45.074 2.00712C45.074 1.47675 45.2847 0.968113 45.6597 0.593086C46.0347 0.218063 46.5433 0.00738132 47.0737 0.00738128C47.6041 0.00738123 48.1127 0.218063 48.4877 0.593086C48.8628 0.968113 49.0734 1.47675 49.0734 2.00712Z" fill="white"/>
<path d="M26.5736 15.0097C26.5727 15.4496 26.4268 15.8769 26.1585 16.2254C25.8902 16.574 25.5145 16.8243 25.0895 16.9377C24.6646 17.0512 24.214 17.0213 23.8078 16.8528C23.4015 16.6843 23.0621 16.3865 22.8421 16.0056L15.3471 3.0113C15.2137 2.78378 15.1267 2.53214 15.0909 2.27084C15.0552 2.00955 15.0715 1.74377 15.1389 1.4888C15.2063 1.23384 15.3235 0.994724 15.4837 0.785229C15.6439 0.575733 15.844 0.399992 16.0724 0.268127C16.3007 0.136261 16.553 0.0508746 16.8145 0.0168818C17.076 -0.017111 17.3417 0.000964935 17.5962 0.0700624C17.8507 0.139162 18.089 0.257919 18.2975 0.4195C18.5059 0.581083 18.6803 0.782299 18.8106 1.01156L26.3057 14.0058C26.4819 14.311 26.5743 14.6573 26.5736 15.0097Z" fill="white"/>
<path d="M26.5664 41.0013C26.5664 41.3523 26.474 41.6971 26.2985 42.0011L18.7954 54.9994C18.5284 55.455 18.092 55.7864 17.5814 55.9214C17.0709 56.0563 16.5277 55.9839 16.0704 55.7199C15.6131 55.4558 15.2788 55.0216 15.1404 54.512C15.0021 54.0024 15.0709 53.4587 15.3319 52.9997L22.8349 40.0014C23.055 39.6202 23.3948 39.3222 23.8015 39.1538C24.2082 38.9854 24.6591 38.9558 25.0843 39.0697C25.5094 39.1837 25.8852 39.4347 26.1532 39.7839C26.4211 40.1332 26.5664 40.5611 26.5664 41.0013Z" fill="white"/>
<path d="M64.0646 28.0037C64.0646 28.534 63.8539 29.0427 63.4789 29.4177C63.1039 29.7927 62.5953 30.0034 62.0649 30.0034L47.0669 30.0034C46.5365 30.0034 46.0279 29.7927 45.6528 29.4177C45.2778 29.0427 45.0671 28.534 45.0671 28.0037C45.0671 27.4733 45.2778 26.9647 45.6528 26.5897C46.0279 26.2146 46.5365 26.0039 47.0669 26.0039L62.0649 26.0039C62.5953 26.0039 63.1039 26.2146 63.4789 26.5897C63.8539 26.9647 64.0646 27.4733 64.0646 28.0037Z" fill="white"/>
<path d="M49.0659 28.0022C49.0659 28.3533 48.9735 28.6981 48.7979 29.0021C48.6224 29.3061 48.37 29.5585 48.066 29.734L25.565 42.7323C25.3374 42.877 25.0829 42.9741 24.8167 43.0179C24.5506 43.0617 24.2784 43.0512 24.0164 42.987C23.7545 42.9229 23.5082 42.8064 23.2924 42.6445C23.0766 42.4827 22.8958 42.279 22.7609 42.0455C22.6259 41.812 22.5395 41.5536 22.507 41.2858C22.4745 41.0181 22.4965 40.7466 22.5716 40.4875C22.6468 40.2285 22.7735 39.9874 22.9443 39.7786C23.115 39.5698 23.3263 39.3978 23.5652 39.2728L46.0663 26.2705C46.3703 26.095 46.7151 26.0026 47.0661 26.0026C47.4172 26.0026 47.762 26.095 48.066 26.2705C48.37 26.446 48.6224 26.6984 48.7979 27.0024C48.9735 27.3064 49.0659 27.6512 49.0659 28.0022Z" fill="white"/>
<path d="M49.0672 28.0037C49.0672 28.3548 48.9747 28.6996 48.7992 29.0036C48.6237 29.3076 48.3713 29.56 48.0673 29.7355C47.7633 29.911 47.4184 30.0034 47.0674 30.0034C46.7164 30.0034 46.3715 29.911 46.0676 29.7355L23.5745 16.7412C23.3355 16.6162 23.1243 16.4441 22.9536 16.2354C22.7828 16.0266 22.656 15.7855 22.5809 15.5265C22.5058 15.2674 22.4838 14.9959 22.5163 14.7282C22.5488 14.4604 22.6352 14.202 22.7701 13.9685C22.9051 13.735 23.0859 13.5312 23.3017 13.3694C23.5175 13.2076 23.7637 13.0911 24.0257 13.027C24.2876 12.9628 24.5599 12.9523 24.826 12.9961C25.0921 13.0398 25.3466 13.137 25.5743 13.2817L48.0673 26.272C48.3713 26.4475 48.6237 26.6999 48.7992 27.0039C48.9747 27.3079 49.0672 27.6527 49.0672 28.0037Z" fill="white"/>
<path d="M26.573 15.0095L26.573 41.0061C26.573 41.5365 26.3623 42.0451 25.9873 42.4201C25.6122 42.7952 25.1036 43.0059 24.5732 43.0059C24.0429 43.0059 23.5342 42.7952 23.1592 42.4201C22.7842 42.0451 22.5735 41.5365 22.5735 41.0061L22.5735 15.0096C22.5735 14.4792 22.7842 13.9705 23.1592 13.5955C23.5342 13.2205 24.0429 13.0098 24.5732 13.0098C25.1036 13.0098 25.6122 13.2205 25.9872 13.5955C26.3623 13.9705 26.573 14.4792 26.573 15.0095Z" fill="white"/>
</svg>
