<svg width="28" height="27" viewBox="0 0 28 27" fill="none" xmlns="http://www.w3.org/2000/svg">
<path d="M3.8306 1.64085C3.77253 1.69892 3.67575 1.83441 3.59832 1.93119C2.35953 3.55712 0.907811 6.07343 1.00459 8.49295C1.19815 12.5384 6.65661 17.9194 8.32125 19.4873C9.98588 21.0358 15.754 26.1071 19.8188 25.991C20.4963 25.9716 21.2125 25.8361 21.948 25.5651C23.6514 24.9651 25.1805 23.8037 26.1483 22.9521C26.1483 22.9521 26.3612 22.7778 26.4387 22.6811C26.6516 22.4681 26.8064 22.1391 26.9226 21.6939C26.9806 21.4616 27 21.2294 27 21.0745C27 20.9003 26.9806 20.5519 26.8645 20.2422C26.7097 19.8163 26.5161 19.5066 26.3032 19.3131C26.1483 19.1582 22.49 16.2935 22.4706 16.2935L22.4513 16.2742C22.2577 16.1193 22.0448 16.0032 21.8319 15.9257C21.2899 15.7128 20.6705 15.6935 20.1092 15.9064C19.7608 16.0419 19.4317 16.2354 19.1994 16.5064L17.9413 17.842C17.8251 17.9775 17.6122 18.0936 17.5348 18.113C17.4574 18.1324 17.3993 18.1324 17.3606 18.1324L8.94064 10.3124C8.92129 10.2931 8.90193 10.2737 8.90193 10.2544C8.90193 10.235 8.90193 10.235 8.92129 10.2157C8.96 10.1576 9.09549 9.94467 9.2697 9.75111L10.5085 8.41553C11.1666 7.71871 11.3215 6.6154 10.915 5.74437C10.7601 5.43467 10.5666 5.2024 10.4698 5.10561L10.4117 5.04755C10.3924 5.02819 7.31472 1.64085 7.17923 1.52471C6.83081 1.21501 6.3082 1.04081 5.53395 1.0021C5.10811 0.982739 4.56614 1.09888 4.27579 1.29244C4.08223 1.40858 3.92738 1.52471 3.8306 1.64085ZM6.15335 2.60866C6.32755 2.78287 9.11485 5.84115 9.2697 6.01536L9.36648 6.1315C9.40519 6.17021 9.50197 6.28634 9.56004 6.40248C9.71489 6.71218 9.65682 7.11866 9.40519 7.37029L8.16639 8.72523C8.01155 8.88008 7.66313 9.28656 7.52764 9.61562C7.43086 9.84789 7.39215 10.0415 7.39215 10.2544C7.4115 10.6802 7.58571 11.0867 7.91476 11.3964L16.4121 19.2937C16.7412 19.6034 17.2057 19.6809 17.8058 19.5841C18.2703 19.5066 18.7736 19.1389 19.0446 18.8485L20.3027 17.4936C20.3802 17.3968 20.4963 17.3387 20.6318 17.2807C20.8447 17.2033 21.077 17.2033 21.2899 17.2807C21.406 17.3194 21.5028 17.3968 21.5415 17.4355C21.5803 17.4549 21.5996 17.4742 21.619 17.4936C21.9674 17.7646 25.1031 20.2228 25.2773 20.3777C25.2773 20.3777 25.3547 20.4551 25.4515 20.7454C25.4709 20.7842 25.4902 20.9003 25.4902 21.0551C25.4902 21.1519 25.4709 21.2293 25.4709 21.2487C25.3934 21.5197 25.3354 21.6165 25.3354 21.6165C25.2773 21.6745 25.1805 21.752 25.1612 21.7713C24.2708 22.5456 22.8965 23.5908 21.4254 24.1134C20.8447 24.3263 20.2834 24.4425 19.7801 24.4425C17.0122 24.5199 12.4441 21.21 9.36648 18.3453C6.28884 15.4806 2.64987 11.1641 2.53373 8.39617C2.43695 6.40248 3.73382 4.25394 4.79841 2.84094L4.83712 2.78287C4.85648 2.74416 4.89519 2.68609 4.93391 2.66673C4.97262 2.62802 5.03069 2.5893 5.0694 2.56995C5.12747 2.53124 5.34039 2.49252 5.47588 2.49252C5.92107 2.53124 6.13399 2.60866 6.15335 2.60866Z" stroke="#6E5FA7" stroke-width="0.75" stroke-miterlimit="10"/>
</svg>
