<svg width="28" height="27" viewBox="0 0 28 27" fill="none" xmlns="http://www.w3.org/2000/svg">
<path d="M3.8306 1.60179C3.77253 1.65986 3.67575 1.79535 3.59832 1.89213C2.35953 3.51806 0.907811 6.03436 1.00459 8.45389C1.19815 12.4993 6.65661 17.8804 8.32125 19.4482C9.98588 20.9967 15.754 26.0681 19.8188 25.9519C20.4963 25.9326 21.2125 25.7971 21.948 25.5261C23.6514 24.926 25.1805 23.7647 26.1483 22.913C26.1483 22.913 26.3612 22.7388 26.4387 22.642C26.6516 22.4291 26.8064 22.1 26.9226 21.6548C26.9806 21.4226 27 21.1903 27 21.0354C27 20.8612 26.9806 20.5128 26.8645 20.2031C26.7097 19.7773 26.5161 19.4676 26.3032 19.274C26.1483 19.1192 22.49 16.2545 22.4706 16.2545L22.4513 16.2351C22.2577 16.0802 22.0448 15.9641 21.8319 15.8867C21.2899 15.6738 20.6705 15.6544 20.1092 15.8673C19.7608 16.0028 19.4317 16.1964 19.1994 16.4674L17.9413 17.8029C17.8251 17.9384 17.6122 18.0546 17.5348 18.0739C17.4574 18.0933 17.3993 18.0933 17.3606 18.0933L8.94064 10.2734C8.92129 10.254 8.90193 10.2347 8.90193 10.2153C8.90193 10.196 8.90193 10.196 8.92129 10.1766C8.96 10.1185 9.09549 9.90561 9.2697 9.71205L10.5085 8.37647C11.1666 7.67964 11.3215 6.57634 10.915 5.70531C10.7601 5.39561 10.5666 5.16333 10.4698 5.06655L10.4117 5.00848C10.3924 4.98913 7.31472 1.60179 7.17923 1.48565C6.83081 1.17595 6.3082 1.00175 5.53395 0.963033C5.10811 0.943677 4.56614 1.05981 4.27579 1.25338C4.08223 1.36951 3.92738 1.48565 3.8306 1.60179ZM6.15335 2.5696C6.32755 2.74381 9.11485 5.80209 9.2697 5.97629L9.36648 6.09243C9.40519 6.13115 9.50197 6.24728 9.56004 6.36342C9.71489 6.67312 9.65682 7.0796 9.40519 7.33123L8.16639 8.68617C8.01155 8.84102 7.66313 9.2475 7.52764 9.57655C7.43086 9.80883 7.39215 10.0024 7.39215 10.2153C7.4115 10.6411 7.58571 11.0476 7.91476 11.3573L16.4121 19.2547C16.7412 19.5644 17.2057 19.6418 17.8058 19.545C18.2703 19.4676 18.7736 19.0998 19.0446 18.8095L20.3027 17.4545C20.3802 17.3578 20.4963 17.2997 20.6318 17.2416C20.8447 17.1642 21.077 17.1642 21.2899 17.2416C21.406 17.2803 21.5028 17.3578 21.5415 17.3965C21.5803 17.4158 21.5996 17.4352 21.619 17.4545C21.9674 17.7255 25.1031 20.1838 25.2773 20.3386C25.2773 20.3386 25.3547 20.416 25.4515 20.7064C25.4709 20.7451 25.4902 20.8612 25.4902 21.0161C25.4902 21.1129 25.4709 21.1903 25.4709 21.2096C25.3934 21.4806 25.3354 21.5774 25.3354 21.5774C25.2773 21.6355 25.1805 21.7129 25.1612 21.7323C24.2708 22.5065 22.8965 23.5517 21.4254 24.0744C20.8447 24.2873 20.2834 24.4034 19.7801 24.4034C17.0122 24.4808 12.4441 21.1709 9.36648 18.3062C6.28884 15.4415 2.64987 11.1251 2.53373 8.35711C2.43695 6.36342 3.73382 4.21488 4.79841 2.80187L4.83712 2.74381C4.85648 2.70509 4.89519 2.64702 4.93391 2.62767C4.97262 2.58895 5.03069 2.55024 5.0694 2.53089C5.12747 2.49217 5.34039 2.45346 5.47588 2.45346C5.92107 2.49217 6.13399 2.5696 6.15335 2.5696Z" stroke="#00B4C2" stroke-width="0.75" stroke-miterlimit="10"/>
</svg>
