<svg width="56" height="58" viewBox="0 0 56 58" fill="none" xmlns="http://www.w3.org/2000/svg">
<path d="M5.91862 53.9075C4.66319 53.9075 3.67678 52.9627 3.67678 51.703C3.63195 50.4433 4.61836 49.4535 5.82895 49.4535C7.08438 49.4085 8.07079 50.3983 8.11563 51.658C8.11563 52.8727 7.17406 53.8625 5.91862 53.9075ZM14.3031 41.6704C13.1822 40.5006 12.1958 39.3309 11.2542 38.0712L3.00423 46.6642C2.78005 46.8891 2.55586 47.1591 2.33168 47.429C1.21076 48.8237 0.762389 50.4433 1.12108 52.2429C1.61429 54.5373 3.00423 56.1119 5.24607 56.7418C7.57759 57.4166 9.55041 56.7418 11.2094 55.0322C13.9893 52.1529 16.7691 49.2286 19.549 46.3492C17.6659 44.9546 15.9172 43.38 14.3031 41.6704ZM54.3873 10.0429C54.2079 10.1778 54.1631 10.3578 54.0286 10.4927C52.0109 12.6072 49.9932 14.7217 47.9756 16.8362C47.7514 17.0612 47.5721 17.1512 47.2134 17.0612C45.1957 16.5213 43.1332 16.0264 41.1155 15.5315C40.7568 15.4416 40.6672 15.2616 40.5775 14.9467C40.0395 12.9672 39.4566 10.9876 38.8737 9.05309C38.784 8.69317 38.8289 8.46823 39.0979 8.19829C41.1155 6.0838 43.1332 3.96929 45.1957 1.85479C45.3302 1.71983 45.5544 1.67483 45.6889 1.58486C45.6441 1.49488 45.5544 1.44989 45.5096 1.35991C44.837 1.22494 44.1645 1.13497 43.5367 1C42.7745 1 42.0123 1.04499 41.2949 1.04499C41.1604 1.08997 41.0707 1.13496 40.9362 1.13496C33.4484 2.16972 28.6061 9.68294 30.7582 16.9262C30.8928 17.3761 30.8479 17.6011 30.5341 17.961C26.7229 21.92 22.9118 25.9241 19.0558 29.8832C21.1632 33.3473 23.8534 36.1367 27.2161 38.2962C31.2066 34.1121 35.2419 29.9281 39.2324 25.7441C39.4566 25.5192 39.6808 25.4742 39.9946 25.5192C42.0123 25.9691 44.0299 25.9241 46.0028 25.3392C51.0245 23.8996 54.4769 19.7156 54.9701 14.4968C55.0598 13.0571 54.9701 11.5725 54.3873 10.0429ZM53.5354 49.7234C51.9661 51.748 50.1726 53.5925 47.9756 54.9872C47.4824 55.3021 47.034 55.4371 46.4511 55.3921C39.0082 55.2571 32.0137 53.4576 25.3778 50.0384C23.2705 48.9586 21.3425 47.7439 19.5042 46.3492C17.6659 44.9546 15.9172 43.38 14.3031 41.6704C13.1822 40.5006 12.1958 39.3309 11.2542 38.0712C6.54634 31.9976 3.58711 24.9793 2.51102 17.1512C2.33167 15.9814 2.51102 14.8117 2.10749 13.642V10.4478C2.55586 9.05309 3.36292 7.92835 4.52868 6.98358C5.33574 6.35373 6.09797 5.58891 6.72569 4.82409C9.72976 1.13497 16.6795 2.03475 18.3384 7.92835C18.8765 9.8629 19.3697 11.8424 19.9974 13.777C20.939 16.6563 20.1319 19.0407 18.2039 21.1552C18.0694 21.2902 17.9349 21.4701 17.7555 21.6051C16.1863 22.6399 16.2311 23.9446 16.9037 25.5642C17.5314 27.1388 18.2488 28.5785 19.1007 29.9281C21.208 33.3923 23.8982 36.1817 27.261 38.3411C29.0544 39.5109 31.0721 40.4556 33.2691 41.1755C34.0762 41.4454 34.659 41.3554 35.2419 40.7256C36.1835 39.7808 36.9906 38.6111 38.246 38.0262C39.8153 37.3064 41.4742 37.1714 43.1332 37.6213C45.2854 38.1612 47.4824 38.791 49.5897 39.4659C53.5354 40.7256 56.4946 45.8994 53.5354 49.7234Z" stroke="#6E5FA7" stroke-miterlimit="10"/>
</svg>
