<svg width="81" height="81" viewBox="0 0 81 81" fill="none" xmlns="http://www.w3.org/2000/svg">
<path d="M79.6326 1.44092C79.3386 1.14697 78.9712 1 78.5303 1H40.5368C39.6549 1 38.9935 1.66139 38.9935 2.54325V6.95255L24.3693 10.8474C23.5609 11.0679 23.0465 11.9498 23.267 12.7581L30.8363 41.0512L24.2958 47.5916C23.4874 46.3423 22.0912 45.534 20.4744 45.534H5.62977C3.05768 45.534 1 47.5916 1 50.1637V75.3702C1 77.9423 3.05768 80 5.62977 80H20.4744C22.6791 80 24.4428 78.5302 24.9572 76.4726L26.7944 78.0893C28.1907 79.3386 30.0279 80 31.9386 80H78.5303C79.4121 80 80.0735 79.3386 80.0735 78.4568V2.54325C80.0735 2.10232 79.9265 1.73488 79.6326 1.44092ZM22.0177 75.4437C22.0177 76.3256 21.3563 76.987 20.4744 76.987H5.62977C4.74791 76.987 4.08651 76.3256 4.08651 75.4437V50.2372C4.08651 49.3554 4.74791 48.694 5.62977 48.694H11.5088V66.4781C11.5088 67.36 12.1702 68.0214 13.0521 68.0214C13.934 68.0214 14.5954 67.36 14.5954 66.4781V48.694H20.4744C21.3563 48.694 22.0177 49.3554 22.0177 50.2372V75.4437ZM26.6475 13.4195L38.9935 10.1126V15.8447L37.9647 16.1386C37.5972 16.2121 37.2298 16.506 37.0093 16.8735C36.7888 17.2409 36.7154 17.6819 36.8623 18.0493C37.4502 20.254 36.1275 22.5321 33.9228 23.12C33.5554 23.1935 33.1879 23.4874 32.9674 23.8549C32.747 24.2223 32.6735 24.6633 32.8205 25.0307L38.8465 47.2977H35.76L34.1433 41.0512C34.0698 40.8307 33.9963 40.6837 33.8493 40.5368L26.6475 13.4195ZM38.9935 22.973V35.9805L36.2009 25.5451C37.3768 24.9572 38.3321 24.0019 38.9935 22.973ZM61.187 76.987H31.9386C30.8363 76.987 29.734 76.5461 28.8521 75.8112L25.1042 72.5777V51.1926L31.8651 44.4316L33.1144 49.2084C33.2614 49.8698 33.9228 50.3842 34.5842 50.3842H64.9349C66.1107 50.3842 67.0661 51.3395 67.0661 52.5154C67.0661 53.6912 66.1107 54.6465 64.9349 54.6465H49.3554C48.4735 54.6465 47.8121 55.3079 47.8121 56.1898C47.8121 57.0716 48.4735 57.733 49.3554 57.733H69.7117C70.8875 57.733 71.8428 58.6884 71.8428 59.8642C71.8428 61.04 70.8875 61.9953 69.7117 61.9953H49.3554C48.4735 61.9953 47.8121 62.6567 47.8121 63.5386C47.8121 64.4205 48.4735 65.0819 49.3554 65.0819H66.4047C67.5805 65.0819 68.5358 66.0372 68.5358 67.213C68.5358 68.3888 67.5805 69.3442 66.4047 69.3442H49.3554C48.4735 69.3442 47.8121 70.0056 47.8121 70.8874C47.8121 71.7693 48.4735 72.4307 49.3554 72.4307H61.187C62.3628 72.4307 63.3182 73.3861 63.3182 74.5619C63.3182 75.9581 62.3628 76.987 61.187 76.987ZM76.987 76.987H65.9637C66.2577 76.3256 66.4047 75.5907 66.4047 74.8558C66.4047 74.1209 66.2577 73.3861 65.9637 72.7247H66.4781C69.3442 72.7247 71.6958 70.373 71.6958 67.507C71.6958 66.6986 71.4754 65.8902 71.1079 65.1554C73.3126 64.5675 75.0028 62.5098 75.0028 60.0847C75.0028 58.9089 74.6354 57.8065 73.974 56.9247V37.3768C73.974 36.4949 73.3126 35.8335 72.4307 35.8335C71.5488 35.8335 70.8874 36.4949 70.8874 37.3768V54.9405C70.52 54.867 70.1526 54.7935 69.7851 54.7935H69.7117C70.0056 54.1321 70.1526 53.3972 70.1526 52.6623C70.1526 49.7963 67.801 47.4447 64.9349 47.4447H62.4363C65.0819 46.3423 66.9191 43.6968 66.9191 40.6837C66.9191 36.6419 63.6121 33.2614 59.4967 33.2614C55.4549 33.2614 52.0744 36.5684 52.0744 40.6837C52.0744 43.6968 53.9116 46.3423 56.5572 47.4447H48.106V18.0493C50.8986 17.4614 53.0298 15.2567 53.6177 12.5377H65.2289C65.8168 15.3302 68.0214 17.4614 70.7405 18.0493V22.826C70.7405 23.7079 71.4019 24.3693 72.2837 24.3693C73.1656 24.3693 73.827 23.7079 73.827 22.826V16.653C73.827 15.7712 73.1656 15.1098 72.2837 15.1098C70.0056 15.1098 68.0949 13.2726 68.0949 10.9209C68.0949 10.0391 67.4335 9.37767 66.5516 9.37767H52.1479C51.266 9.37767 50.6047 10.0391 50.6047 10.9209C50.6047 13.1991 48.7675 15.1098 46.4158 15.1098C45.534 15.1098 44.8726 15.7712 44.8726 16.653V47.3712H41.8595V4.16H76.7665V76.987H76.987ZM59.4967 44.7991C57.1451 44.7991 55.1609 42.8884 55.1609 40.4633C55.1609 38.1116 57.0716 36.1275 59.4967 36.1275C61.8484 36.1275 63.8326 38.0381 63.8326 40.4633C63.8326 42.8884 61.9219 44.7991 59.4967 44.7991Z" stroke="#914B97" stroke-miterlimit="10"/>
</svg>
