<svg width="62" height="72" viewBox="0 0 62 72" fill="none" xmlns="http://www.w3.org/2000/svg">
<path d="M16.2752 38.9589C12.794 35.8168 4.93268 25.8874 22.9159 16.8886C40.3887 8.12538 33.0083 30.9046 32.6097 34.8789C32.2111 38.8532 34.7117 43.7767 43.2703 48.2322C59.0628 56.4508 39.0059 75.8877 30.7634 59.2597C26.8798 51.5042 24.7687 46.6595 16.2752 38.9589Z" stroke="#6E5FA7" stroke-miterlimit="10"/>
<path d="M32.9779 7.53934C32.3522 4.67848 30.0161 2.75927 27.76 3.25266C25.5039 3.74605 24.1821 6.46521 24.8077 9.32607C25.4334 12.1869 27.7695 14.1062 30.0256 13.6128C32.2818 13.1194 33.6035 10.4002 32.9779 7.53934Z" stroke="#6E5FA7" stroke-miterlimit="10"/>
<path d="M23.3857 9.27661C22.298 7.13212 20.0564 6.08338 18.379 6.93419C16.7016 7.785 16.2236 10.2132 17.3114 12.3577C18.3991 14.5022 20.6407 15.5509 22.3181 14.7001C23.9955 13.8493 24.4735 11.4211 23.3857 9.27661Z" stroke="#6E5FA7" stroke-miterlimit="10"/>
<path d="M16.9868 13.6451C16.0714 11.8404 14.1761 10.9623 12.7535 11.6838C11.3309 12.4054 10.9198 14.4534 11.8352 16.2582C12.7506 18.063 14.646 18.9411 16.0686 18.2195C17.4911 17.4979 17.9023 15.4499 16.9868 13.6451Z" stroke="#6E5FA7" stroke-miterlimit="10"/>
<path d="M11.9087 22.485C13.007 21.7719 13.1617 20.0607 12.2542 18.6628C11.3466 17.2649 9.72058 16.7098 8.62225 17.4228C7.52392 18.1359 7.36924 19.8471 8.27677 21.245C9.18429 22.6429 10.8104 23.198 11.9087 22.485Z" stroke="#6E5FA7" stroke-miterlimit="10"/>
<path d="M10.0442 27.9576C11.0496 27.1185 10.9989 25.401 9.931 24.1215C8.8631 22.8419 7.18239 22.4848 6.17702 23.3239C5.17164 24.1629 5.22233 25.8804 6.29022 27.16C7.35811 28.4395 9.03882 28.7966 10.0442 27.9576Z" stroke="#6E5FA7" stroke-miterlimit="10"/>
</svg>
