<svg xmlns="http://www.w3.org/2000/svg" width="29" height="19" fill="none" viewBox="0 0 29 19">
  <defs/>
  <path fill="url(#paint0_linear)" d="M16.855.58c3 0 5.451 2.226 5.451 4.968v.113l-.016.58.581.017a5.533 5.533 0 013.903 1.726 5.813 5.813 0 01.032 8 5.615 5.615 0 01-3.822 1.758H6.097c-3.049 0-5.516-2.065-5.516-4.613 0-.984.354-1.903 1.048-2.694.677-.774 1.645-1.37 2.742-1.677l.339-.097.08-.338A5.797 5.797 0 016.758 5.16a5.536 5.536 0 013.532-1.258c.307 0 .597.032.904.08l.451.082.194-.42a5.083 5.083 0 011.967-2.21 5.823 5.823 0 013.049-.854zm0-.58c-2.516 0-4.662 1.42-5.58 3.42a6.784 6.784 0 00-1-.081c-2.936 0-5.42 2.08-6.065 4.87C1.758 8.888 0 10.84 0 13.162c0 2.871 2.742 5.21 6.113 5.21h16.935v-.016C26.371 18.193 29 15.419 29 12.016c0-3.451-2.71-6.258-6.08-6.339v-.129C22.902 2.484 20.192 0 16.854 0z"/>
  <defs>
    <linearGradient id="paint0_linear" x1="28.639" x2="1.762" y1="14.138" y2="6.391" gradientUnits="userSpaceOnUse">
      <stop stop-color="#00B3BE"/>
      <stop offset=".46" stop-color="#5E5DA5"/>
      <stop offset=".998" stop-color="#784996"/>
    </linearGradient>
  </defs>
</svg>
