<svg width="70" height="59" viewBox="0 0 70 59" fill="none" xmlns="http://www.w3.org/2000/svg">
<path d="M10.6196 14.916H69.6546" stroke="white" stroke-miterlimit="10"/>
<path d="M36.3296 59V0" stroke="white" stroke-miterlimit="10"/>
<path d="M40.1368 45.8655H0" stroke="white" stroke-miterlimit="10"/>
<path d="M26.2689 10.3049H17.6407C16.8373 10.3049 16.2085 10.9337 16.2085 11.7371V20.3653C16.2085 21.1688 16.8373 21.7975 17.6407 21.7975H26.2689C27.0723 21.7975 27.7011 21.1688 27.7011 20.3653V11.7371C27.7011 10.9686 27.0374 10.3049 26.2689 10.3049Z" fill="white" stroke="white" stroke-miterlimit="10"/>
<path d="M40.661 10.3049H32.0328C31.2294 10.3049 30.6006 10.9337 30.6006 11.7371V20.3653C30.6006 21.1688 31.2294 21.7975 32.0328 21.7975H40.661C41.4644 21.7975 42.0932 21.1688 42.0932 20.3653V11.7371C42.0932 10.9686 41.4295 10.3049 40.661 10.3049Z" fill="white" stroke="white" stroke-miterlimit="10"/>
<path d="M55.0184 10.3049H46.3902C45.5868 10.3049 44.958 10.9337 44.958 11.7371V20.3653C44.958 21.1688 45.5868 21.7975 46.3902 21.7975H55.0184C55.8218 21.7975 56.4506 21.1688 56.4506 20.3653V11.7371C56.4855 10.9686 55.8218 10.3049 55.0184 10.3049Z" fill="white" stroke="white" stroke-miterlimit="10"/>
<path d="M26.2689 24.6968H17.6407C16.8373 24.6968 16.2085 25.3256 16.2085 26.129V34.7572C16.2085 35.5606 16.8373 36.1894 17.6407 36.1894H26.2689C27.0723 36.1894 27.7011 35.5606 27.7011 34.7572V26.129C27.7011 25.3605 27.0374 24.6968 26.2689 24.6968Z" fill="white" stroke="white" stroke-miterlimit="10"/>
<path d="M40.661 24.6968H32.0328C31.2294 24.6968 30.6006 25.3256 30.6006 26.129V34.7572C30.6006 35.5606 31.2294 36.1894 32.0328 36.1894H40.661C41.4644 36.1894 42.0932 35.5606 42.0932 34.7572V26.129C42.0932 25.3605 41.4295 24.6968 40.661 24.6968Z" fill="white" stroke="white" stroke-miterlimit="10"/>
<path d="M55.0184 24.6968H46.3902C45.5868 24.6968 44.958 25.3256 44.958 26.129V34.7572C44.958 35.5606 45.5868 36.1894 46.3902 36.1894H55.0184C55.8218 36.1894 56.4506 35.5606 56.4506 34.7572V26.129C56.4855 25.3605 55.8218 24.6968 55.0184 24.6968Z" fill="white" stroke="white" stroke-miterlimit="10"/>
<path d="M26.2689 39.0889H17.6407C16.8373 39.0889 16.2085 39.7176 16.2085 40.5211V49.1493C16.2085 49.9527 16.8373 50.5815 17.6407 50.5815H26.2689C27.0723 50.5815 27.7011 49.9527 27.7011 49.1493V40.5211C27.7011 39.7176 27.0374 39.0889 26.2689 39.0889Z" fill="white" stroke="white" stroke-miterlimit="10"/>
<path d="M40.661 39.0889H32.0328C31.2294 39.0889 30.6006 39.7176 30.6006 40.5211V49.1493C30.6006 49.9527 31.2294 50.5815 32.0328 50.5815H40.661C41.4644 50.5815 42.0932 49.9527 42.0932 49.1493V40.5211C42.0932 39.7176 41.4295 39.0889 40.661 39.0889Z" fill="white" stroke="white" stroke-miterlimit="10"/>
<path d="M55.0184 39.0889H46.3902C45.5868 39.0889 44.958 39.7176 44.958 40.5211V49.1493C44.958 49.9527 45.5868 50.5815 46.3902 50.5815H55.0184C55.8218 50.5815 56.4506 49.9527 56.4506 49.1493V40.5211C56.4855 39.7176 55.8218 39.0889 55.0184 39.0889Z" fill="white" stroke="white" stroke-miterlimit="10"/>
</svg>
