<svg xmlns="http://www.w3.org/2000/svg" width="58" height="58" fill="none" viewBox="0 0 58 58">
  <defs/>
  <path stroke="#fff" stroke-miterlimit="10" stroke-width=".7" d="M43.384 55.343c.271 0 .724 0 1.177-.045.996-.09 1.992-.226 2.942-.498a11.597 11.597 0 002.898-1.222c1.131-.68 2.037-1.54 2.851-2.58.544-.68.951-1.45 1.268-2.264.407-.906.68-1.901.815-2.897.136-.86.226-1.72.226-2.58 0-.68-.045-1.313-.09-1.992a16.666 16.666 0 00-.362-2.626c-.272-1.404-.68-2.807-1.132-4.165-.362-1.086-.815-2.128-1.268-3.169-.045-.09-.045-.271-.18-.271-.137 0-.182.135-.227.271-.362.68-.77 1.358-1.222 1.992-.453.68-.906 1.403-1.404 2.083a56.135 56.135 0 01-1.946 2.625 76.8 76.8 0 01-1.811 2.173c-.77.905-1.584 1.72-2.4 2.626a15.909 15.909 0 01-1.538 1.493c-.182.182-.182.182-.091.408l.271.543c.363.86.453 1.72.363 2.626-.136 1.086-.589 2.037-1.313 2.852-.498.588-1.132.996-1.81 1.267-.59.227-1.223.408-1.857.408-.362 0-.724 0-1.086-.09-.996-.182-1.811-.59-2.58-1.268-.227-.181-.227-.181-.453-.046-.544.317-1.087.68-1.63.996-.136.09-.317.181-.453.272-.045.045-.136.045-.136.136 0 .09.09.09.136.09h.045c1.72.77 3.44 1.449 5.252 1.947.996.271 2.037.498 3.078.679 1.087.09 2.264.226 3.667.226zm-28.022 0c.634.045 1.403-.045 2.173-.136 1.222-.135 2.4-.362 3.576-.679 1.223-.316 2.445-.679 3.622-1.131.815-.317 1.63-.634 2.4-.996.044-.046.135-.046.135-.136 0-.09-.09-.09-.136-.136-.272-.181-.543-.317-.86-.498-1.086-.634-2.173-1.313-3.169-2.037-.724-.543-1.494-1.086-2.218-1.63-.95-.724-1.901-1.539-2.807-2.308a36.813 36.813 0 01-1.946-1.811c-.815-.815-1.675-1.63-2.445-2.49a10.604 10.604 0 01-.679-.724l-1.494-1.766a54.496 54.496 0 01-1.992-2.535c-.498-.679-.95-1.358-1.448-2.082-.136-.227-.227-.227-.498-.181-.362.09-.68.136-1.041.136-.544 0-1.087-.091-1.585-.227-.226-.045-.271-.045-.362.181-.09.227-.136.453-.226.68a40.653 40.653 0 00-.951 3.35 29.732 29.732 0 00-.362 2.127c-.09.724-.181 1.449-.181 2.173 0 .679 0 1.313.045 1.992.09.724.136 1.403.317 2.082.181.86.453 1.72.86 2.535.408.906.95 1.72 1.585 2.49.724.815 1.539 1.539 2.535 2.082a12.913 12.913 0 003.304 1.313c1.223.226 2.445.362 3.848.362zm-12.54-40.29c0 .59.046 1.268.091 1.902.045.543.09 1.041.181 1.54.136.904.317 1.765.589 2.67.226.905.543 1.765.815 2.626.09.271.135.271.407.226.86-.226 1.72-.272 2.58-.09.362.09.362.09.544-.227.588-.86 1.177-1.72 1.81-2.535.408-.498.77-1.041 1.177-1.54l1.358-1.629a75.6 75.6 0 011.856-2.037c1.042-1.041 2.083-2.128 3.215-3.078.407-.363.77-.725 1.177-1.042a41.382 41.382 0 011.63-1.312c1.04-.815 2.082-1.63 3.213-2.354a50.376 50.376 0 012.58-1.675c.363-.227.68-.408 1.042-.634.045-.045.136-.09.136-.136 0-.09-.09-.09-.136-.136a6.415 6.415 0 00-.815-.362c-.95-.407-1.947-.815-2.942-1.132a25.174 25.174 0 00-3.17-.86c-.497-.09-.95-.18-1.448-.271-.634-.09-1.267-.181-1.947-.227-.498-.045-.995-.045-1.493-.09-.544 0-1.132.045-1.675.09-.951.046-1.856.227-2.762.498a9.977 9.977 0 00-2.4.996c-1.13.634-2.172 1.449-2.987 2.445a11.098 11.098 0 00-2.309 4.889c-.18 1.132-.316 2.263-.316 3.486zm52.74 0c0-.362-.046-.724-.046-1.04a18.529 18.529 0 00-.272-2.219c-.226-1.041-.498-1.992-.95-2.942a9.88 9.88 0 00-2.988-3.712c-1.087-.86-2.309-1.449-3.622-1.856-.679-.227-1.403-.363-2.082-.453-.77-.136-1.54-.136-2.309-.181-.588 0-1.177.045-1.72.09l-1.449.136c-.86.136-1.72.272-2.535.498-1.358.317-2.67.724-3.938 1.222a53.87 53.87 0 00-2.4.996c-.045.046-.135.046-.135.136 0 .09.09.09.136.136.045 0 .045.045.09.045.906.498 1.766 1.041 2.626 1.585.77.498 1.539 1.04 2.263 1.584l1.63 1.222c.453.362.86.725 1.313 1.041.18.136.18.136.362 0 .226-.135.407-.271.634-.407.95-.453 1.901-.679 2.942-.543.634.09 1.268.271 1.856.588.181.09.181.181.09.363-.18.316-.361.633-.588.95-.136.226-.18.226-.407.136-.815-.362-1.675-.498-2.535-.226-.68.18-1.268.588-1.766 1.131-.724.86-.95 1.856-.77 2.943.137.86.59 1.539 1.268 2.082.906.68 1.901.95 2.988.725 1.449-.317 2.58-1.54 2.761-2.988.046-.589.046-1.177-.18-1.72-.091-.272-.227-.498-.363-.77-.09-.181-.09-.181.045-.317.317-.226.589-.453.86-.679.227-.181.272-.181.408.045 1.041 1.54 1.222 3.214.543 4.935-.136.362-.317.679-.543 1.04-.136.227-.136.227 0 .408.136.181.272.317.407.498a50.208 50.208 0 012.943 3.984 48.8 48.8 0 011.268 1.992l.814 1.358c.046.045.046.09.09.136.091.09.137.09.182 0 0-.046.045-.09.045-.136.408-.86.77-1.766 1.087-2.671.316-.86.588-1.72.86-2.58a28.32 28.32 0 00.815-3.893c.18-.906.226-1.766.271-2.671zM33.786 47.105c0 .227 0 .453.045.634.181.905.634 1.63 1.403 2.218.906.634 1.902.815 2.943.589.86-.181 1.539-.68 2.037-1.358 1.132-1.54.815-3.758-.724-4.89-.906-.678-1.902-.86-2.943-.633-.407.09-.815.271-1.177.498-.18.136-.226.09-.362-.09-.226-.272-.453-.59-.68-.86-.135-.182-.135-.273.046-.408.227-.181.498-.317.77-.453 1.041-.498 2.173-.588 3.304-.362.725.136 1.404.498 2.038.95.226.136.226.136.407-.045l.136-.136c.905-.905 1.856-1.81 2.716-2.761.407-.407.77-.86 1.177-1.268a42.942 42.942 0 001.81-2.218c.499-.634.997-1.267 1.45-1.946.407-.634.86-1.223 1.267-1.856a52.805 52.805 0 002.037-3.44.411.411 0 000-.454l-.543-.95c-.498-.86-.996-1.675-1.494-2.49-.453-.724-.996-1.449-1.494-2.173l-1.222-1.63c-.362-.452-.725-.95-1.132-1.403-.136-.181-.181-.181-.362-.045-.77.452-1.63.724-2.535.724-.815 0-1.585-.136-2.309-.453-1.177-.543-2.037-1.448-2.58-2.67-.408-.906-.498-1.857-.363-2.807a5.27 5.27 0 01.68-1.947c.135-.18.135-.226-.046-.407-.18-.136-.362-.317-.588-.453-1.177-.996-2.445-1.901-3.712-2.761-.362-.272-.77-.498-1.132-.725-1.041-.679-2.082-1.267-3.169-1.856-.226-.135-.362-.09-.588 0-1.042.589-2.083 1.177-3.079 1.811-.86.543-1.675 1.132-2.49 1.72-.226.181-.452.317-.678.498-1.132.906-2.31 1.811-3.396 2.762-.77.679-1.539 1.358-2.263 2.082-.996.95-1.947 1.992-2.897 3.033-.453.498-.906.996-1.313 1.54a50.675 50.675 0 00-1.449 1.81L9.568 24.47c-.136.226-.136.271.045.407.226.181.407.362.634.588.271.317.543.634.724 1.042.09.18.09.18-.09.271-.363.181-.725.363-1.132.544-.09.045-.181.045-.272-.091-.045-.045-.045-.09-.09-.181-.317-.453-.68-.86-1.177-1.132-.906-.543-1.856-.634-2.852-.362-.86.226-1.54.77-1.992 1.494-.498.815-.68 1.72-.453 2.716.226.86.68 1.54 1.358 2.037a3.48 3.48 0 002.309.68 3.382 3.382 0 002.037-.816c.86-.724 1.268-1.63 1.313-2.761 0-.272.045-.317.271-.317.363-.045.77-.045 1.132-.09.136 0 .181.045.226.18 0 .363.046.68 0 1.042-.226 1.358-.86 2.49-1.946 3.35-.226.18-.226.226-.045.452.362.408.633.906.95 1.358.453.634.951 1.223 1.404 1.857.77 1.04 1.63 1.991 2.49 2.942.633.724 1.312 1.403 1.991 2.083.544.543 1.132 1.086 1.72 1.63a51.39 51.39 0 002.355 2.081 64.237 64.237 0 003.938 2.988 50.248 50.248 0 004.527 2.762c.226.136.407.09.588 0a60.327 60.327 0 002.898-1.675c.226-.136.226-.136.135-.408a8.931 8.931 0 01-.362-1.177 5.22 5.22 0 01.09-2.218c.091-.407.272-.77.453-1.132.091-.135.136-.135.272-.09.362.181.68.407 1.041.588.227.136.227.181.136.408-.317.498-.453.996-.407 1.584zm23.359-32.096v1.313c0 .68-.09 1.358-.181 2.037-.182 1.132-.408 2.264-.725 3.35-.226.906-.543 1.766-.86 2.671a45.337 45.337 0 01-1.81 4.3c-.091.227-.091.408 0 .59.452.905.86 1.855 1.267 2.806.498 1.222.95 2.49 1.267 3.757.317 1.087.544 2.218.725 3.35.18.95.271 1.947.226 2.897v2.038c0 .86-.136 1.72-.317 2.58-.226.996-.498 1.992-.95 2.897a11.88 11.88 0 01-1.358 2.309c-.317.453-.68.86-1.087 1.267-.453.453-.95.906-1.494 1.268a12.46 12.46 0 01-3.893 1.901c-.86.272-1.766.408-2.67.543-1.133.136-2.22.136-3.35.09-.544 0-1.133-.09-1.676-.18-.724-.09-1.403-.181-2.127-.362-.498-.136-1.042-.227-1.54-.362-.95-.227-1.9-.544-2.852-.86-1.086-.363-2.127-.815-3.123-1.268-.408-.181-.86-.407-1.268-.589a.577.577 0 00-.543 0c-.905.453-1.856.906-2.807 1.268-1.267.498-2.58.996-3.938 1.358-.905.226-1.765.453-2.716.589a14.38 14.38 0 01-1.947.271c-.77.09-1.584.136-2.399.136-.86 0-1.765-.09-2.626-.226a14.669 14.669 0 01-3.666-.996c-.906-.408-1.766-.86-2.58-1.494A9.481 9.481 0 014.86 53.17c-.408-.407-.815-.86-1.177-1.313a12.48 12.48 0 01-1.72-3.259c-.363-1.041-.634-2.082-.77-3.169-.136-1.086-.226-2.173-.181-3.26.045-.769.136-1.493.226-2.217.136-1.041.362-2.128.589-3.124.226-.905.498-1.81.814-2.67.091-.318.227-.59.317-.906.046-.136.046-.227-.045-.272l-.272-.271c-.86-.815-1.312-1.811-1.539-2.988-.135-.906 0-1.81.362-2.671.227-.589.634-1.132 1.042-1.63.09-.136.226-.226.362-.317.226-.18.226-.18.136-.407a69.173 69.173 0 01-.906-2.852 35.734 35.734 0 01-.679-3.169c-.136-.86-.226-1.72-.271-2.58-.046-.589-.046-1.222-.046-1.811.046-.724.136-1.403.227-2.128.18-1.222.498-2.399.996-3.576.407-.95.905-1.856 1.539-2.67.362-.453.724-.906 1.177-1.314a13.574 13.574 0 012.218-1.675 9.453 9.453 0 011.81-.86c.86-.317 1.766-.588 2.717-.77.679-.135 1.358-.18 2.082-.27.272-.046.543 0 .86 0h1.268c.362 0 .679.044 1.041.09.408.045.77.09 1.177.135.543.091 1.087.136 1.585.272.724.136 1.448.317 2.172.498.725.226 1.494.453 2.219.68 1.584.542 3.123 1.221 4.662 1.946.181.09.363.09.544 0 .86-.453 1.72-.815 2.625-1.177a50.965 50.965 0 013.395-1.223c.77-.226 1.54-.452 2.354-.588.453-.09.86-.226 1.313-.272.634-.09 1.313-.18 1.947-.271.996-.136 2.037-.046 3.033-.09.498 0 .996.09 1.494.135.679.09 1.358.226 1.992.407 1.086.272 2.127.68 3.123 1.223a11.477 11.477 0 012.897 2.218c.815.905 1.54 1.901 2.083 2.988.362.77.679 1.584.905 2.444.272 1.087.498 2.128.498 3.26.045.407.09.86.09 1.312z"/>
  <path stroke="#fff" stroke-miterlimit="10" stroke-width=".7" d="M30.754 27.367v-.724c0-.181-.045-.181-.18-.181-.091 0-.182.045-.272.045-.363.09-.77.136-1.132.09a5.62 5.62 0 01-1.222-.135c-.272-.091-.317-.046-.317.271v.996c-.046.317.09.543.317.724.09.046.18.136.226.181.362.227.77.227 1.177.227.498 0 .905-.227 1.222-.543a.412.412 0 00.181-.363v-.588zm-1.177-10.276c.589 0 1.177-.045 1.811 0 .181 0 .272.045.407.18.408.59.86 1.178 1.313 1.721 0 .045.046.045.09.09.046.046.046.091.137.046.045 0 .045-.045.045-.09v-.136c0-.544 0-1.042-.136-1.54a3.768 3.768 0 00-1.132-1.856c-.633-.588-1.403-.995-2.308-1.086-.498-.045-.996-.045-1.494.09a4.37 4.37 0 00-2.445 1.676l-.407.678c-.09.182-.045.227.136.272H28.265c.452-.045.905-.045 1.312-.045zm-1.584 1.675h-2.535c-.317 0-.362.045-.362.362v1.81c0 .499.09.997.271 1.45.408.95 1.041 1.72 1.992 2.172a4.057 4.057 0 002.309.408 4.37 4.37 0 001.856-.68 3.967 3.967 0 001.54-2.082c.044-.18.044-.317-.092-.498-.678-.905-1.358-1.765-2.037-2.67a.645.645 0 00-.543-.272h-2.4zm-7.334 20.416h-4.527c-.452 0-.452 0-.452-.453v-.95c0-.227.045-.272.271-.272h1.041c.317 0 .363-.045.363-.362v-3.757c0-1.041.362-1.947 1.04-2.716.544-.68 1.268-1.087 2.128-1.313 1.72-.498 3.396-.95 5.116-1.449.317-.09.362-.136.362-.453V26.01a.645.645 0 00-.271-.543 5.359 5.359 0 01-1.359-1.494 5.478 5.478 0 01-.86-2.445c-.09-.996-.045-1.946-.045-2.942 0-.77.136-1.494.407-2.219.725-1.765 1.992-2.897 3.848-3.44.68-.181 1.358-.271 2.037-.181.906.09 1.766.362 2.536.86 1.539.996 2.444 2.4 2.67 4.165.046.362.09.724.09 1.086v1.947c0 .679-.09 1.358-.316 1.992-.362 1.041-.996 1.901-1.856 2.625-.045.046-.136.09-.181.136a.412.412 0 00-.181.362v1.585c0 .271.045.317.317.407.95.272 1.856.543 2.806.77.227.045.272.136.181.362-.09.362-.18.679-.316 1.041-.046.227-.136.272-.363.227l-.407-.136c-.815-.227-1.584-.453-2.4-.68-.226-.09-.407-.045-.588.136-.588.589-1.313.86-2.127.951-.906.09-1.72-.136-2.49-.634-.136-.09-.272-.18-.362-.317a.51.51 0 00-.498-.135c-.498.135-.996.271-1.54.407-.86.226-1.765.498-2.625.77-.498.135-.95.226-1.449.407a2.467 2.467 0 00-1.539 2.264v3.847c0 .227.045.272.272.317H21.7c.227 0 .272-.045.272-.317v-.814-.86c0-.227.045-.272.272-.272h1.086c.272 0 .317.045.317.317v1.72c0 .136.09.181.226.181h1.54c.226 0 .271.045.271.272v1.131c0 .227-.045.272-.271.272h-.227c-1.494.045-2.988.045-4.527.045z"/>
  <path stroke="#fff" stroke-miterlimit="10" stroke-width=".7" d="M35.01 39.182h-7.243c-.453 0-.453 0-.453-.453v-.95c0-.227.046-.272.272-.272h6.655c.452 0 .452 0 .452-.453v-1.403c0-.362.046-.407.408-.407h.996c.271 0 .317.045.317.316v1.721c0 .136.09.18.18.226h2.535c.137 0 .227-.09.227-.226v-.227-3.621c0-.996-.407-1.72-1.267-2.218-.227-.136-.453-.181-.725-.272-.453-.136-.453-.136-.317-.588.09-.317.181-.634.272-.906.045-.18.09-.18.272-.18.679.18 1.358.407 1.9.905.816.678 1.359 1.584 1.495 2.67.045.317.045.634.045.906V37.28c0 .18.045.226.226.226h1.087c.317 0 .362.045.362.362v1.087c0 .226-.045.271-.272.271h-.226c-2.4-.045-4.798-.045-7.198-.045z"/>
  <path stroke="#fff" stroke-miterlimit="10" stroke-width=".7" d="M31.794 31.034c.181 0 .271.09.407.09.498.136.996.272 1.54.408.226.09.271.136.226.362-.09.362-.227.77-.317 1.132-.045.18-.136.226-.317.18-.634-.18-1.267-.362-1.901-.543-.181-.045-.227-.135-.181-.316.09-.408.226-.77.317-1.132.045-.09.09-.181.226-.181zM6.444 29.857h-.588c-.227 0-.272-.046-.272-.272v-1.177c0-.226.045-.271.272-.317h1.131c.272 0 .317.09.317.317v1.132c0 .226-.045.271-.317.317h-.543zM37.137 32.754c0 .136-.09.226-.09.362-.046.272-.136.543-.227.815-.045.181-.136.226-.317.181a11.33 11.33 0 01-1.177-.317c-.18-.045-.226-.136-.18-.317.09-.362.18-.724.316-1.086.09-.272.181-.317.453-.227.317.091.679.181 1.041.272.136.09.181.136.181.317zM37.317 46.199h.589c.226 0 .271.045.271.226v1.222c0 .181-.045.227-.226.227h-1.222c-.227 0-.272-.046-.272-.272v-1.177c0-.181.045-.226.226-.226h.634zM43.43 15.642v.634c0 .18-.046.271-.272.271H41.98c-.226 0-.317-.09-.317-.316v-1.132c0-.226.09-.317.272-.317h1.222c.181 0 .226.045.226.226.046.227.046.408.046.634z"/>
</svg>
