<svg width="93" height="81" viewBox="0 0 93 81" fill="none" xmlns="http://www.w3.org/2000/svg">
<path d="M71.8758 56.9724H19.9375V25.7086C19.9375 24.7001 20.7779 23.8597 21.7864 23.8597H69.9708C70.9793 23.8597 71.8198 24.7001 71.8198 25.7086V56.9724H71.8758ZM51.5935 59.5498H40.2197V58.8774H51.5935V59.5498ZM75.4056 57.0845H73.6687V25.7646C73.6687 23.7476 72.0439 22.1228 70.0268 22.1228H21.8424C19.8254 22.1228 18.2006 23.7476 18.2006 25.7646V57.0845H16.4077C15.9034 57.0845 15.5112 57.4767 15.5112 57.981V59.0455C15.5112 61.6788 17.6403 63.8079 20.2736 63.8079H59.2134C59.7176 63.8079 60.1098 63.4157 60.1098 62.9115C60.1098 62.4072 59.7176 62.015 59.2134 62.015H20.2736C18.6488 62.015 17.3041 60.6703 17.3041 59.0455V58.8774H38.4829V60.4462C38.4829 60.9505 38.8751 61.3427 39.3793 61.3427H52.49C52.9942 61.3427 53.3864 60.9505 53.3864 60.4462V58.8774H74.5651V59.0455C74.5651 60.6703 73.2204 62.015 71.5956 62.015H65.5446C65.0403 62.015 64.6481 62.4072 64.6481 62.9115C64.6481 63.4157 65.0403 63.8079 65.5446 63.8079H71.5956C74.229 63.8079 76.358 61.6788 76.358 59.0455V57.981C76.302 57.4767 75.9098 57.0845 75.4056 57.0845Z" stroke="#914B97" stroke-miterlimit="10"/>
<path d="M67.7859 25.5405H24.0277C22.571 25.5405 21.3944 26.7171 21.3944 28.1739V37.5866C21.3944 38.0909 21.7866 38.4831 22.2909 38.4831C22.7951 38.4831 23.1873 38.0909 23.1873 37.5866V28.1739C23.1873 27.7256 23.5795 27.3334 24.0277 27.3334H67.7859C68.2341 27.3334 68.6263 27.7256 68.6263 28.1739V53.6107H23.1313V43.9739C23.1313 43.4696 22.7391 43.0774 22.2348 43.0774C21.7306 43.0774 21.3384 43.4696 21.3384 43.9739V54.5072C21.3384 55.0115 21.7306 55.4037 22.2348 55.4037H69.4667C69.971 55.4037 70.3632 55.0115 70.3632 54.5072V28.1178C70.4192 26.7171 69.2426 25.5405 67.7859 25.5405Z" stroke="#914B97" stroke-miterlimit="10"/>
<path d="M46.5511 1C21.3943 1 1 21.3943 1 46.5511C1 58.261 5.48227 69.5227 13.5504 77.983C14.1106 78.5993 15.0631 78.5993 15.6794 78.039C16.2957 77.4787 16.2957 76.5262 15.7355 75.9099C-0.456736 58.9333 0.2156 31.9837 17.1922 15.7915C34.1688 -0.400712 61.1184 0.271632 77.3106 17.2482C92.4943 33.2163 92.9986 58.1489 78.4312 74.6773V70.8674C78.4312 70.0269 77.7589 69.3546 76.9184 69.3546C76.078 69.3546 75.4057 70.0269 75.4057 70.8674V78.4872C75.4057 79.3276 76.078 80 76.9184 80H84.4823C85.3227 80 85.995 79.3276 85.995 78.4872C85.995 77.6468 85.3227 76.9745 84.4823 76.9745H80.4482C97.2007 58.261 95.6319 29.4624 76.9184 12.6539C68.5702 5.14609 57.7567 1 46.5511 1Z" stroke="#914B97" stroke-miterlimit="10"/>
<path d="M56.0758 42.7413C56.0758 41.3406 55.4035 40.1079 54.395 39.3235V38.203C54.395 33.6086 50.6411 29.8547 46.0468 29.8547C41.4524 29.8547 37.6985 33.6086 37.6985 38.203V39.0434C36.4659 39.8278 35.6255 41.1725 35.6255 42.7413C35.6255 45.1505 37.5865 47.0554 39.9397 47.0554V38.4271C39.6595 38.4271 39.3234 38.4831 39.0432 38.5391V38.259C39.0432 34.393 42.1808 31.2554 46.0468 31.2554C49.9127 31.2554 53.0503 34.393 53.0503 38.259V38.6512C52.6581 38.5391 52.2099 38.4271 51.7056 38.4271V47.0554C51.9858 47.0554 52.2659 46.9994 52.546 46.9994C52.0978 47.9519 51.0893 49.3526 49.0163 49.7448C48.9042 49.5767 48.6801 49.4647 48.456 49.4647H47.1113C46.7191 49.4647 46.3829 49.8008 46.3829 50.2491C46.3829 50.6413 46.7191 50.9774 47.1113 50.9774H48.456C48.7922 50.9774 49.0723 50.7533 49.1843 50.4732C52.1538 49.9129 53.2184 47.6157 53.5546 46.6632C55.0673 46.0469 56.0758 44.5342 56.0758 42.7413Z" stroke="#914B97" stroke-miterlimit="10"/>
</svg>
