<svg xmlns="http://www.w3.org/2000/svg" width="59" height="58" fill="none" viewBox="0 0 59 58">
  <defs/>
  <path stroke="#fff" stroke-miterlimit="10" stroke-width=".7" d="M48.82 8.497c1.096.087 1.885-.921 1.842-1.842a1.852 1.852 0 00-1.842-1.841 1.9 1.9 0 00-1.885 1.885c.044.877.877 1.885 1.885 1.798zm-6.532 36.956c.088 0 .132-.088.22-.175 1.27-1.272 2.542-2.543 3.813-3.814l.132-.132a.133.133 0 000-.175c-.044-.044-.088-.132-.175-.176l-1.754-1.753-.395-.395c-.131-.131-.175-.131-.306 0-.395.483-.833.965-1.228 1.447-.57.614-1.184 1.184-1.797 1.753l-.92.79c-.132.131-.132.175 0 .306.744.746 1.533 1.535 2.279 2.28.044.044.087.044.131.044zm14.029 6.883c0-.263 0-.483-.044-.702-.132-.657-.482-1.183-.92-1.622l-7.146-7.145c-.264-.264-.307-.264-.57 0l-3.727 3.726-.131.131c-.088.088-.088.176 0 .263l.131.132c2.455 2.455 4.867 4.91 7.322 7.321.876.877 1.928 1.052 3.112.702 1.096-.395 2.017-1.579 1.973-2.806zM46.935 24.41c0-11.836-9.513-21.393-21.218-21.525-5.962-.088-11.135 2.017-15.387 6.181-4.21 4.121-6.313 9.207-6.401 15.081-.088 5.962 2.017 11.18 6.225 15.431 4.165 4.21 9.25 6.313 15.169 6.357 12.011.088 21.656-9.688 21.612-21.525zM2 22.7c.088-.043.088-.175.132-.263.087-.657.131-1.27.263-1.885.087-.57.219-1.183.35-1.753.263-.965.526-1.93.92-2.894.44-1.183 1.01-2.28 1.623-3.375A18.322 18.322 0 017.26 9.68a21.413 21.413 0 012.148-2.323c1.052-.965 2.148-1.842 3.332-2.587a17.398 17.398 0 012.498-1.403c1.14-.57 2.368-1.008 3.595-1.403a25.98 25.98 0 013.2-.701c.527-.088 1.097-.131 1.623-.175C24.709.956 25.76 1 26.813 1.044c.745 0 1.534.131 2.28.263.964.131 1.929.35 2.85.614.964.263 1.884.57 2.761 1.008.965.394 1.885.877 2.762 1.403.833.526 1.666 1.052 2.411 1.666.438.35.877.701 1.271 1.052.307.263.614.526.877.833.57.57 1.096 1.14 1.578 1.753.088.132.22.263.307.351.088.132.132.132.263 0 .132-.088.22-.22.351-.35l.965-.965c.175-.175.175-.175.087-.439a3.543 3.543 0 01-.394-1.622c0-.657.131-1.315.482-1.885.526-.92 1.315-1.534 2.323-1.797.79-.22 1.579-.132 2.368.175 1.008.439 1.71 1.184 2.06 2.192.088.22.088.307.438.307h4.954c.439 0 .439 0 .439.439v1.14c0 .306 0 .35-.35.35H52.81c-.263 0-.263 0-.351.263a3.554 3.554 0 01-.833 1.36c-.614.613-1.315.964-2.192 1.095-.745.132-1.447-.044-2.148-.35-.22-.132-.263-.088-.438.087L45.4 11.434c-.176.175-.176.219-.044.438a22.848 22.848 0 011.885 3.726c.439 1.14.833 2.28 1.096 3.464.22 1.008.395 2.016.526 3.025.044.263.044.57.044.833.044.613.088 1.227.044 1.797-.044.395-.088.833-.088 1.228 0 .394-.087.832-.131 1.227-.044.526-.176 1.096-.263 1.622a28.367 28.367 0 01-.483 2.06 21.746 21.746 0 01-2.192 5.086c-.175.307-.35.57-.526.833-.131.175-.131.219.044.35l.175.176 11.223 11.223a5.438 5.438 0 011.36 2.192c.087.394.175.745.175 1.14 0 .526 0 1.052-.176 1.578a4.901 4.901 0 01-1.797 2.586 4.217 4.217 0 01-2.236.92 3.833 3.833 0 01-1.578-.043 5.735 5.735 0 01-1.228-.395 4.467 4.467 0 01-1.315-.92l-7.102-7.102-4.252-4.253-.132-.131c-.175-.175-.219-.175-.438-.044-.833.526-1.666 1.009-2.543 1.403a20.94 20.94 0 01-3.726 1.359c-.57.175-1.14.307-1.71.395-.57.131-1.14.175-1.71.263-1.183.175-2.323.175-3.507.131-.613 0-1.27-.044-1.885-.131-.613-.088-1.183-.132-1.753-.263a17.579 17.579 0 01-2.981-.79c-1.272-.438-2.455-.92-3.639-1.534-.482-.263-.92-.526-1.359-.789a20.448 20.448 0 01-2.236-1.578c-.307-.22-.57-.483-.877-.745-.438-.395-.92-.833-1.315-1.272a38.518 38.518 0 01-1.753-2.016 22.041 22.041 0 01-2.63-4.34 22.132 22.132 0 01-1.447-4.034c-.22-.789-.351-1.578-.483-2.367-.087-.482-.131-1.008-.175-1.49 0-.088 0-.22-.131-.264V22.7H2z"/>
  <path stroke="#fff" stroke-miterlimit="10" stroke-width=".7" d="M37.598 19.763c.044-1.052-.877-1.885-1.797-1.885-1.009 0-1.886.877-1.886 1.841 0 1.096.921 1.842 1.842 1.842 1.052.044 1.885-.877 1.84-1.798zm-22.446 0c-.833-.044-1.841.702-1.841 1.841 0 1.096.877 1.842 1.841 1.842 1.008 0 1.885-.746 1.842-1.885.043-1.009-.79-1.798-1.842-1.798zm9.338 13.064c1.008 0 1.885-.745 1.885-1.84 0-1.097-.877-1.842-1.841-1.842-.877 0-1.885.745-1.885 1.841 0 1.052.92 1.885 1.841 1.841zm.79-26.172c-.352-.044-.878.044-1.448.088-1.227.088-2.41.35-3.55.701-.965.307-1.886.658-2.806 1.14-1.403.702-2.718 1.578-3.858 2.63-.92.877-1.798 1.798-2.543 2.85a17.325 17.325 0 00-2.85 6.27c0 .043-.043.13-.043.175-.044.131.044.175.131.219H11.25c.307 0 .307 0 .395-.307a3.616 3.616 0 01.877-1.403c.877-.877 1.973-1.228 3.244-1.052 1.14.175 2.017.745 2.63 1.71.702 1.183.79 2.367.176 3.638-.132.22-.132.263.087.439 1.272 1.27 2.543 2.542 3.814 3.814.176.219.22.175.483.087.876-.394 1.797-.526 2.762-.175.175.044.306.131.482.175.263.132.307.132.526-.087l.088-.088 5.523-5.524.132-.131c.087-.088.131-.176.044-.351-.307-.658-.483-1.315-.395-2.017.088-1.096.57-1.972 1.403-2.63 1.052-.833 2.28-1.008 3.55-.57.132.044.308.132.44.22.13.087.262.043.35-.045l2.017-2.016c.131-.132.131-.175.043-.35-.043-.045-.043-.089-.087-.132-.702-.877-1.447-1.754-2.28-2.543a16.471 16.471 0 00-1.929-1.534 14.363 14.363 0 00-3.112-1.71 16.48 16.48 0 00-4.121-1.184c-1.009-.22-1.973-.307-3.113-.307zM9.671 22.57H8.138c-.35 0-.35 0-.395.35-.043.57-.087 1.14-.087 1.754 0 .263.044.526.044.79 0 .35.043.657.087 1.008.132 1.008.307 2.016.614 2.98a20.746 20.746 0 001.096 2.894c.438.877.964 1.754 1.534 2.543.526.701 1.053 1.359 1.622 1.973.395.438.877.833 1.316 1.227a18.313 18.313 0 002.85 1.973c.92.482 1.84.92 2.849 1.271.745.263 1.49.438 2.236.614.482.087.92.175 1.402.22.57.087 1.14.087 1.754.13.482 0 1.008 0 1.49-.043a16.914 16.914 0 002.148-.263c.702-.132 1.36-.307 2.061-.483.833-.263 1.622-.57 2.367-.92a16.75 16.75 0 003.376-2.104c.57-.439 1.14-.965 1.666-1.491.57-.57 1.096-1.184 1.534-1.841a24.937 24.937 0 001.447-2.28c.526-1.008.964-2.017 1.271-3.112.22-.702.395-1.403.526-2.149.088-.613.176-1.227.22-1.84a13.96 13.96 0 00-.044-3.026c-.088-1.052-.307-2.06-.614-3.069-.35-1.183-.79-2.323-1.403-3.419-.131-.22-.175-.22-.35-.044-.527.526-1.097 1.052-1.623 1.622-.175.176-.175.22-.087.439.306.657.438 1.315.35 2.016a3.763 3.763 0 01-1.008 2.236 3.575 3.575 0 01-1.797 1.052c-.395.088-.79.176-1.184.132-.526-.088-1.008-.176-1.447-.439-.131-.087-.219-.043-.263.044l-.131.132-5.568 5.567-.131.132c-.132.131-.176.263-.088.394.088.132.131.307.22.483.218.701.262 1.402.087 2.104-.263 1.052-.877 1.841-1.841 2.367-.57.307-1.228.439-1.886.439-.482 0-.964-.088-1.402-.307-.833-.351-1.447-.965-1.842-1.754-.394-.789-.482-1.578-.306-2.455.043-.307.175-.614.35-.92.088-.132.088-.263-.044-.351l-.131-.132-3.727-3.726-.131-.132c-.088-.087-.131-.087-.263-.043-.044.043-.132.043-.175.087-.965.482-1.973.526-2.982.088-1.052-.438-1.753-1.184-2.148-2.28-.087-.263-.087-.263-.394-.263-.439-.175-.965-.175-1.49-.175zM27.427 44.05c-12.8.044-21.613-8.811-21.613-19.684 0-10.828 8.856-19.683 19.728-19.596 5.436.044 10.083 2.017 13.897 5.83 3.814 3.815 5.612 8.506 5.7 13.854-.132 5.392-1.974 10.083-5.831 13.897-3.814 3.814-8.505 5.655-11.88 5.7z"/>
</svg>
