<svg width="81" height="81" viewBox="0 0 81 81" fill="none" xmlns="http://www.w3.org/2000/svg">
<path d="M45.4439 79.9999H35.556C33.2385 79.9999 30.6121 78.043 30.6121 74.0775V67.1766C30.6121 63.8807 28.9641 60.9452 26.3376 58.6277C20.4152 54.0443 17.4282 47.4524 17.4282 40.1909C17.7372 27.6766 27.9856 17.7887 40.1394 17.4797C46.3709 17.4797 52.3448 19.7972 56.6192 24.0717C60.8937 28.3461 63.5201 34.2685 63.5201 40.5514C63.5201 47.4524 60.5332 54.0443 54.9712 58.3187C51.9843 60.6362 50.3878 64.2411 50.3878 67.5371V75.056C50.3878 77.6825 48.0703 79.9999 45.4439 79.9999ZM40.4999 20.7242C29.9426 20.7242 21.0847 29.6336 20.7242 40.1394C20.7242 46.3709 23.3506 52.3448 28.2946 55.9497C31.8995 58.9367 33.908 62.8507 33.908 67.1251V74.026C33.908 74.6955 33.908 76.6525 35.556 76.6525H45.4439C46.4223 76.6525 47.0918 75.983 47.0918 75.0045V67.4341C47.0918 63.1597 49.4093 58.5247 53.0143 55.5893C57.5977 51.9843 60.2757 46.3709 60.2757 40.4484C60.2757 35.1955 58.3187 30.2516 54.3533 26.2861C50.6968 22.7327 45.7529 20.7242 40.4999 20.7242Z" stroke="#6E5FA7" stroke-width="1.5" stroke-miterlimit="10"/>
<path d="M40.4999 10.8879C39.5214 10.8879 38.852 10.2184 38.852 9.23989V2.64798C38.852 1.66949 39.5214 1 40.4999 1C41.4784 1 42.1479 1.66949 42.1479 2.64798V9.23989C42.1479 10.2184 41.4784 10.8879 40.4999 10.8879Z" stroke="#6E5FA7" stroke-width="1.5" stroke-miterlimit="10"/>
<path d="M62.5418 20.1063C62.2328 20.1063 61.5633 20.1063 61.2028 19.7973C60.5333 19.1278 60.5333 18.1493 61.2028 17.4798L65.7862 12.8964C66.4557 12.2269 67.4342 12.2269 68.1037 12.8964C68.7732 13.5659 68.7732 14.5444 68.1037 15.2139L63.5203 19.7973C63.5203 19.7458 62.9023 20.1063 62.5418 20.1063Z" stroke="#6E5FA7" stroke-width="1.5" stroke-miterlimit="10"/>
<path d="M78.352 42.148H71.7601C70.7816 42.148 70.1121 41.4785 70.1121 40.5C70.1121 39.5215 70.7816 38.8521 71.7601 38.8521H78.352C79.3305 38.8521 80 39.5215 80 40.5C80 41.4785 79.3305 42.148 78.352 42.148Z" stroke="#6E5FA7" stroke-width="1.5" stroke-miterlimit="10"/>
<path d="M67.1766 68.8246C66.8676 68.8246 66.1981 68.8246 65.8376 68.5156L61.2542 63.9321C60.5847 63.2626 60.5847 62.2842 61.2542 61.6147C61.9237 60.9452 62.9022 60.9452 63.5717 61.6147L68.1551 66.1981C68.8246 66.8676 68.8246 67.8461 68.1551 68.5156C68.1551 68.8246 67.8461 68.8246 67.1766 68.8246Z" stroke="#6E5FA7" stroke-width="1.5" stroke-miterlimit="10"/>
<path d="M13.8234 68.8246C13.5144 68.8246 12.8449 68.8246 12.4844 68.5156C11.8149 67.8461 11.8149 66.8676 12.4844 66.1981L17.0678 61.6147C17.7373 60.9452 18.7158 60.9452 19.3853 61.6147C20.0548 62.2842 20.0548 63.2626 19.3853 63.9321L14.8019 68.5156C14.4929 68.8246 14.1839 68.8246 13.8234 68.8246Z" stroke="#6E5FA7" stroke-width="1.5" stroke-miterlimit="10"/>
<path d="M9.23989 42.148H2.64798C1.66949 42.148 1 41.4785 1 40.5C1 39.5215 1.66949 38.8521 2.64798 38.8521H9.23989C10.2184 38.8521 10.8879 39.5215 10.8879 40.5C10.8879 41.4785 10.2184 42.148 9.23989 42.148Z" stroke="#6E5FA7" stroke-width="1.5" stroke-miterlimit="10"/>
<path d="M18.4583 20.1062C18.1493 20.1062 17.4798 20.1062 17.1193 19.7972L12.5359 14.8018C11.8664 14.1323 11.8664 13.1538 12.5359 12.4843C13.2054 11.8148 14.1839 11.8148 14.8534 12.4843L19.4368 17.0677C20.1063 17.7372 20.1063 18.7157 19.4368 19.3852C19.1278 19.7457 18.7673 20.1062 18.4583 20.1062Z" stroke="#6E5FA7" stroke-width="1.5" stroke-miterlimit="10"/>
<path d="M53.6838 42.148C52.7053 42.148 52.0358 41.4785 52.0358 40.5C52.0358 34.2686 46.7829 28.9642 40.4999 28.9642C39.5214 28.9642 38.852 28.2947 38.852 27.3162C38.852 26.3377 39.5214 25.6682 40.4999 25.6682C48.7398 25.6682 55.3317 32.2601 55.3317 40.5C55.3317 41.4785 54.6623 42.148 53.6838 42.148Z" stroke="#6E5FA7" stroke-width="1.5" stroke-miterlimit="10"/>
</svg>
