<svg xmlns="http://www.w3.org/2000/svg" width="30" height="22" fill="none" viewBox="0 0 30 22">
  <defs/>
  <path fill="url(#paint0_linear)" d="M29.567 17.93h-.886V2.47c0-.993-.812-1.806-1.806-1.806H3.125c-.994 0-1.807.813-1.807 1.806v15.46H.433a.44.44 0 00-.433.434v.524c0 1.3 1.048 2.348 2.348 2.348h19.217a.44.44 0 00.434-.434.44.44 0 00-.434-.433H2.348a1.468 1.468 0 01-1.463-1.463v-.09h10.44v.776a.44.44 0 00.433.434h6.484a.44.44 0 00.433-.434v-.776h10.44v.09c0 .813-.668 1.463-1.463 1.463h-2.998a.44.44 0 00-.434.433.44.44 0 00.434.434h2.998c1.3 0 2.348-1.048 2.348-2.348v-.524a.44.44 0 00-.433-.433zM17.808 19.16H12.21v-.343h5.598v.343zm10.007-1.264H2.203V2.47c0-.506.416-.92.922-.92h23.768c.506 0 .922.414.922.92v15.425z"/>
  <path fill="url(#paint1_linear)" d="M25.791 2.488h-21.6c-.723 0-1.301.578-1.301 1.3v4.66a.44.44 0 00.433.434.44.44 0 00.434-.433v-4.66c0-.235.18-.416.415-.416h21.601c.235 0 .416.18.416.416v12.57H3.775v-4.768a.44.44 0 00-.434-.433.44.44 0 00-.433.433v5.202a.44.44 0 00.433.433h23.317a.44.44 0 00.434-.433V3.789c-.018-.723-.596-1.3-1.3-1.3z"/>
  <defs>
    <linearGradient id="paint0_linear" x1="31.024" x2=".013" y1="15.701" y2="6.763" gradientUnits="userSpaceOnUse">
      <stop stop-color="#00B3BE"/>
      <stop offset=".46" stop-color="#5E5DA5"/>
      <stop offset=".998" stop-color="#784996"/>
    </linearGradient>
    <linearGradient id="paint1_linear" x1="27.987" x2="2.129" y1="13.716" y2="6.262" gradientUnits="userSpaceOnUse">
      <stop stop-color="#00B3BE"/>
      <stop offset=".46" stop-color="#5E5DA5"/>
      <stop offset=".998" stop-color="#784996"/>
    </linearGradient>
  </defs>
</svg>
