<svg width="30" height="21" viewBox="0 0 30 21" fill="none" xmlns="http://www.w3.org/2000/svg">
<path d="M26.5163 1H3.46025C2.10711 1 1 2.10711 1 3.46025V17.7121C1 19.0653 2.10711 20.1724 3.46025 20.1724H26.5163C27.8694 20.1724 28.9766 19.0653 28.9766 17.7121V3.46025C28.9766 2.08954 27.887 1 26.5163 1ZM26.2 2.63431L25.8661 2.91548L15.9724 11.1573C15.41 11.6318 14.5841 11.6318 14.0218 11.1573L4.11046 2.91548L3.77657 2.63431H26.2ZM2.63431 3.81171L10.7004 10.5247L2.63431 15.9021V3.81171ZM26.5163 18.5205H3.46025C3.05607 18.5205 2.73975 18.2393 2.65188 17.8703L12.0184 11.6318L12.9674 12.4226C13.5473 12.9146 14.2678 13.1607 14.9883 13.1607C15.7088 13.1607 16.4293 12.9146 17.0092 12.4226L17.9582 11.6318L27.3247 17.8703C27.2544 18.2393 26.9205 18.5205 26.5163 18.5205ZM27.3423 15.9021L19.2761 10.5247L27.3423 3.79414V15.9021Z" stroke="#00B4C2" stroke-width="0.75" stroke-miterlimit="10"/>
</svg>
