<svg width="36" height="25" viewBox="0 0 36 25" fill="none" xmlns="http://www.w3.org/2000/svg">
<path d="M32.01 1H3.98995C2.34548 1 1 2.34548 1 3.98995V21.3103C1 22.9548 2.34548 24.3003 3.98995 24.3003H32.01C33.6545 24.3003 35 22.9548 35 21.3103V3.98995C35 2.32412 33.6759 1 32.01 1ZM31.6256 2.98618L31.2198 3.32789L19.196 13.3442C18.5126 13.9209 17.5088 13.9209 16.8254 13.3442L4.78015 3.32789L4.37437 2.98618H31.6256ZM2.98618 4.41709L12.7889 12.5754L2.98618 19.1105V4.41709ZM32.01 22.2927H3.98995C3.49874 22.2927 3.11432 21.951 3.00754 21.5025L14.3907 13.9209L15.544 14.8819C16.2487 15.4799 17.1244 15.7789 18 15.7789C18.8756 15.7789 19.7513 15.4799 20.456 14.8819L21.6093 13.9209L32.9925 21.5025C32.907 21.951 32.5013 22.2927 32.01 22.2927ZM33.0138 19.1105L23.2111 12.5754L33.0138 4.39573V19.1105Z" stroke="#6E5FA7" stroke-width="0.75" stroke-miterlimit="10"/>
</svg>
