<svg width="82" height="61" viewBox="0 0 82 61" fill="none" xmlns="http://www.w3.org/2000/svg">
<path d="M66.8645 4.60605H9.47198C8.47272 4.60605 7.64723 5.43153 7.64723 6.43079V40.3623C7.64723 41.3616 8.47272 42.187 9.47198 42.187H66.8645C67.8637 42.187 68.6892 41.3616 68.6892 40.3623V6.43079C68.6892 5.43153 67.8637 4.60605 66.8645 4.60605ZM67.1251 40.3623C67.1251 40.4926 66.9948 40.623 66.8645 40.623H9.47198C9.34164 40.623 9.2113 40.4926 9.2113 40.3623V6.43079C9.2113 6.30045 9.34164 6.17011 9.47198 6.17011H66.8645C66.9948 6.17011 67.1251 6.30045 67.1251 6.43079V40.3623Z" stroke="#6E5FA7" stroke-miterlimit="10"/>
<path d="M74.1635 43.4035H72.2953V5.56186C72.2953 3.04197 70.2533 1 67.7334 1H8.60309C6.08321 1 4.04124 3.04197 4.04124 5.56186V43.4035H2.17305C1.52135 43.4035 1 43.9249 1 44.5766V47.8351C1 49.9639 2.73785 51.7018 4.86671 51.7018H71.5132C73.6421 51.7018 75.38 49.9639 75.38 47.8351V44.5766C75.3365 43.9249 74.8152 43.4035 74.1635 43.4035ZM6.43078 5.56186C6.43078 4.38881 7.3866 3.38954 8.60309 3.38954H67.7334C68.9065 3.38954 69.9057 4.34536 69.9057 5.56186V43.4035H6.43078V5.56186ZM34.6708 45.7931H41.6657V46.4013C41.6657 46.662 41.4484 46.9227 41.1443 46.9227H35.1487C34.8881 46.9227 34.6274 46.7054 34.6274 46.4013L34.6708 45.7931ZM72.947 47.8785C72.947 48.704 72.2953 49.3557 71.4698 49.3557H4.86671C4.04123 49.3557 3.38954 48.704 3.38954 47.8785V45.7931H5.25773H33.1068V46.4013C33.1068 47.5744 34.0626 48.4867 35.1922 48.4867H41.1443C42.3174 48.4867 43.2297 47.5309 43.2297 46.4013V45.7931H71.0788H72.947V47.8785Z" stroke="#6E5FA7" stroke-miterlimit="10"/>
<path d="M78.1037 19.0303H59.8563C58.5095 19.0303 57.3799 20.1164 57.3799 21.5067V57.5236C57.3799 58.8705 58.466 60.0001 59.8563 60.0001H78.1037C79.4506 60.0001 80.5802 58.9139 80.5802 57.5236V21.5067C80.5802 20.1599 79.494 19.0303 78.1037 19.0303Z" fill="white"/>
<path d="M72.4123 21.0721H65.5912C65.2002 21.0721 64.8961 21.3763 64.8961 21.7673C64.8961 22.1583 65.2002 22.4624 65.5912 22.4624H72.4123C72.8033 22.4624 73.1074 22.1583 73.1074 21.7673C73.1074 21.3763 72.7598 21.0721 72.4123 21.0721Z" stroke="#6E5FA7" stroke-miterlimit="10"/>
<path d="M77.1913 21.0721H76.4962C76.1051 21.0721 75.801 21.3763 75.801 21.7673C75.801 22.1583 76.1051 22.4624 76.4962 22.4624H77.1913C77.5823 22.4624 77.8864 22.1583 77.8864 21.7673C77.8864 21.3763 77.5389 21.0721 77.1913 21.0721Z" stroke="#6E5FA7" stroke-miterlimit="10"/>
<path d="M69.8489 53.8307H68.1545C67.1118 53.8307 66.2863 54.6562 66.2863 55.6989V56.0464C66.2863 57.0892 67.1118 57.9146 68.1545 57.9146H69.8489C70.8916 57.9146 71.7171 57.0892 71.7171 56.0464V55.6989C71.7171 54.6996 70.8916 53.8307 69.8489 53.8307ZM70.3703 56.0464C70.3703 56.3506 70.153 56.5678 69.8489 56.5678H68.1545C67.8504 56.5678 67.6331 56.3506 67.6331 56.0464V55.6989C67.6331 55.3948 67.8504 55.1775 68.1545 55.1775H69.8489C70.153 55.1775 70.3703 55.3948 70.3703 55.6989V56.0464Z" stroke="#6E5FA7" stroke-miterlimit="10"/>
<path d="M78.1037 19.0303H59.8563C58.5095 19.0303 57.3799 20.1164 57.3799 21.5067V57.5236C57.3799 58.8705 58.466 60.0001 59.8563 60.0001H78.1037C79.4506 60.0001 80.5802 58.9139 80.5802 57.5236V21.5067C80.5802 20.1599 79.494 19.0303 78.1037 19.0303ZM79.2333 57.5236C79.2333 58.1319 78.7554 58.6098 78.1472 58.6098H59.8998C59.2915 58.6098 58.8136 58.1319 58.8136 57.5236V21.5067C58.8136 20.8985 59.2915 20.4206 59.8998 20.4206H78.1472C78.7554 20.4206 79.2333 20.8985 79.2333 21.5067V57.5236Z" stroke="#6E5FA7" stroke-miterlimit="10"/>
</svg>
