<svg width="37" height="59" viewBox="0 0 37 59" fill="none" xmlns="http://www.w3.org/2000/svg">
<path d="M35.823 22.952C35.6264 22.5915 35.2332 22.3512 34.8006 22.3512H19.4639L22.02 2.32667C22.0987 1.68588 21.6268 1.08515 20.9582 1.00505C20.5257 0.965004 20.0931 1.16525 19.8571 1.52569L1.17781 34.8466C0.823884 35.4073 1.02051 36.1281 1.57106 36.4886C1.76768 36.6087 1.96431 36.6488 2.20026 36.6488H17.301L15.2561 56.7134C15.2168 57.3942 15.6887 57.9549 16.3572 57.995C16.7898 58.035 17.2224 57.8348 17.4583 57.4343L35.823 24.1534C36.059 23.793 36.059 23.3124 35.823 22.952Z" stroke="#6E5FA7" stroke-width="0.75" stroke-miterlimit="10"/>
</svg>
