<svg xmlns="http://www.w3.org/2000/svg" width="68" height="68" fill="none" viewBox="0 0 68 68">
  <defs/>
  <path fill="#fff" d="M.227 55.08l3.007 4.01-3.142 7.33a1.134 1.134 0 001.587 1.438l22.666-12.466a1.133 1.133 0 000-1.984L1.68 40.942A1.134 1.134 0 00.092 42.38l3.142 7.33L.227 53.72a1.133 1.133 0 000 1.36zm5.122 4.827l10.64-2.505-12.517 6.885 1.877-4.38zm10.64-8.509l-10.64-2.505-1.877-4.38 12.517 6.885zm-10.994-.256L18.85 54.4 4.995 57.658 2.55 54.4l2.445-3.258zM49.867 0c-9.616 0-17.486 7.53-18.075 17h-2.99l-3.067-3.069-1.603 1.604L25.598 17h-4.631a11.9 11.9 0 000 23.8H33.53L36.6 43.87l1.603-1.604-1.466-1.465h21.631a6.233 6.233 0 110 12.467H48.069l-3.067-3.069-1.604 1.604 1.467 1.465H27.2v2.266h17.665l-1.467 1.465 1.604 1.604 3.067-3.069h10.298a8.5 8.5 0 000-17H36.736l1.466-1.464-1.603-1.604-3.068 3.068H20.967a9.633 9.633 0 110-19.266h4.631l-1.466 1.465 1.603 1.603 3.067-3.068h2.99c.589 9.47 8.459 17 18.075 17a18.133 18.133 0 100-36.267zm0 34c-8.367 0-15.223-6.517-15.809-14.733h3.4a12.466 12.466 0 100-2.267h-3.4C34.644 8.783 41.5 2.267 49.867 2.267a15.867 15.867 0 010 31.733zm-2.598-11.665l3.4-3.4a1.131 1.131 0 000-1.604l-3.4-3.4-1.604 1.604L47.131 17h-7.397a10.2 10.2 0 110 2.267h7.397l-1.466 1.465 1.604 1.603z"/>
  <path fill="#fff" d="M56.667 18.133a6.807 6.807 0 00-6.8-6.8V13.6a4.533 4.533 0 110 9.067v2.266a6.807 6.807 0 006.8-6.8z"/>
</svg>
