<svg xmlns="http://www.w3.org/2000/svg" width="170" height="176" fill="none" viewBox="0 0 170 176">
  <defs/>
  <path stroke="#6e5fa7" stroke-miterlimit="10" stroke-width="3" d="M163.54 105.53c0-10.59-4.997-19.964-12.728-25.963v-8.529c0-35.055-28.66-63.643-64.012-63.643-35.259 0-64.013 28.494-64.013 63.643v6.28c-9.616 5.811-16.026 16.309-16.026 28.306 0 18.278 14.895 33.087 33.279 33.087v-66.08c-2.357 0-4.714.282-6.883.75v-2.156c0-29.43 24.04-53.332 53.643-53.332 29.602 0 53.642 23.901 53.642 53.332v3.094a33.067 33.067 0 00-10.182-1.594v66.08c2.169 0 4.243-.188 6.317-.656-3.394 7.123-11.03 17.902-27.34 20.902-1.037-1.219-2.545-1.969-4.336-1.969H94.53c-3.206 0-5.846 2.625-5.846 5.811 0 3.187 2.64 5.812 5.845 5.812h10.37c2.452 0 4.62-1.594 5.469-3.75 22.908-4.311 31.11-21.932 33.561-29.15 11.596-5.342 19.61-16.87 19.61-30.274z"/>
</svg>
