<svg xmlns="http://www.w3.org/2000/svg" width="56" height="56" fill="none" viewBox="0 0 56 56">
  <defs/>
  <path fill="#fff" d="M41.066 23.333a8.4 8.4 0 100-16.8 8.4 8.4 0 000 16.8zm-2.766-2.49a3.694 3.694 0 012.767-1.243c.99-.001 1.94.39 2.643 1.09.047.045.085.101.13.15a6.45 6.45 0 01-5.54 0v.003zm.9-4.976h.16a2.771 2.771 0 001.706-.584c.488.38 1.088.585 1.706.584h.161a1.867 1.867 0 01-3.733 0zm0-1.867a1.867 1.867 0 013.733 0h-.16a.942.942 0 01-.66-.273l-.386-.388a.932.932 0 00-1.32 0l-.39.388a.942.942 0 01-.66.273H39.2zm1.866-5.6a6.524 6.524 0 014.338 11.405 5.602 5.602 0 00-.37-.439 5.705 5.705 0 00-1.26-.933 3.712 3.712 0 001.026-2.566V14a3.733 3.733 0 10-7.467 0v1.867a3.708 3.708 0 001.038 2.566 5.525 5.525 0 00-1.633 1.377A6.524 6.524 0 0141.066 8.4z"/>
  <path fill="#fff" d="M55.293 12.161l-2.595-.653a12.056 12.056 0 00-.989-2.382l1.374-2.296a.933.933 0 00-.14-1.139l-2.636-2.637a.933.933 0 00-1.14-.14l-2.296 1.38a12.018 12.018 0 00-2.384-.988L43.834.71a.934.934 0 00-.9-.709H39.2a.933.933 0 00-.905.707l-.654 2.596c-.826.244-1.623.576-2.378.99l-2.295-1.376a.933.933 0 00-1.14.14l-2.64 2.636a.933.933 0 00-.14 1.14l1.379 2.296a12.056 12.056 0 00-.99 2.383l-2.594.653a.934.934 0 00-.71.902v1.866H28v-1.137l2.42-.606a.932.932 0 00.681-.686c.25-1.022.655-2 1.203-2.898a.933.933 0 000-.966L31.02 6.498l1.61-1.61 2.142 1.284a.933.933 0 00.967 0c.899-.55 1.877-.955 2.901-1.204a.933.933 0 00.685-.68l.604-2.421h2.275l.606 2.42a.934.934 0 00.686.68c1.022.25 2 .655 2.898 1.204a.933.933 0 00.966 0l2.142-1.284 1.61 1.609-1.284 2.147a.933.933 0 000 .966c.55.899.956 1.877 1.207 2.9a.933.933 0 00.68.685l2.418.602v2.275l-2.42.605a.934.934 0 00-.68.686c-.25 1.023-.656 2-1.203 2.898a.934.934 0 000 .966l1.283 2.147-1.61 1.61-2.141-1.283a.934.934 0 00-.966 0c-.9.548-1.88.953-2.905 1.201a.933.933 0 00-.685.68L42.204 28H39.93l-.605-2.42a.933.933 0 00-.686-.681c-1.023-.249-2-.655-2.898-1.203l-.973 1.597c.9.549 1.867.977 2.878 1.273l.653 2.597a.934.934 0 00.9.7h3.734a.934.934 0 00.905-.707l.654-2.596a12.018 12.018 0 002.379-.99l2.296 1.38a.934.934 0 001.14-.14l2.64-2.637a.933.933 0 00.14-1.14l-1.38-2.296a12.05 12.05 0 00.99-2.382l2.595-.653A.932.932 0 0056 16.8v-3.733a.934.934 0 00-.707-.906zM43.867 49.467a5.6 5.6 0 100-11.2 5.6 5.6 0 000 11.2zm0-9.334a3.733 3.733 0 110 7.465 3.733 3.733 0 010-7.465z"/>
  <path fill="#fff" d="M55.253 41.085l-2.656-.532a7.888 7.888 0 00-.216-.512l1.505-2.257a.934.934 0 00-.117-1.176l-2.639-2.64a.933.933 0 00-1.177-.117l-2.26 1.5c-.17-.078-.341-.15-.512-.216l-.533-2.66a.933.933 0 00-.915-.742H42a.934.934 0 00-.915.747l-.532 2.657a9.167 9.167 0 00-.512.214l-1.256-.84-1.036 1.553 1.704 1.136a.933.933 0 00.952.05c.396-.21.81-.383 1.237-.519a.933.933 0 00.638-.7l.485-2.426h2.205l.486 2.426a.934.934 0 00.637.707c.426.136.84.31 1.236.518a.934.934 0 00.952-.049l2.066-1.377 1.558 1.557-1.377 2.07a.934.934 0 00-.05.952c.21.396.383.81.518 1.238a.933.933 0 00.708.637l2.427.486v2.203l-2.427.486a.933.933 0 00-.708.637 7.467 7.467 0 01-.518 1.238.933.933 0 00.05.952l1.377 2.066-1.558 1.553-2.066-1.377a.933.933 0 00-.95-.05c-.397.21-.812.383-1.24.518a.934.934 0 00-.636.708l-.486 2.43h-2.205l-.485-2.427a.934.934 0 00-.637-.708 7.443 7.443 0 01-1.24-.52.933.933 0 00-.95.052l-2.066 1.376-1.558-1.56 1.377-2.066a.934.934 0 00.05-.952 7.466 7.466 0 01-.518-1.237.934.934 0 00-.71-.639l-3.174-.634-.373 1.83 2.657.531c.065.172.137.343.215.512l-1.505 2.258a.934.934 0 00.117 1.176l2.639 2.64a.932.932 0 001.177.117l2.26-1.5c.17.077.342.149.512.215l.532 2.657A.934.934 0 0042 56h3.733a.934.934 0 00.915-.747l.532-2.656c.17-.067.343-.138.512-.215l2.258 1.504a.934.934 0 001.176-.117l2.64-2.639a.933.933 0 00.117-1.177l-1.5-2.26c.077-.17.15-.341.216-.512l2.657-.532a.933.933 0 00.744-.916V42a.934.934 0 00-.747-.915zM36.55 27.076l-3.603-.593a14.401 14.401 0 00-1.13-2.716l2.133-2.982a.934.934 0 00-.103-1.204l-3.957-3.957a.933.933 0 00-1.204-.103l-2.977 2.128a14.392 14.392 0 00-2.726-1.129l-.597-3.603a.933.933 0 00-.92-.784h-5.6a.934.934 0 00-.923.784l-.593 3.603c-.941.283-1.852.661-2.716 1.13l-2.982-2.133a.934.934 0 00-1.204.102l-3.957 3.962a.933.933 0 00-.108 1.204l2.128 2.978a14.4 14.4 0 00-1.124 2.72l-3.603.598A.933.933 0 000 28v5.6a.933.933 0 00.784.924l3.603.593c.282.941.66 1.851 1.129 2.716l-2.133 2.982a.934.934 0 00.103 1.204l3.957 3.957a.934.934 0 001.204.103l2.978-2.128c.867.468 1.78.847 2.725 1.129l.597 3.603a.933.933 0 00.92.784h5.6a.933.933 0 00.924-.784l.592-3.603a14.398 14.398 0 002.716-1.13l2.982 2.133a.934.934 0 001.204-.102l3.958-3.958a.934.934 0 00.102-1.204l-2.128-2.977c.47-.867.847-1.78 1.13-2.725l3.602-.598a.933.933 0 00.784-.919V28a.933.933 0 00-.784-.924zm-1.083 5.73l-3.407.57a.955.955 0 00-.756.69 13.04 13.04 0 01-1.39 3.36.934.934 0 00.046 1.018l2.007 2.819-2.838 2.837-2.818-2.007a.934.934 0 00-1.018-.046 13.04 13.04 0 01-3.36 1.39.956.956 0 00-.69.756l-.57 3.407H16.66l-.57-3.407a.956.956 0 00-.69-.756 13.044 13.044 0 01-3.36-1.39.934.934 0 00-1.017.046L8.204 44.1l-2.837-2.837 2.006-2.819a.934.934 0 00.047-1.017 13.044 13.044 0 01-1.39-3.36.956.956 0 00-.757-.691l-3.406-.57v-4.013l3.406-.569a.956.956 0 00.756-.69c.305-1.18.773-2.311 1.391-3.36a.933.933 0 00-.047-1.018l-2.006-2.819L8.204 17.5l2.819 2.007a.933.933 0 001.017.046 13.05 13.05 0 013.36-1.39.956.956 0 00.69-.756L16.66 14h4.013l.57 3.407a.955.955 0 00.69.756c1.18.304 2.31.772 3.36 1.39a.934.934 0 001.018-.046l2.818-2.007 2.838 2.837-2.007 2.819a.933.933 0 00-.047 1.017 13.044 13.044 0 011.391 3.36.955.955 0 00.756.691l3.407.57v4.013z"/>
  <path fill="#fff" d="M26.59 22.876a11.191 11.191 0 10-15.804 15.849 11.191 11.191 0 0015.805-15.849zM13.973 38.85l2.641-1.316 1.391 1.39a.948.948 0 001.325 0l1.391-1.39 2.641 1.316a9.353 9.353 0 01-9.389 0zm5.348-9.352a2.769 2.769 0 002.147 1.274v.028a2.8 2.8 0 11-5.6 0v-.037a6.387 6.387 0 003.453-1.26v-.005zm-3.453-.611V28a2.8 2.8 0 015.6 0v.905a.921.921 0 01-.616-.485l-.42-.84a.933.933 0 00-1.498-.243l-.224.234a4.65 4.65 0 01-2.842 1.316zm3.733 6.486v.644l-.933.934-.934-.934v-.644a4.7 4.7 0 001.867 0zm5.665 2.026c-.084.084-.177.158-.261.242a4.146 4.146 0 00-.513-.308l-3.024-1.516v-1.312a4.62 4.62 0 001.866-3.705V28A4.667 4.667 0 0014 28v2.8a4.62 4.62 0 001.867 3.705v1.312l-3.024 1.516c-.179.09-.35.194-.514.308-.084-.084-.177-.158-.261-.242a9.333 9.333 0 1113.2 0h-.003z"/>
</svg>
