<svg width="68" height="71" viewBox="0 0 68 71" fill="none" xmlns="http://www.w3.org/2000/svg">
<path d="M52.5913 43.3842H55.9778C56.5598 46.1358 59.0997 48.0407 61.9042 47.7232C64.7086 47.4586 66.8252 45.0775 66.8252 42.273C66.8252 39.4686 64.7086 37.0874 61.9042 36.8229C59.0997 36.5583 56.5598 38.4103 55.9778 41.1618H53.7025V35.6588C53.7025 35.0767 53.2262 34.5476 52.5913 34.5476H50.3689C50.1043 30.8965 48.6756 27.4042 46.1887 24.7055H53.8083C54.3904 27.4571 56.9302 29.362 59.7347 29.0445C62.5391 28.7799 64.6557 26.3988 64.6557 23.5943C64.6557 20.7899 62.5391 18.4088 59.7347 18.1442C56.9302 17.8796 54.3904 19.7316 53.8083 22.4831H43.8075V22.5361C43.4371 22.2715 43.0667 22.0069 42.6963 21.7953V19.2554H49.2577C49.8397 19.2554 50.3689 18.7792 50.3689 18.1442V9.36044H55.9778C56.5598 12.112 59.0997 14.0169 61.9042 13.6994C64.7086 13.4348 66.8252 11.0537 66.8252 8.24925C66.8252 5.4448 64.7086 3.06367 61.9042 2.7991C59.0997 2.53453 56.5598 4.38652 55.9778 7.13805H49.3106C48.7285 7.13805 48.1994 7.61428 48.1994 8.24925V17.0859H41.6381C41.056 17.0859 40.5269 17.5621 40.5269 18.1971V20.6841C38.4632 19.7845 36.2408 19.3083 33.9655 19.3083C33.5951 19.3083 33.2247 19.3612 32.8543 19.3612V9.46628H34.0713C34.6534 12.2178 37.1933 14.1227 39.9977 13.8052C42.8022 13.5407 44.9187 11.1595 44.9187 8.35508C44.9187 5.55063 42.8022 3.16949 39.9977 2.90492C37.1933 2.64035 34.6534 4.49234 34.0713 7.24388H31.7431C31.1611 7.24388 30.6319 7.72011 30.6319 8.35508V19.6258C30.2615 19.6787 29.8911 19.7845 29.5207 19.8904V17.0859C29.5207 16.5039 29.0445 15.9747 28.4095 15.9747H20.737V8.30216C20.737 7.7201 20.2607 7.19097 19.6258 7.19097H11.8474C11.2653 4.43943 8.72546 2.53453 5.92101 2.85201C3.11657 3.11658 1 5.49771 1 8.30216C1 11.1066 3.11657 13.4877 5.92101 13.7523C8.72546 14.0169 11.2653 12.1649 11.8474 9.41336H18.5146V17.0859C18.5146 17.668 18.9908 18.1971 19.6258 18.1971H27.2983V20.6841C23.1181 22.5361 19.8903 25.9755 18.4087 30.2615H9.78375V29.0445C12.5353 28.4624 14.4402 25.9226 14.1227 23.1181C13.8581 20.3137 11.477 18.1971 8.67255 18.1971C5.8681 18.1971 3.48697 20.3137 3.2224 23.1181C2.95783 25.9226 4.80982 28.4624 7.56136 29.0445V31.3727C7.56136 31.9548 8.03758 32.4839 8.67255 32.4839H17.7738C17.615 33.2247 17.5621 33.9655 17.5092 34.6534H15.2868C14.7048 34.6534 14.1756 35.1296 14.1756 35.7646V41.2677H11.8474C11.2653 38.5161 8.72546 36.6112 5.92101 36.9287C3.11657 37.1933 1 39.5744 1 42.3788C1 45.1833 3.11657 47.5644 5.92101 47.829C8.72546 48.0936 11.2653 46.2416 11.8474 43.49H15.2339C15.816 43.49 16.3451 43.0138 16.3451 42.3788V36.8758H17.5092C17.7738 40.5269 19.2025 44.0192 21.6894 46.7178H18.5675C17.9854 46.7178 17.4563 47.194 17.4563 47.829V62.0629H11.8474C11.2653 59.3114 8.72546 57.4065 5.92101 57.7239C3.11657 57.9885 1 60.3697 1 63.1741C1 65.9786 3.11657 68.3597 5.92101 68.6243C8.72546 68.8888 11.2653 67.0368 11.8474 64.2853H18.5146C19.0966 64.2853 19.6258 63.8091 19.6258 63.1741V48.9402H24.0176V48.8344C26.875 51.0039 30.3144 52.168 33.8597 52.168V53.2792H30.579C29.9969 53.2792 29.4678 53.7554 29.4678 54.3904V57.7769C26.7163 58.3589 24.8114 60.8988 25.1288 63.7032C25.3934 66.5077 27.7745 68.6243 30.579 68.6243C33.3834 68.6243 35.7646 66.5077 36.0292 63.7032C36.2937 60.8988 34.4417 58.3589 31.6902 57.7769V55.4486H34.9709C35.5529 55.4486 36.0821 54.9724 36.0821 54.3374V52.0092C38.8865 51.6388 41.5322 50.5276 43.7546 48.8344V48.8873H47.0353V63.1212C47.0353 63.7032 47.5115 64.2324 48.1465 64.2324H55.9249C56.5069 66.9839 59.0468 68.8888 61.8512 68.5713C64.6557 68.3068 66.7723 65.9256 66.7723 63.1212C66.7723 60.3167 64.6557 57.9356 61.8512 57.671C59.0468 57.4065 56.5069 59.2585 55.9249 62.01H49.2577V47.7761C49.2577 47.194 48.7815 46.6649 48.1465 46.6649H46.1358C48.5698 43.9134 50.0514 40.4739 50.316 36.8229H51.4801V42.3259C51.533 42.908 52.0092 43.3842 52.5913 43.3842ZM61.375 39.0453C63.1741 39.0453 64.6557 40.5269 64.6557 42.3259C64.6557 44.125 63.1741 45.6066 61.375 45.6066C59.5759 45.6066 58.0943 44.125 58.0943 42.3259C58.0943 40.474 59.5759 39.0453 61.375 39.0453ZM59.2055 20.3666C61.0046 20.3666 62.4862 21.8482 62.4862 23.6473C62.4862 25.4463 61.0046 26.9279 59.2055 26.9279C57.4065 26.9279 55.9249 25.4463 55.9249 23.6473C55.9249 21.8482 57.3535 20.3666 59.2055 20.3666ZM61.375 5.02149C63.1741 5.02149 64.6557 6.50308 64.6557 8.30216C64.6557 10.1012 63.1741 11.5828 61.375 11.5828C59.5759 11.5828 58.0943 10.1012 58.0943 8.30216C58.0943 6.50308 59.5759 5.02149 61.375 5.02149ZM39.4686 5.02149C41.2677 5.02149 42.7492 6.50308 42.7492 8.30216C42.7492 10.1012 41.2677 11.5828 39.4686 11.5828C37.6695 11.5828 36.1879 10.1012 36.1879 8.30216C36.1879 6.50308 37.6166 5.02149 39.4686 5.02149ZM6.55598 11.6358C4.7569 11.6358 3.27531 10.1542 3.27531 8.35508C3.27531 6.556 4.7569 5.0744 6.55598 5.0744C8.35506 5.0744 9.83666 6.556 9.83666 8.35508C9.83666 10.1542 8.40798 11.6358 6.55598 11.6358ZM5.4977 23.7002C5.4977 21.9011 6.9793 20.4195 8.77838 20.4195C10.5775 20.4195 12.0591 21.9011 12.0591 23.7002C12.0591 25.4992 10.5775 26.9808 8.77838 26.9808C6.92639 26.9808 5.4977 25.4992 5.4977 23.7002ZM6.55598 45.6066C4.7569 45.6066 3.27531 44.125 3.27531 42.3259C3.27531 40.5269 4.7569 39.0453 6.55598 39.0453C8.35506 39.0453 9.83666 40.5269 9.83666 42.3259C9.83666 44.125 8.40798 45.6066 6.55598 45.6066ZM6.55598 66.4548C4.7569 66.4548 3.27531 64.9732 3.27531 63.1741C3.27531 61.375 4.7569 59.8934 6.55598 59.8934C8.35506 59.8934 9.83666 61.375 9.83666 63.1741C9.83666 64.9732 8.40798 66.4548 6.55598 66.4548ZM33.9655 63.1212C33.9655 64.9203 32.4839 66.4019 30.6848 66.4019C28.8857 66.4019 27.4042 64.9203 27.4042 63.1212C27.4042 61.3221 28.8857 59.8405 30.6848 59.8405C32.4839 59.8405 33.9655 61.3221 33.9655 63.1212ZM61.375 59.8405C63.1741 59.8405 64.6557 61.3221 64.6557 63.1212C64.6557 64.9203 63.1741 66.4019 61.375 66.4019C59.5759 66.4019 58.0943 64.9203 58.0943 63.1212C58.0943 61.3221 59.5759 59.8405 61.375 59.8405ZM33.9655 49.9985C26.0813 49.9985 19.7316 43.5959 19.7316 35.7646C19.7316 27.8804 26.1342 21.5307 33.9655 21.5307C41.7968 21.5307 48.1994 27.9333 48.1994 35.7646C48.1994 43.5959 41.8497 49.9985 33.9655 49.9985Z" stroke="#6E5FA7" stroke-miterlimit="10"/>
<path d="M49.5223 1H18.7263C16.451 1 14.5461 2.85199 14.5461 5.18021V65.8198C14.5461 68.0951 16.3981 70 18.7263 70H49.5223C51.7976 70 53.7025 68.148 53.7025 65.8198V5.12729C53.6496 2.85199 51.7976 1 49.5223 1Z" fill="white"/>
<path d="M39.892 4.43939H28.4096C27.7746 4.43939 27.2455 4.96853 27.2455 5.6035C27.2455 6.23847 27.7746 6.76761 28.4096 6.76761H39.892C40.5269 6.76761 41.0561 6.23847 41.0561 5.6035C41.0032 4.96853 40.5269 4.43939 39.892 4.43939Z" stroke="#6E5FA7" stroke-miterlimit="10"/>
<path d="M47.9349 4.43939H46.7708C46.1358 4.43939 45.6067 4.96853 45.6067 5.6035C45.6067 6.23847 46.1358 6.76761 46.7708 6.76761H47.9349C48.5699 6.76761 49.099 6.23847 49.099 5.6035C49.0461 4.96853 48.5699 4.43939 47.9349 4.43939Z" stroke="#6E5FA7" stroke-miterlimit="10"/>
<path d="M35.5531 59.6287H32.6957C30.9495 59.6287 29.5208 61.0574 29.5208 62.8036V63.3327C29.5208 65.0789 30.9495 66.5076 32.6957 66.5076H35.5531C37.2992 66.5076 38.7279 65.0789 38.7279 63.3327V62.8036C38.7279 61.0045 37.2992 59.6287 35.5531 59.6287ZM36.3997 63.3327C36.3997 63.8089 36.0293 64.1793 35.5531 64.1793H32.6957C32.2195 64.1793 31.8491 63.8089 31.8491 63.3327V62.8036C31.8491 62.3273 32.2195 61.9569 32.6957 61.9569H35.5531C36.0293 61.9569 36.3997 62.3273 36.3997 62.8036V63.3327Z" stroke="#6E5FA7" stroke-miterlimit="10"/>
<path d="M49.5223 1H18.7263C16.451 1 14.5461 2.85199 14.5461 5.18021V65.8198C14.5461 68.0951 16.3981 70 18.7263 70H49.5223C51.7976 70 53.7025 68.148 53.7025 65.8198V5.12729C53.6496 2.85199 51.7976 1 49.5223 1ZM51.3743 65.8198C51.3743 66.8252 50.5277 67.6718 49.5223 67.6718H18.7263C17.7209 67.6718 16.8743 66.8252 16.8743 65.8198V5.12729C16.8743 4.12193 17.7209 3.2753 18.7263 3.2753H49.5223C50.5277 3.2753 51.3743 4.12193 51.3743 5.12729V65.8198Z" stroke="#6E5FA7" stroke-miterlimit="10"/>
</svg>
