<svg xmlns="http://www.w3.org/2000/svg" width="57" height="56" fill="none" viewBox="0 0 57 56">
  <defs/>
  <path fill="#6E5FA7" d="M51.925 40.09l-14.261 5.003c-.209.073-.428.11-.65.11h-.218a3.963 3.963 0 00-.364-3.02l-.072-.132a4.776 4.776 0 00-4.116-2.418H28.21a5.935 5.935 0 01-3.79-1.403 7.803 7.803 0 00-4.987-1.823h-.473c-.234 0-5.015.043-8.1 2.674a1.866 1.866 0 00-1.53-.81H1.864A1.87 1.87 0 000 40.135v13.056a1.869 1.869 0 001.865 1.865h7.46a1.857 1.857 0 001.433-.688 9.353 9.353 0 005.754 1.62h20.255a6.229 6.229 0 003.313-.97l14.438-9.253a3.168 3.168 0 001.372-2.064 3.28 3.28 0 00-.537-2.504 3.02 3.02 0 00-3.428-1.107zm-42.6 13.1h-7.46V40.136h7.46v13.056zM54.06 43.35a1.286 1.286 0 01-.552.848l-14.425 9.246a4.34 4.34 0 01-2.313.68H16.512c-3.565 0-4.953-1.402-5.322-1.878V41.427c2.279-3.106 7.716-3.155 7.77-3.155h.474a5.935 5.935 0 013.79 1.39 7.8 7.8 0 004.987 1.837h4.03a2.858 2.858 0 012.488 1.462l.072.132a2.076 2.076 0 01-.047 2.11h-4.59a7.622 7.622 0 00-4.38 1.395l-.558.392a.934.934 0 001.07 1.53l.558-.391a5.766 5.766 0 013.308-1.06h6.85a3.77 3.77 0 001.279-.219l14.24-4.996a1.14 1.14 0 011.303.428 1.395 1.395 0 01.226 1.067z"/>
  <path fill="#6E5FA7" d="M4.663 50.393a.983.983 0 00.662-.271 1.08 1.08 0 00.196-.307.922.922 0 00-.081-.875.932.932 0 00-1.44-.141.932.932 0 00.663 1.594zM39.165 11.228a2.797 2.797 0 100-5.595 2.797 2.797 0 000 5.595zm0-3.73a.932.932 0 110 1.864.932.932 0 010-1.864zM35.435 28.013h7.46a.933.933 0 00.933-.932V23.35a.933.933 0 00-.933-.932h-.932v-8.393a.931.931 0 00-.933-.932h-5.595a.931.931 0 00-.932.932v3.73a.933.933 0 00.932.933h.932v3.73h-.932a.933.933 0 00-.932.932v3.73a.933.933 0 00.932.933zm.932-3.73h.933a.933.933 0 00.933-.933v-5.595a.934.934 0 00-.933-.932h-.933v-1.866H40.1v8.393a.933.933 0 00.932.933h.932v1.864h-5.595v-1.864z"/>
  <path fill="#6E5FA7" d="M28.909 30.103v5.37a.933.933 0 001.511.736l4.107-3.254a16.81 16.81 0 10-5.613-2.852h-.005zm-3.015-20.061a14.904 14.904 0 118.718 20.99.937.937 0 00-.867.157l-2.973 2.355v-3.908a.934.934 0 00-.385-.756 14.912 14.912 0 01-4.493-18.838z"/>
</svg>
