<svg width="102" height="70" viewBox="0 0 102 70" fill="none" xmlns="http://www.w3.org/2000/svg">
<path d="M89.6095 5.84827H12.4483C11.1049 5.84827 9.99503 6.95809 9.99503 8.30154V53.9207C9.99503 55.2642 11.1049 56.374 12.4483 56.374H89.6095C90.953 56.374 92.0628 55.2642 92.0628 53.9207V8.30154C92.0628 6.95809 90.953 5.84827 89.6095 5.84827ZM89.9016 53.9207C89.9016 54.0959 89.7264 54.2712 89.5511 54.2712H12.4483C12.2731 54.2712 12.0978 54.0959 12.0978 53.9207V8.30154C12.0978 8.12631 12.2731 7.95107 12.4483 7.95107H89.6095C89.7848 7.95107 89.96 8.12631 89.96 8.30154V53.9207H89.9016Z" stroke="#6E5FA7" stroke-miterlimit="10"/>
<path d="M99.3645 58.0093H96.8528V7.13318C96.8528 3.74533 94.1075 1 90.7196 1H11.222C7.83411 1 5.08878 3.74533 5.08878 7.13318V58.0093H2.5771C1.70093 58.0093 1 58.7103 1 59.5864V63.9673C1 66.8294 3.33644 69.1659 6.19859 69.1659H95.8014C98.6635 69.1659 101 66.8294 101 63.9673V59.5864C101 58.7103 100.299 58.0093 99.3645 58.0093ZM8.35982 7.13318C8.35982 5.55607 9.64486 4.21262 11.2804 4.21262H90.778C92.3551 4.21262 93.6986 5.49766 93.6986 7.13318V58.0093H8.35982V7.13318ZM46.2687 61.222H55.6729V62.0397C55.6729 62.3902 55.3808 62.7406 54.972 62.7406H46.9112C46.5607 62.7406 46.2103 62.4486 46.2103 62.0397L46.2687 61.222ZM97.7874 64.0257C97.7874 65.1355 96.9112 66.0117 95.8014 66.0117H6.19859C5.08878 66.0117 4.21262 65.1355 4.21262 64.0257V61.222H6.7243H44.1659V62.0397C44.1659 63.6168 45.4509 64.8434 46.9696 64.8434H55.0304C56.6075 64.8434 57.8341 63.5584 57.8341 62.0397V61.222H95.2757H97.7874V64.0257Z" stroke="#6E5FA7" stroke-miterlimit="10"/>
<path d="M60.3458 26.4088C60.2289 26.1751 59.9953 26.0583 59.7617 26.0583H50.8247L52.3434 14.6097C52.4018 14.2592 52.1098 13.9088 51.7593 13.8503C51.5257 13.8503 51.2336 13.9672 51.1168 14.1424L40.2523 33.126C40.0771 33.4181 40.1355 33.8854 40.486 34.0606C40.6028 34.119 40.7196 34.1774 40.8364 34.1774H49.5981L48.4299 45.626C48.4299 45.9765 48.6635 46.327 49.0724 46.3854C49.306 46.3854 49.5397 46.2686 49.7149 46.0933L60.4042 27.1097C60.4626 26.876 60.4626 26.6424 60.3458 26.4088Z" stroke="#6E5FA7" stroke-miterlimit="10"/>
</svg>
