<svg width="72" height="71" viewBox="0 0 72 71" fill="none" xmlns="http://www.w3.org/2000/svg">
<path d="M5.95962 31.8787C7.76861 21.6866 14.9605 13.3035 24.4908 9.86196L24.0495 10.6561C23.4318 11.7592 23.7848 13.127 24.8879 13.7447C25.2408 13.9653 25.6379 14.0535 26.035 14.0535C26.8292 14.0535 27.5793 13.6564 27.9764 12.9064L31.109 7.52351C31.4179 6.99405 31.5061 6.37634 31.3296 5.80276C31.1531 5.22917 30.8002 4.74384 30.2707 4.43498L24.8437 1.30234C23.7407 0.684632 22.3729 1.0376 21.7552 2.14065C21.1375 3.24369 21.4905 4.61147 22.5935 5.22917L23.1671 5.53803C12.0484 9.46487 3.62117 19.2158 1.50333 31.0845C0.488527 36.8204 1.01799 42.7327 3.00346 48.2038C3.35644 49.1303 4.19475 49.7039 5.12131 49.7039C5.38604 49.7039 5.65077 49.6598 5.9155 49.5715C7.10679 49.1303 7.68037 47.8508 7.28327 46.6595C5.5184 41.9385 5.07719 36.8204 5.95962 31.8787Z" stroke="#6E5FA7" stroke-miterlimit="10"/>
<path d="M59.347 54.9987C58.3763 54.2045 56.9644 54.3368 56.1703 55.2634C49.5961 63.0729 39.2716 66.8674 29.2119 65.0584C24.3143 64.176 19.7698 62.1023 15.9753 58.9696H16.6813C17.9167 58.9696 18.9315 57.9548 18.9315 56.7194C18.9315 55.484 17.9167 54.4692 16.6813 54.4692H10.6807C10.1071 54.4251 9.48943 54.6016 9.00409 54.9987C8.51875 55.3958 8.25402 55.9252 8.2099 56.4988C8.2099 56.5429 8.2099 56.6312 8.2099 56.6753V56.7194V62.9406C8.2099 64.176 9.2247 65.1908 10.4601 65.1908C11.6955 65.1908 12.7103 64.176 12.7103 62.9406V62.1464C17.1666 65.8967 22.5936 68.4558 28.3735 69.5147C30.2708 69.8677 32.2121 70.0001 34.1094 70.0001C43.8162 70.0001 53.2141 65.7202 59.5676 58.1313C60.4501 57.2489 60.3177 55.7929 59.347 54.9987Z" stroke="#6E5FA7" stroke-miterlimit="10"/>
<path d="M70.6421 43.4829C70.0244 42.3798 68.6567 42.0269 67.5536 42.6446L66.8035 43.0858C66.8477 42.9093 66.8918 42.7769 66.8918 42.6004C68.436 33.8643 66.4947 25.04 61.3766 17.804C56.2584 10.568 48.6695 5.67053 39.9334 4.17039C38.698 3.94978 37.5508 4.78809 37.3302 6.0235C37.1096 7.25891 37.9479 8.40608 39.1833 8.62669C46.7281 9.95034 53.3023 14.1419 57.7145 20.4072C62.0825 26.6725 63.8033 34.2614 62.4796 41.8063L62.1266 41.2327C61.5089 40.1296 60.1412 39.7767 59.0381 40.3944C57.9351 41.0121 57.5821 42.3798 58.1998 43.4829L61.3325 48.8657C61.6413 49.3952 62.1266 49.7482 62.7002 49.9247C62.8767 49.9688 63.0973 50.0129 63.2738 50.0129C63.6709 50.0129 64.068 49.9247 64.421 49.7041L69.8038 46.5714C70.8627 45.9537 71.2598 44.5418 70.6421 43.4829Z" stroke="#6E5FA7" stroke-miterlimit="10"/>
<path d="M47.081 25.7458H21.3139C20.8727 25.7458 20.4756 26.0988 20.4756 26.5841V41.8502C20.4756 42.2914 20.8286 42.6885 21.3139 42.6885H47.1252C47.5664 42.6885 47.9635 42.3356 47.9635 41.8502V26.5841C47.9193 26.0988 47.5223 25.7458 47.081 25.7458ZM47.2134 41.8061C47.2134 41.8502 47.1693 41.9385 47.081 41.9385H21.3139C21.2698 41.9385 21.1816 41.8944 21.1816 41.8061V26.54C21.1816 26.4959 21.2257 26.4076 21.3139 26.4076H47.1252C47.1693 26.4076 47.2575 26.4517 47.2575 26.54V41.8061H47.2134Z" stroke="#6E5FA7" stroke-width="0.5" stroke-miterlimit="10"/>
<path d="M50.346 43.1738H49.5077V26.1869C49.5077 25.0398 48.5812 24.1573 47.4781 24.1573H20.9168C19.7697 24.1573 18.8872 25.0839 18.8872 26.1869V43.1738H18.0489C17.7401 43.1738 17.5194 43.3944 17.5194 43.7033V45.1593C17.5194 46.13 18.3136 46.88 19.2402 46.88H49.1989C50.1696 46.88 50.9196 46.0859 50.9196 45.1593V43.7033C50.8755 43.4386 50.6549 43.1738 50.346 43.1738ZM19.9461 26.1869C19.9461 25.6575 20.3874 25.2163 20.9168 25.2163H47.4781C48.0076 25.2163 48.4488 25.6575 48.4488 26.1869V43.1738H19.9461V26.1869ZM32.6091 44.2769H35.7417V44.5416C35.7417 44.674 35.6535 44.7622 35.5211 44.7622H32.8297C32.6973 44.7622 32.6091 44.674 32.6091 44.5416V44.2769ZM49.8166 45.2034C49.8166 45.5564 49.5077 45.8653 49.1547 45.8653H19.1961C18.8431 45.8653 18.5342 45.5564 18.5342 45.2034V44.2769H19.3726H31.9031V44.5416C31.9031 45.0711 32.3444 45.4682 32.8297 45.4682H35.5211C36.0506 45.4682 36.4477 45.0269 36.4477 44.5416V44.2769H48.9341H49.7725V45.2034H49.8166Z" stroke="#6E5FA7" stroke-width="0.5" stroke-miterlimit="10"/>
</svg>
