<svg xmlns="http://www.w3.org/2000/svg" width="56" height="56" fill="none" viewBox="0 0 56 56">
  <defs/>
  <path fill="#fff" d="M47.6 43.867a3.733 3.733 0 100 7.466 3.733 3.733 0 000-7.466zm0 5.6a1.866 1.866 0 110-3.733 1.866 1.866 0 010 3.733zM28 12.133a3.734 3.734 0 100-7.468 3.734 3.734 0 000 7.468zm0-5.6a1.867 1.867 0 110 3.734 1.867 1.867 0 010-3.734z"/>
  <path fill="#fff" d="M55.293 44.828l-.624-.156.331-.55a.934.934 0 00-.14-1.14l-2.64-2.64a.933.933 0 00-1.14-.142l-.551.331-.157-.624a.934.934 0 00-.905-.707h-3.733a.933.933 0 00-.906.707l-.156.624-.55-.331a.933.933 0 00-1.142.141l-2.639 2.64a.933.933 0 00-.141 1.14l.331.55-.624.157a.934.934 0 00-.707.905v3.734a.933.933 0 00.707.905l.624.157-.331.55a.933.933 0 00.141 1.14l2.64 2.64a.933.933 0 001.14.141l.55-.331.157.624a.934.934 0 00.905.707h3.734a.933.933 0 00.905-.707l.157-.624.55.331a.933.933 0 001.141-.14l2.64-2.641a.933.933 0 00.14-1.14l-.331-.55.624-.157a.934.934 0 00.707-.905v-3.733a.933.933 0 00-.707-.906zm-1.16 3.91l-1.138.28a.934.934 0 00-.574 1.386l.604 1.006-1.61 1.61-1.007-.604a.936.936 0 00-1.39.574l-.28 1.139h-2.275l-.28-1.139a.933.933 0 00-1.386-.574l-1.007.605-1.61-1.61.604-1.007a.934.934 0 00-.574-1.39l-1.139-.28V46.46l1.14-.28a.933.933 0 00.573-1.386l-.604-1.007 1.61-1.61 1.007.605a.934.934 0 001.39-.574l.28-1.139h2.274l.28 1.139a.933.933 0 001.386.574l1.007-.605 1.61 1.61-.608 1.014a.936.936 0 00.574 1.39l1.139.28.005 2.268zM8.4 43.867a3.734 3.734 0 100 7.467 3.734 3.734 0 000-7.467zm0 5.6a1.867 1.867 0 110-3.734 1.867 1.867 0 010 3.734z"/>
  <path fill="#fff" d="M16.093 44.828l-.624-.156.33-.552a.933.933 0 00-.14-1.14l-2.639-2.639a.933.933 0 00-1.141-.141l-.55.331-.157-.624a.934.934 0 00-.905-.707H6.533a.933.933 0 00-.905.707l-.156.624-.551-.331a.933.933 0 00-1.141.141l-2.639 2.64A.933.933 0 001 44.12l.331.552-.624.156a.934.934 0 00-.707.905v3.734a.933.933 0 00.707.905l.624.157-.331.55a.933.933 0 00.141 1.14l2.639 2.64A.933.933 0 004.921 55l.55-.331.157.624a.933.933 0 00.905.707h3.734a.933.933 0 00.905-.707l.156-.624.551.331a.933.933 0 001.141-.14l2.639-2.641a.933.933 0 00.14-1.14l-.33-.55.624-.157a.934.934 0 00.707-.905v-3.733a.933.933 0 00-.707-.906zm-1.16 3.91l-1.138.28a.934.934 0 00-.574 1.386l.604 1.006-1.61 1.61-1.007-.604a.936.936 0 00-1.39.574l-.276 1.143h-2.28l-.28-1.138a.934.934 0 00-1.386-.574l-1.006.604-1.615-1.61.604-1.007a.934.934 0 00-.574-1.39l-1.138-.28v-2.275l1.138-.28a.933.933 0 00.574-1.386l-.604-1.007 1.61-1.61 1.007.604a.933.933 0 001.39-.574l.28-1.139h2.274l.28 1.14a.933.933 0 001.386.573l1.007-.604 1.61 1.61-.608 1.01a.934.934 0 00.574 1.39l1.139.28.01 2.268zM23.333 45.733a.933.933 0 01-.933.934h-3.733v1.866H22.4a2.8 2.8 0 002.8-2.8V29.867h-1.867v15.866zM32.666 45.733V29.867H30.8v15.866a2.8 2.8 0 002.8 2.8h3.733v-1.866H33.6a.933.933 0 01-.934-.934zM52.267 20.533H52.2a6.547 6.547 0 00-6.468-5.6 6.474 6.474 0 00-3.752 1.195c0-.084.019-.177.019-.261a6.533 6.533 0 00-5.6-6.459V6.533a.934.934 0 00-.71-.905l-.625-.159.336-.55a.933.933 0 00-.14-1.139L32.62 1.139a.944.944 0 00-1.139-.14l-.55.336-.159-.626A.933.933 0 0029.867 0h-3.734a.933.933 0 00-.905.71l-.159.625-.55-.336a.944.944 0 00-1.139.14L20.739 3.78a.933.933 0 00-.14 1.139l.336.55-.626.159a.933.933 0 00-.709.905v2.082a10.235 10.235 0 00-5.46 7.602 6.528 6.528 0 00-10.341 4.316h-.066a3.733 3.733 0 000 7.467h48.534a3.733 3.733 0 100-7.467zm-30.8-13.272l1.138-.28a.941.941 0 00.705-.977.95.95 0 00-.126-.413l-.607-1.008 1.606-1.606 1.008.598a.926.926 0 001.19-.187.94.94 0 00.2-.383l.28-1.138h2.278l.28 1.138a.94.94 0 00.978.703.926.926 0 00.412-.133l1.008-.598 1.606 1.606-.607 1.008a.95.95 0 00.197 1.19c.11.095.24.164.382.2l1.138.28V9.54l-1.138.28a.941.941 0 00-.705.977.95.95 0 00.126.413l.607 1.008-1.606 1.606-1.008-.598a.927.927 0 00-1.19.188.94.94 0 00-.2.382l-.28 1.138H26.86l-.28-1.138a.94.94 0 00-.978-.703.927.927 0 00-.412.133l-1.008.598-1.606-1.606.607-1.008a.95.95 0 00-.197-1.19.941.941 0 00-.382-.2l-1.138-.28V7.26zM8.904 26.133h-5.17a1.866 1.866 0 110-3.733h.933a.933.933 0 00.933-.933 4.667 4.667 0 014.667-4.667c.452.002.902.071 1.334.205a5.582 5.582 0 00-2.697 9.128zm23.352 0h-19.19a3.733 3.733 0 110-7.466h1.867a.933.933 0 00.934-.934 8.38 8.38 0 013.85-7.046.92.92 0 00.597.485l.625.159-.336.55a.934.934 0 00.14 1.139l2.642 2.641a.933.933 0 001.138.14l.551-.336.159.626a.933.933 0 00.9.709h3.734a.934.934 0 00.905-.71l.159-.625.55.336a.933.933 0 001.139-.14l2.641-2.641a.933.933 0 00.14-1.139l-.336-.55.486-.117a4.667 4.667 0 014.582 4.653 4.36 4.36 0 01-.14 1.026 3.793 3.793 0 00-1.381-.046 3.746 3.746 0 00-2.51 1.67 3.69 3.69 0 00-.635 2.016 3.733 3.733 0 00-3.734 3.724v.01c.003.658.183 1.303.523 1.866zm20.01 0h-16.8a1.867 1.867 0 110-3.733h1.102a.932.932 0 00.887-1.241 1.632 1.632 0 01.214-1.615 1.894 1.894 0 011.232-.85 1.824 1.824 0 011.517.44.922.922 0 001.39-.193 4.666 4.666 0 018.592 2.526.933.933 0 00.933.933h.934a1.867 1.867 0 010 3.733z"/>
</svg>
