<svg width="69" height="71" viewBox="0 0 69 71" fill="none" xmlns="http://www.w3.org/2000/svg">
<path d="M46.6361 25.0625C46.2431 25.0625 45.85 25.1062 45.5007 25.2372C45.5443 24.9752 45.5443 24.6695 45.5443 24.4075C45.457 20.3024 42.0943 16.9834 37.9456 17.0708C34.9323 17.1144 32.2684 18.9923 31.1329 21.7872C28.9931 20.4334 26.1545 21.1322 24.8007 23.272C24.364 23.9708 24.1456 24.8005 24.1019 25.5866C23.5342 25.2372 22.8791 25.0625 22.1804 25.0625C20.1279 25.0625 18.4684 26.722 18.4684 28.7746C18.4684 30.8271 20.1279 32.4866 22.1804 32.4866C22.4861 32.4866 22.7045 32.2682 22.7045 31.9626C22.7045 31.6569 22.4861 31.4385 22.1804 31.4385C20.6956 31.3948 19.5165 30.2157 19.5602 28.7309C19.6038 27.2461 20.7829 26.067 22.2678 26.1107C23.1848 26.1107 23.9709 26.591 24.495 27.3334C24.6697 27.5955 24.9753 27.6391 25.2374 27.5081C25.4557 27.3771 25.5431 27.1151 25.4557 26.8531C25.281 26.46 25.1937 26.0233 25.1937 25.5866C25.1937 23.6651 26.8095 22.0929 28.731 22.1366C29.6045 22.1366 30.4342 22.4423 31.0893 23.01C31.3076 23.1847 31.657 23.1847 31.8317 22.9663C31.8753 22.9227 31.919 22.8353 31.9627 22.748C32.9235 19.3417 36.4608 17.3765 39.8671 18.3809C42.5747 19.167 44.4526 21.6126 44.4962 24.4075C44.4962 24.9752 44.4089 25.5429 44.2779 26.067C44.1905 26.329 44.3652 26.6347 44.6272 26.722C44.8019 26.7657 44.9329 26.722 45.064 26.6347C45.5443 26.329 46.0684 26.1543 46.6361 26.1543C48.1209 26.1543 49.3 27.3334 49.3 28.8182C49.3 30.3031 48.1209 31.4822 46.6361 31.4822C46.3304 31.4822 46.1121 31.7005 46.1121 32.0062C46.1121 32.3119 46.3304 32.5303 46.6361 32.5303C48.6886 32.5303 50.3481 30.8708 50.3481 28.8182C50.3481 26.7657 48.6886 25.0625 46.6361 25.0625Z" stroke="#6E5FA7" stroke-width="0.5" stroke-miterlimit="10"/>
<path d="M43.4919 37.3337H25.3685C24.4951 37.3337 23.7527 38.0325 23.7527 38.9496V41.0894C23.7527 41.9629 24.4514 42.7053 25.3685 42.7053H43.4919C44.3653 42.7053 45.1077 42.0065 45.1077 41.0894V38.9496C45.064 38.0325 44.3653 37.3337 43.4919 37.3337ZM44.0159 41.0894C44.0159 41.3951 43.7976 41.6135 43.4919 41.6135H25.3685C25.0628 41.6135 24.8444 41.3951 24.8444 41.0894V38.9496C24.8444 38.6439 25.0628 38.4255 25.3685 38.4255H43.4919C43.7976 38.4255 44.0159 38.6439 44.0159 38.9496V41.0894Z" stroke="#6E5FA7" stroke-width="0.5" stroke-miterlimit="10"/>
<path d="M42.0071 38.9497C41.4393 38.9497 40.959 39.4301 40.959 39.9978C40.959 40.5655 41.4393 41.0459 42.0071 41.0459C42.5748 41.0459 43.0552 40.5655 43.0552 39.9978C43.0115 39.4301 42.5748 38.9497 42.0071 38.9497ZM42.0071 40.0415C42.0071 40.0415 41.9634 39.9978 42.0071 40.0415V39.9541V40.0415Z" stroke="#6E5FA7" stroke-width="0.5" stroke-miterlimit="10"/>
<path d="M36.4171 39.4736H26.2855C25.9798 39.4736 25.7614 39.692 25.7614 39.9977C25.7614 40.3034 25.9798 40.5217 26.2855 40.5217H36.4171C36.7228 40.5217 36.9412 40.3034 36.9412 39.9977C36.9849 39.692 36.7228 39.4736 36.4171 39.4736Z" stroke="#6E5FA7" stroke-width="0.5" stroke-miterlimit="10"/>
<path d="M39.7362 39.4736H38.3387C38.033 39.4736 37.8146 39.692 37.8146 39.9977C37.8146 40.3034 38.033 40.5217 38.3387 40.5217H39.7362C40.0418 40.5217 40.2602 40.3034 40.2602 39.9977C40.2602 39.692 40.0418 39.4736 39.7362 39.4736Z" stroke="#6E5FA7" stroke-width="0.5" stroke-miterlimit="10"/>
<path d="M43.4919 43.7535H25.3685C24.4951 43.7535 23.7527 44.4523 23.7527 45.3694V47.5092C23.7527 48.3827 24.4514 49.1251 25.3685 49.1251H43.4919C44.3653 49.1251 45.1077 48.4263 45.1077 47.5092V45.3694C45.064 44.4523 44.3653 43.7535 43.4919 43.7535ZM44.0159 47.4656C44.0159 47.7713 43.7976 47.9896 43.4919 47.9896H25.3685C25.0628 47.9896 24.8444 47.7713 24.8444 47.4656V45.3257C24.8444 45.02 25.0628 44.8016 25.3685 44.8016H43.4919C43.7976 44.8016 44.0159 45.02 44.0159 45.3257V47.4656Z" stroke="#6E5FA7" stroke-width="0.5" stroke-miterlimit="10"/>
<path d="M42.0071 45.3691C41.4393 45.3691 40.959 45.8495 40.959 46.4172C40.959 46.985 41.4393 47.4653 42.0071 47.4653C42.5748 47.4653 43.0552 46.985 43.0552 46.4172C43.0115 45.8058 42.5748 45.3691 42.0071 45.3691ZM42.0071 46.4172C42.0071 46.4172 41.9634 46.4172 42.0071 46.4172V46.3299V46.4172Z" stroke="#6E5FA7" stroke-width="0.5" stroke-miterlimit="10"/>
<path d="M36.4171 45.8496H26.2855C25.9798 45.8496 25.7614 46.068 25.7614 46.3737C25.7614 46.6794 25.9798 46.8977 26.2855 46.8977H36.4171C36.7228 46.8977 36.9412 46.6794 36.9412 46.3737C36.9412 46.068 36.7228 45.8496 36.4171 45.8496Z" stroke="#6E5FA7" stroke-width="0.5" stroke-miterlimit="10"/>
<path d="M39.7362 45.8496H38.3387C38.033 45.8496 37.8146 46.068 37.8146 46.3737C37.8146 46.6794 38.033 46.8977 38.3387 46.8977H39.7362C40.0418 46.8977 40.2602 46.6794 40.2602 46.3737C40.2602 46.068 40.0418 45.8496 39.7362 45.8496Z" stroke="#6E5FA7" stroke-width="0.5" stroke-miterlimit="10"/>
<path d="M43.4919 30.9579H25.3685C24.4951 30.9579 23.7527 31.6566 23.7527 32.5737V34.7136C23.7527 35.587 24.4514 36.3294 25.3685 36.3294H43.4919C44.3653 36.3294 45.1077 35.6307 45.1077 34.7136V32.5737C45.064 31.6566 44.3653 30.9579 43.4919 30.9579ZM44.0159 34.6699C44.0159 34.9756 43.7976 35.194 43.4919 35.194H25.3685C25.0628 35.194 24.8444 34.9756 24.8444 34.6699V32.53C24.8444 32.2243 25.0628 32.006 25.3685 32.006H43.4919C43.7976 32.006 44.0159 32.2243 44.0159 32.53V34.6699Z" stroke="#6E5FA7" stroke-width="0.5" stroke-miterlimit="10"/>
<path d="M42.8805 33.4471C42.7932 32.8794 42.2254 32.4863 41.6577 32.6173C41.3957 32.661 41.1337 32.8357 41.0027 33.054C40.828 33.2724 40.7843 33.5344 40.828 33.8401C40.9153 34.3205 41.352 34.7135 41.8324 34.7135C41.8761 34.7135 41.9634 34.7135 42.0071 34.7135C42.2691 34.6699 42.5311 34.4952 42.6621 34.2768C42.8368 34.0148 42.9242 33.7091 42.8805 33.4471Z" stroke="#6E5FA7" stroke-width="0.5" stroke-miterlimit="10"/>
<path d="M36.3298 33.0542H26.1982C25.8925 33.0542 25.6741 33.2726 25.6741 33.5782C25.6741 33.8839 25.8925 34.1023 26.1982 34.1023H36.3298C36.6355 34.1023 36.8539 33.8839 36.8539 33.5782C36.8539 33.3162 36.6355 33.0542 36.3298 33.0542Z" stroke="#6E5FA7" stroke-width="0.5" stroke-miterlimit="10"/>
<path d="M39.3868 33.0542H37.9893C37.6836 33.0542 37.4652 33.2726 37.4652 33.5782C37.4652 33.8839 37.6836 34.1023 37.9893 34.1023H39.3868C39.6925 34.1023 39.9108 33.8839 39.9108 33.5782C39.9108 33.3162 39.6925 33.0542 39.3868 33.0542Z" stroke="#6E5FA7" stroke-width="0.5" stroke-miterlimit="10"/>
<path d="M32.1374 25.7612L30.5216 24.1453C30.3032 23.927 29.9975 23.927 29.7792 24.1453L28.1633 25.7612C27.945 25.9795 27.945 26.3289 28.1633 26.5036C28.3817 26.7219 28.6874 26.7219 28.9057 26.5036L29.6045 25.8048V29.2985C29.6045 29.6042 29.8228 29.8225 30.1285 29.8225C30.4342 29.8225 30.6526 29.6042 30.6526 29.2985V25.8048L31.3513 26.5036C31.5697 26.7219 31.919 26.7219 32.0937 26.5036C32.3121 26.2852 32.3121 25.9795 32.1374 25.7612Z" stroke="#6E5FA7" stroke-width="0.5" stroke-miterlimit="10"/>
<path d="M40.6533 27.3769C40.4349 27.1585 40.1292 27.1585 39.9108 27.3769L39.2121 28.0756V24.5819C39.2121 24.2762 38.9938 24.0579 38.6881 24.0579C38.3824 24.0579 38.164 24.2762 38.164 24.5819V28.0756L37.4653 27.3769C37.2469 27.1585 36.8976 27.1585 36.7229 27.3769C36.5045 27.5952 36.5045 27.9009 36.7229 28.1193L38.3387 29.7351C38.557 29.9534 38.8627 29.9534 39.0811 29.7351L40.6969 28.1193C40.8716 27.9009 40.8279 27.5515 40.6533 27.3769Z" stroke="#6E5FA7" stroke-width="0.5" stroke-miterlimit="10"/>
<path d="M67.7291 43.0551C67.7291 38.557 65.6329 34.5392 62.3139 31.919V28.2506C62.3139 13.2278 50.0861 1 35.0633 1C20.0405 1 7.81266 13.2278 7.81266 28.2506V30.9146C3.7076 33.4038 1 37.9019 1 43.0114C1 50.8285 7.33228 57.1608 15.1494 57.1608V28.862C14.1449 28.862 13.1405 28.9494 12.2234 29.1677V28.2506C12.2234 15.6734 22.4424 5.41076 35.0633 5.41076C47.6405 5.41076 57.9032 15.6297 57.9032 28.2506V29.5608C56.5494 29.124 55.0646 28.862 53.5797 28.862V57.1608C54.4968 57.1608 55.3703 57.0734 56.2437 56.8987C54.8025 59.9557 51.5272 64.5411 44.6272 65.8513C44.1905 65.3272 43.5355 65.0215 42.793 65.0215H38.3823C37.0285 65.0215 35.893 66.1133 35.893 67.5108C35.893 68.8646 36.9848 70 38.3823 70H42.793C43.8411 70 44.7582 69.3449 45.1076 68.3842C54.8462 66.55 58.3836 58.9949 59.388 55.8943C64.2791 53.7108 67.7291 48.7759 67.7291 43.0551Z" stroke="#6E5FA7" stroke-miterlimit="10"/>
</svg>
