<svg width="106" height="81" viewBox="0 0 106 81" fill="none" xmlns="http://www.w3.org/2000/svg">
<path d="M52.9088 3.27344C43.4995 3.27344 35.8585 10.9145 35.8585 20.3238C35.8585 29.7331 43.4995 37.3741 52.9088 37.3741C62.3181 37.3741 69.9592 29.7331 69.9592 20.3238C69.9592 10.9145 62.3181 3.27344 52.9088 3.27344ZM52.9088 31.6907C46.657 31.6907 41.5419 26.5756 41.5419 20.3238C41.5419 14.072 46.657 8.95689 52.9088 8.95689C59.1606 8.95689 64.2757 14.072 64.2757 20.3238C64.2757 26.5756 59.1606 31.6907 52.9088 31.6907Z" stroke="#6E5FA7" stroke-width="1.5" stroke-miterlimit="10"/>
<path d="M64.2757 40.2158H63.5811L63.0128 40.5316C56.6347 43.689 49.183 43.689 42.8049 40.5316L42.2366 40.2158H41.5419C33.7114 40.2158 27.3333 46.5939 27.3333 54.4245V71.4748C27.3333 76.211 31.1223 80 35.8585 80H69.9592C74.6954 80 78.4844 76.211 78.4844 71.4748V54.4245C78.4844 46.5939 72.1063 40.279 64.2757 40.2158ZM72.8009 71.5379C72.8009 73.1167 71.5379 74.3797 69.9592 74.3797H35.8585C34.2798 74.3797 33.0168 73.1167 33.0168 71.5379V54.4876C33.0168 50.004 36.49 46.2782 40.9104 45.9624C48.4884 49.4988 57.2661 49.4988 64.8441 45.9624C69.3277 46.2782 72.7378 50.004 72.7378 54.4876V71.5379H72.8009Z" stroke="#6E5FA7" stroke-width="1.5" stroke-miterlimit="10"/>
<path d="M91.6825 1C86.82 1 82.9047 4.91526 82.9047 9.77777C82.9047 14.6403 86.82 18.5555 91.6825 18.5555C96.545 18.5555 100.46 14.6403 100.46 9.77777C100.46 4.97841 96.545 1 91.6825 1ZM91.6825 15.6507C88.4619 15.6507 85.8096 12.9984 85.8096 9.77777C85.8096 6.55715 88.4619 3.90487 91.6825 3.90487C94.9031 3.90487 97.5554 6.55715 97.5554 9.77777C97.5554 13.0615 94.9031 15.6507 91.6825 15.6507Z" stroke="#6E5FA7" stroke-width="1.5" stroke-miterlimit="10"/>
<path d="M97.5555 20.071H97.2398L96.924 20.1973C93.6403 21.8392 89.7882 21.8392 86.5044 20.1973L86.1886 20.071H85.8729C81.8313 20.071 78.5475 23.3548 78.5475 27.3964V36.1742C78.5475 38.5738 80.5052 40.5946 82.968 40.5946H100.587C102.986 40.5946 105.007 38.637 105.007 36.1742V27.3964C104.881 23.3548 101.597 20.071 97.5555 20.071ZM101.976 36.2373C101.976 37.0582 101.344 37.6897 100.524 37.6897H82.9049C82.0839 37.6897 81.4524 37.0582 81.4524 36.2373V27.4595C81.4524 25.123 83.2206 23.2285 85.5571 23.1022C89.4724 24.9336 94.0192 24.9336 97.9344 23.1022C100.208 23.2917 102.039 25.1861 102.039 27.4595V36.2373H101.976Z" stroke="#6E5FA7" stroke-width="1.5" stroke-miterlimit="10"/>
<path d="M14.135 1C9.27251 1 5.35724 4.91526 5.35724 9.77777C5.35724 14.6403 9.27251 18.5555 14.135 18.5555C18.9975 18.5555 22.9128 14.6403 22.9128 9.77777C22.9128 4.97841 18.9975 1 14.135 1ZM14.135 15.6507C10.9144 15.6507 8.26212 12.9984 8.26212 9.77777C8.26212 6.55715 10.9144 3.90487 14.135 3.90487C17.3556 3.90487 20.0079 6.55715 20.0079 9.77777C20.0079 13.0615 17.3556 15.6507 14.135 15.6507Z" stroke="#6E5FA7" stroke-width="1.5" stroke-miterlimit="10"/>
<path d="M20.0079 20.071H19.6922L19.3764 20.1973C16.0927 21.8392 12.2405 21.8392 8.95676 20.1973L8.64102 20.071H8.32527C4.2837 20.071 0.999939 23.3548 0.999939 27.3964V36.1742C0.999939 38.5738 2.95757 40.5946 5.4204 40.5946H23.0391C25.4388 40.5946 27.4596 38.637 27.4596 36.1742V27.3964C27.3333 23.3548 24.0495 20.071 20.0079 20.071ZM24.3652 36.2373C24.3652 37.0582 23.7337 37.6897 22.9128 37.6897H5.2941C4.47316 37.6897 3.84166 37.0582 3.84166 36.2373V27.4595C3.84166 25.123 5.60985 23.2285 7.94638 23.1022C11.8616 24.9336 16.4084 24.9336 20.3237 23.1022C22.597 23.2917 24.4284 25.1861 24.4284 27.4595V36.2373H24.3652Z" stroke="#6E5FA7" stroke-width="1.5" stroke-miterlimit="10"/>
</svg>
