<svg width="71" height="71" viewBox="0 0 71 71" fill="none" xmlns="http://www.w3.org/2000/svg">
<path d="M53.6839 37.4777V7.04299C53.6839 3.69188 50.8272 1 47.4761 1H19.1839C18.6895 1 18.1401 1.21974 17.7556 1.60429L1.6043 17.9204C1.21975 18.3049 1 18.7994 1 19.3487V63.957C1 67.3081 3.74682 70 7.04299 70C11.328 70 12.7014 70 12.7014 70C18.9092 70 31.1051 70 53.629 70C62.5287 70 69.9451 62.6385 69.9451 53.6839C70 44.7293 62.6935 37.4777 53.6839 37.4777ZM17.1513 7.92197V17.3161H7.86704L17.1513 7.92197ZM7.04299 65.9347C5.94427 65.9347 5.01035 65.0008 5.01035 63.9021V21.3264H19.1839C20.2826 21.3264 21.2166 20.4474 21.2166 19.2938V5.01034H47.4761C48.6298 5.01034 49.6186 5.94427 49.6186 7.04299V37.9721C45.3336 39.0709 41.7078 41.8177 39.5653 45.5533H11.1083C10.0096 45.5533 9.07563 46.4323 9.07563 47.586C9.07563 48.6847 9.95462 49.6186 11.1083 49.6186H37.9172C37.5876 50.9371 37.4228 52.2556 37.4228 53.6839H11.1632C10.0645 53.6839 9.13057 54.5629 9.13057 55.7166C9.13057 56.8153 10.0096 57.7492 11.1632 57.7492H37.9721C38.7962 60.9355 40.5541 63.7372 43.0812 65.9896H7.04299V65.9347ZM53.6839 65.9347C47.0366 65.9347 41.4331 60.3312 41.4331 53.6839C41.4331 46.9817 46.9268 41.543 53.6839 41.543C60.4411 41.543 65.9347 46.9817 65.9347 53.6839C65.9347 60.3312 60.3312 65.9347 53.6839 65.9347Z" stroke="#6E5FA7" stroke-miterlimit="10"/>
</svg>
