<svg width="73" height="71" viewBox="0 0 73 71" fill="none" xmlns="http://www.w3.org/2000/svg">
<path d="M44.2967 2.61622L13.7904 1.01464C7.95609 0.709575 2.92256 5.20925 2.61749 11.0817L1.01591 41.588C0.863375 44.3717 1.8167 47.0029 3.49454 48.9858L5.74439 46.9266C4.6004 45.5157 3.95214 43.6853 4.02841 41.7406L5.62999 11.2343C5.85879 7.03964 9.44328 3.83647 13.5998 4.06527L44.1061 5.66685C45.9365 5.78125 47.6143 6.50577 48.8727 7.68789L51.1225 5.62872C49.3684 3.87461 46.966 2.76875 44.2967 2.61622Z" stroke="#6E5FA7" stroke-miterlimit="10"/>
<path d="M33.0476 16.4584L24.1245 30.2243L18.0232 35.7917L12.5702 35.4867C11.1593 35.4104 10.0915 34.2283 10.1678 32.8174C10.2441 31.4064 11.4262 30.3387 12.8371 30.415L17.7944 30.6819L25.2303 19.2421L23.5525 15.9626C23.3618 15.5432 23.2474 15.1237 23.2855 14.7042C23.3237 13.8272 23.8194 12.9883 24.6583 12.5688C25.9167 11.9205 27.442 12.4163 28.0521 13.6747L28.3953 14.361L28.8148 13.7128C29.5775 12.5307 31.1409 12.2256 32.323 12.9883C32.895 13.3696 33.2763 13.9416 33.4289 14.5898C33.5433 15.2381 33.4289 15.9245 33.0476 16.4584Z" stroke="#6E5FA7" stroke-miterlimit="10"/>
<path d="M32.5517 22.5595L30.0349 24.8474L32.0941 21.6443L32.5517 22.5595Z" stroke="#6E5FA7" stroke-miterlimit="10"/>
<path d="M15.9258 37.6984L12.5701 40.749C12.2651 40.0245 12.3032 39.1474 12.7989 38.4229L13.3328 37.584L15.9258 37.6984Z" stroke="#6E5FA7" stroke-miterlimit="10"/>
<path d="M57.872 2.31103L54.5926 3.37875L57.8339 1.31958L57.872 2.31103Z" stroke="#6E5FA7" stroke-miterlimit="10"/>
<path d="M45.8982 13.4842L47.3854 11.425L46.3558 14.0562L45.8982 13.4842Z" stroke="#6E5FA7" stroke-miterlimit="10"/>
<path d="M54.4782 11.7298L53.3342 10.2808L54.9739 11.5391L54.4782 11.7298Z" stroke="#6E5FA7" stroke-miterlimit="10"/>
<path d="M70.9897 29.2712L68.1297 27.3264L71.7523 28.6229L70.9897 29.2712Z" stroke="#6E5FA7" stroke-miterlimit="10"/>
<path d="M61.9141 20.0049L61.6091 21.8353L61.4565 19.7761L61.9141 20.0049Z" stroke="#6E5FA7" stroke-miterlimit="10"/>
<path d="M52.3046 29.0423L51.1606 27.5933L52.8004 28.8135L52.3046 29.0423Z" stroke="#6E5FA7" stroke-miterlimit="10"/>
<path d="M63.2487 35.6392L51.0462 63.6288C48.7201 69.0055 42.4281 71.446 37.0514 69.1199L9.06184 56.9174C6.27814 55.6971 4.25709 53.4091 3.30377 50.7398L6.12561 49.5959C6.77387 51.5406 8.22292 53.2185 10.2821 54.1337L38.2716 66.3362C42.1231 68.014 46.5846 66.2599 48.2625 62.4085L60.465 34.419C61.3802 32.2835 61.2658 29.9193 60.2743 28.0126L63.0962 26.8687C64.3545 29.5761 64.5071 32.7411 63.2487 35.6392Z" stroke="#6E5FA7" stroke-miterlimit="10"/>
<path d="M46.7753 51.7696C46.2033 53.0662 44.7161 53.6382 43.4577 53.0662L41.5892 52.2272L41.9706 55.5448C42.1231 56.9176 41.1316 58.176 39.7588 58.3285C39.3013 58.3666 38.8818 58.3285 38.4623 58.1378C38.2717 58.0616 38.081 57.9472 37.8903 57.7946C37.3565 57.3752 37.0133 56.7651 36.937 56.1168L34.9541 38.6519L36.5557 37.4698L39.7588 36.2114L40.9028 46.4692L45.4788 48.4521C46.7372 48.9859 47.3473 50.4731 46.7753 51.7696Z" stroke="#6E5FA7" stroke-miterlimit="10"/>
<path d="M34.0771 48.9859L21.4932 43.4947L29.1579 40.4441L28.3952 40.9779L33.3907 43.1897L34.0771 48.9859Z" stroke="#6E5FA7" stroke-miterlimit="10"/>
<path d="M21.7983 45.859L18.6332 48.1851C17.8706 48.7571 16.9173 48.8334 16.1165 48.452C15.7351 48.2995 15.3538 47.9945 15.0869 47.6513C14.7818 47.2318 14.6293 46.7361 14.5912 46.2403L18.7858 44.5625L21.7983 45.859Z" stroke="#6E5FA7" stroke-miterlimit="10"/>
</svg>
