<svg width="67" height="71" viewBox="0 0 67 71" fill="none" xmlns="http://www.w3.org/2000/svg">
<path d="M15.4463 19.506C15.4463 13.8323 15.4463 9.43111 15.4463 9.43111C32.2555 9.43111 40.6866 1 40.6866 1C40.6866 1 49.1177 9.43111 65.9269 9.43111C65.9269 9.43111 65.9269 38.0651 65.9269 43.1025C65.9269 50.314 56.4353 58.1619 49.1177 63.1993" stroke="#6E5FA7" stroke-miterlimit="10"/>
<path d="M26.6878 39.2317C26.6878 41.3528 24.991 43.1026 22.8169 43.1026C20.6959 43.1026 18.946 41.4058 18.946 39.2317C18.946 37.1107 20.6429 35.3608 22.8169 35.3608C24.991 35.3608 26.6878 37.1107 26.6878 39.2317Z" stroke="#6E5FA7" stroke-miterlimit="10"/>
<path d="M33.1039 45.6479C34.5096 45.6479 35.6491 44.5083 35.6491 43.1026C35.6491 41.6969 34.5096 40.5574 33.1039 40.5574C31.6982 40.5574 30.5586 41.6969 30.5586 43.1026C30.5586 44.5083 31.6982 45.6479 33.1039 45.6479Z" stroke="#6E5FA7" stroke-miterlimit="10"/>
<path d="M13.3783 58.374C12.2647 58.7452 11.3102 59.6466 11.3102 61.0783C11.3102 62.51 12.4768 63.6235 13.8555 63.6235C15.2872 63.6235 16.2947 62.457 16.4007 61.0783C16.5598 59.5405 16.7719 56.6241 19.7414 55.4045" stroke="#6E5FA7" stroke-miterlimit="10"/>
<path d="M28.4906 65.1615C29.3921 66.5932 29.4981 68.237 28.4906 69.2445C27.4832 70.252 25.8394 70.252 24.8849 69.2445C23.6123 67.9719 24.0895 66.2221 24.8319 64.8434C25.7863 62.9345 26.4226 60.018 25.4151 57.0486" stroke="#6E5FA7" stroke-miterlimit="10"/>
<path d="M48.4814 48.405C50.1252 48.405 51.0797 49.3594 51.0797 50.7911C51.0797 52.2228 49.9131 53.3364 48.5345 53.3364C47.1028 53.3364 46.0422 51.9047 45.1938 50.7911C44.1333 49.3064 42.4895 47.9277 39.9973 47.9277" stroke="#6E5FA7" stroke-miterlimit="10"/>
<path d="M41.4289 29.3159C43.0727 28.5205 43.709 27.6721 43.709 26.3995C43.709 24.9678 42.5425 23.8542 41.1638 23.8542C39.7321 23.8542 38.7776 24.5966 38.1413 26.6116C37.6111 28.3084 37.6641 29.9522 34.9068 31.649" stroke="#6E5FA7" stroke-miterlimit="10"/>
<path d="M25.4152 48.1932C26.1045 48.1932 26.6878 48.7765 26.6878 49.4658C26.6878 50.1551 26.1045 50.7384 25.4152 50.7384C24.7258 50.7384 24.1425 50.1551 24.1425 49.4658C24.1425 48.7765 24.6728 48.1932 25.4152 48.1932ZM25.4152 44.8525C22.8699 44.8525 20.7489 46.9206 20.7489 49.5188C20.7489 52.0641 22.8169 54.1851 25.4152 54.1851C27.9604 54.1851 30.0814 52.1171 30.0814 49.5188C30.0284 46.9206 27.9604 44.8525 25.4152 44.8525Z" stroke="#6E5FA7" stroke-miterlimit="10"/>
<path d="M16.4008 27.1417C16.0296 25.9221 15.2872 25.1267 13.8555 25.1267C12.4238 25.1267 11.3103 26.2933 11.3103 27.6719C11.3103 30.7474 14.81 31.2247 16.7189 33.0806C14.1737 35.6258 12.5829 39.1786 12.5829 43.0494C12.5829 43.4736 12.5829 43.7918 12.5829 44.11C10.4619 45.8068 7.96966 46.0189 6.21981 45.8068C4.46995 45.5947 2.13681 46.0719 1.2884 48.0339C0.493011 49.9958 1.39445 52.2229 3.3564 53.0713C5.31836 53.8667 6.96217 53.0183 8.23479 51.6927C9.71951 50.1549 12.689 49.2004 14.4388 50.1549C16.878 54.397 21.5443 57.2074 26.6348 57.2074C28.2786 57.2074 29.7103 56.9422 31.195 56.465C33.7402 57.6846 35.225 59.6996 35.6492 62.3509C35.9673 64.4719 37.346 66.2218 39.52 66.2218C41.6411 66.2218 43.3909 64.5249 43.3909 62.3509C43.3909 60.2298 41.9062 59.2223 40.4215 58.4269C38.1414 57.2073 37.0809 52.6471 37.0809 52.6471C39.414 50.1549 40.7927 46.7613 40.7927 43.1025C40.7927 42.3601 40.7927 41.9889 40.6866 41.2996C42.6486 38.9665 45.0878 38.012 47.7921 38.7544C48.9056 39.0725 50.3373 39.4967 51.6099 38.4892C52.7235 37.5878 52.7765 36.05 51.9811 34.8835C51.2388 33.7169 49.3829 32.9745 47.7391 34.5653" stroke="#6E5FA7" stroke-miterlimit="10"/>
<path d="M39.7321 37.641C37.9823 33.3989 34.3765 30.2174 29.8163 29.2629C29.8163 29.2629 28.5436 25.6041 29.6572 22.5817C30.2935 20.8848 30.9298 18.7638 29.4451 17.2791C27.9604 15.7943 25.5212 15.7943 23.9834 17.2791C22.4987 18.7638 23.082 21.0439 23.8243 22.5817C24.9379 25.0208 24.4607 27.407 23.7713 29.2629C22.0215 29.6341 20.4307 30.3234 18.999 31.2249" stroke="#6E5FA7" stroke-miterlimit="10"/>
<path d="M4.25789 39.5499C1.39449 39.3908 0.705153 37.1637 1.18239 35.8381C1.65962 34.5124 3.40947 33.7171 4.84117 34.4064C7.06825 35.4669 8.23482 37.9591 13.3253 38.5424" stroke="#6E5FA7" stroke-miterlimit="10"/>
</svg>
