<svg width="87" height="83" viewBox="0 0 87 83" fill="none" xmlns="http://www.w3.org/2000/svg">
<path d="M78.393 1C74.343 1 70.9891 4.3539 70.9891 8.4039C70.9891 10.0492 71.5586 11.568 72.4445 12.7703L60.6109 24.7938C59.5984 24.2242 58.3961 23.9078 57.1938 23.9078C53.1438 23.9078 49.7898 27.2617 49.7898 31.3117C49.7898 34.0328 51.3086 36.4375 53.5234 37.7031L48.7141 57.4469C48.5875 57.4469 48.5242 57.4469 48.3977 57.4469C48.1445 57.4469 47.8281 57.4469 47.575 57.5101L34.2859 40.3609C35.6148 39.032 36.4375 37.1969 36.4375 35.1719C36.4375 31.1219 33.0836 27.768 29.0336 27.768C24.9836 27.768 21.6297 31.1219 21.6297 35.1719C21.6297 37.45 22.7055 39.5383 24.3508 40.8672L13.2133 62.7625L13.7195 63.0156C12.7703 62.6992 11.7578 62.5094 10.7453 62.5094C5.42969 62.5094 1 66.9391 1 72.2547C1 77.5703 5.42969 82 10.7453 82C16.0609 82 20.4906 77.5703 20.4906 72.2547C20.4906 69.0273 18.8453 66.1164 16.3141 64.2812L16.4406 64.3445L27.5781 42.3859C28.0844 42.5125 28.5906 42.7656 29.0969 42.7656C30.2992 42.7656 30.6156 42.7023 31.5016 42.3227L44.2211 58.7758C42.3227 60.1047 41.057 62.3195 41.057 64.8508C41.057 68.9008 44.4109 72.2547 48.4609 72.2547C52.5109 72.2547 55.8649 68.9008 55.8649 64.8508C55.8649 62.1297 54.3461 59.725 52.1313 58.3961L56.9406 38.6523C57.0672 38.6523 57.1305 38.6523 57.257 38.6523C61.307 38.6523 64.6609 35.2984 64.6609 31.2484C64.6609 29.6664 64.1547 28.2109 63.332 27.0086L75.2289 14.9219C76.2414 15.4281 77.3172 15.6812 78.4562 15.6812C82.5062 15.6812 85.8602 12.3273 85.8602 8.27734C85.8602 4.35391 82.5063 1 78.393 1ZM16.8203 72.3812C16.8203 75.7351 13.9727 78.5828 10.6188 78.5828C7.26485 78.5828 4.41719 75.7351 4.41719 72.3812C4.41719 69.0273 7.26485 66.1797 10.6188 66.1797C13.9727 66.1797 16.8203 69.0273 16.8203 72.3812ZM28.9703 39.1586C26.8188 39.1586 25.1102 37.3867 25.1102 35.2984C25.1102 33.1469 26.882 31.4383 28.9703 31.4383C31.1219 31.4383 32.8305 33.2102 32.8305 35.2984C32.8305 37.3867 31.1219 39.1586 28.9703 39.1586ZM52.2578 64.9773C52.2578 67.1289 50.4859 68.8375 48.3977 68.8375C46.2461 68.8375 44.5375 67.0656 44.5375 64.9773C44.5375 62.8258 46.3094 61.1172 48.3977 61.1172C50.4859 61.0539 52.2578 62.8258 52.2578 64.9773ZM57.1938 35.2984C55.1055 35.2984 53.3336 33.5266 53.3336 31.4383C53.3336 29.2867 55.1055 27.5781 57.1938 27.5781C59.3453 27.5781 61.0539 29.35 61.0539 31.4383C61.1172 33.5266 59.3453 35.2984 57.1938 35.2984ZM78.393 12.2641C76.3047 12.2641 74.5328 10.4922 74.5328 8.4039C74.5328 6.31562 76.3047 4.54375 78.393 4.54375C80.5445 4.54375 82.2531 6.31562 82.2531 8.4039C82.2531 10.4922 80.5445 12.2641 78.393 12.2641Z" stroke="#6E5FA7" stroke-miterlimit="10"/>
</svg>
