<svg width="60" height="58" viewBox="0 0 60 58" fill="none" xmlns="http://www.w3.org/2000/svg">
<path d="M54.3593 1C51.5571 1 49.222 3.29264 49.222 6.13722C49.222 7.28354 49.6041 8.3025 50.241 9.15163L42.0894 17.4306C41.3676 17.0485 40.5609 16.8362 39.7118 16.8362C36.9097 16.8362 34.5746 19.1713 34.5746 21.9735C34.5746 23.8415 35.5935 25.4973 37.122 26.3889L33.7679 40.0174C33.683 40.0174 33.6405 40.0174 33.5556 40.0174C33.3858 40.0174 33.1735 40.0174 33.0037 40.0599L23.8331 28.257C24.7247 27.323 25.2766 26.0917 25.2766 24.6907C25.2766 21.8885 22.9415 19.5534 20.1394 19.5534C17.3373 19.5534 15.0022 21.8885 15.0022 24.6907C15.0022 26.2616 15.7239 27.7051 16.8703 28.6391L9.18564 43.7536L9.52529 43.9234C8.88845 43.7112 8.16668 43.5838 7.44492 43.5838C3.79367 43.5838 0.736816 46.6406 0.736816 50.2919C0.736816 53.9431 3.79367 57 7.44492 57C11.0962 57 14.153 53.9431 14.153 50.2919C14.153 48.0417 13.0067 46.0462 11.266 44.815L11.3509 44.8575L19.0355 29.7005C19.3752 29.7854 19.7148 29.9553 20.0969 29.9553C20.9461 29.9553 21.1583 29.9128 21.7527 29.6581L30.5412 40.9939C29.2251 41.928 28.3759 43.4564 28.3759 45.1547C28.3759 47.9568 30.711 50.2919 33.5132 50.2919C36.3153 50.2919 38.6504 47.9568 38.6504 45.1547C38.6504 43.2866 37.589 41.6308 36.0605 40.7392L39.3721 27.1107C39.4571 27.1107 39.542 27.1107 39.5844 27.1107C42.3866 27.1107 44.7217 24.7756 44.7217 21.9735C44.7217 20.9121 44.382 19.8931 43.7876 19.044L51.9817 10.7225C52.661 11.0622 53.4252 11.232 54.2319 11.232C57.034 11.232 59.3691 8.93935 59.3691 6.09477C59.4965 3.29265 57.1614 1 54.3593 1ZM11.9028 50.2494C11.9028 52.5421 9.94985 54.4951 7.65721 54.4951C5.3221 54.4951 3.41157 52.5421 3.41157 50.2494C3.41157 47.9143 5.36456 46.0038 7.65721 46.0038C9.94985 45.9613 11.9028 47.9143 11.9028 50.2494ZM20.2668 27.323C18.7808 27.323 17.592 26.0917 17.592 24.6482C17.592 23.1622 18.8232 21.9735 20.2668 21.9735C21.7103 21.9735 22.9415 23.2047 22.9415 24.6482C22.9415 26.0917 21.7527 27.323 20.2668 27.323ZM36.3153 45.1122C36.3153 46.5557 35.0841 47.787 33.6405 47.787C32.1546 47.787 30.9658 46.5557 30.9658 45.1122C30.9658 43.6262 32.197 42.4375 33.6405 42.4375C35.1265 42.4375 36.3153 43.6262 36.3153 45.1122ZM39.7543 24.6482C38.3107 24.6482 37.0795 23.417 37.0795 21.9735C37.0795 20.4875 38.3107 19.2987 39.7543 19.2987C41.1978 19.2987 42.429 20.5299 42.429 21.9735C42.429 23.417 41.1978 24.6482 39.7543 24.6482ZM54.3593 8.76952C52.9157 8.76952 51.6845 7.53829 51.6845 6.09477C51.6845 4.65125 52.9157 3.42001 54.3593 3.42001C55.8028 3.42001 57.034 4.65125 57.034 6.09477C57.034 7.58074 55.8452 8.76952 54.3593 8.76952Z" stroke="white" stroke-width="0.75" stroke-miterlimit="10"/>
</svg>
