<svg width="58" height="58" viewBox="0 0 58 58" fill="none" xmlns="http://www.w3.org/2000/svg">
<path d="M57.0374 28.9813C57.0374 44.4141 44.4889 57 29.0187 57C13.5859 57 1 44.4515 1 28.9813C1 26.097 1.4495 23.2502 2.31103 20.5532C2.38595 20.2536 2.49832 19.9914 2.57324 19.6917C2.6107 19.6168 2.6107 19.5793 2.64816 19.5044C2.76053 19.2047 2.87291 18.9425 2.98528 18.6429C3.09766 18.3432 3.21003 18.081 3.3224 17.7813C3.3224 17.7439 3.35986 17.7064 3.35986 17.669C3.47224 17.4067 3.62207 17.1071 3.73445 16.8449C3.88428 16.5452 4.03411 16.2455 4.18394 15.9833C4.33377 15.6837 4.48361 15.4215 4.63344 15.1218C4.78327 14.8971 4.89565 14.6348 5.04548 14.4101C5.08294 14.3352 5.15785 14.2603 5.19531 14.1853C5.49498 13.6984 5.8321 13.2114 6.16922 12.7245C6.16922 12.687 6.20668 12.687 6.20668 12.6496C6.35651 12.4248 6.5438 12.2001 6.69364 12.0128C6.73109 11.9753 6.76855 11.9379 6.80601 11.9004C6.9933 11.6757 7.18059 11.4509 7.33042 11.2262C9.09096 9.05358 11.1886 7.21813 13.4736 5.68235C16.62 3.5847 20.1786 2.12383 23.9618 1.44958C24.6361 1.33721 25.2729 1.7867 25.3852 2.49841C25.4602 3.1352 25.0481 3.69707 24.4113 3.80944C19.6167 4.70844 15.1592 6.91847 11.5632 10.2148C11.1512 10.6268 10.7391 11.0014 10.3271 11.4134C9.95249 11.8255 9.57791 12.2375 9.24079 12.6496C9.20333 12.7245 9.12841 12.7619 9.09095 12.8369C8.97858 12.9867 8.86621 13.0991 8.75383 13.2489C8.604 13.4362 8.45417 13.6235 8.34179 13.8108C8.22942 13.9606 8.11704 14.1479 7.96721 14.3352C7.81738 14.5599 7.66755 14.7472 7.51771 14.972C7.21805 15.384 6.95584 15.8335 6.69364 16.283C6.58126 16.5078 6.43143 16.7325 6.31905 16.9573C6.24414 17.1445 6.13176 17.2944 6.05685 17.4817C5.98193 17.669 5.86956 17.8188 5.79464 18.0061C5.68227 18.2308 5.56989 18.4181 5.49498 18.6429C5.45752 18.6803 5.45752 18.7552 5.42006 18.7927C5.30769 19.0174 5.23277 19.2422 5.1204 19.4669C5.1204 19.5044 5.08293 19.5419 5.08293 19.5793C5.00802 19.8041 4.89565 19.9914 4.85819 20.2161C4.82073 20.3285 4.78327 20.4034 4.74581 20.5158C4.6709 20.778 4.55852 21.0027 4.48361 21.2649C4.48361 21.2649 4.48361 21.2649 4.48361 21.3024C3.69699 23.7746 3.28494 26.3592 3.28494 29.0188C3.28494 43.1405 14.7846 54.6401 28.9063 54.6401C43.028 54.6401 54.5277 43.1405 54.5277 29.0188C54.5277 14.8971 43.028 3.3974 28.9063 3.3974C28.2321 3.3974 27.7077 2.87299 27.7077 2.19874C27.7077 1.5245 28.2321 1.00008 28.9063 1.00008C44.4514 0.962626 57.0374 13.5111 57.0374 28.9813Z" stroke="#6E5FA7" stroke-miterlimit="10"/>
<path d="M6.20667 12.7245C5.86954 13.2114 5.53242 13.6984 5.23276 14.1854C5.53242 13.6984 5.86954 13.2114 6.20667 12.7245Z" fill="#6E5FA7"/>
<path d="M13.511 5.6449C11.2261 7.18068 9.12842 9.01613 7.36789 11.1887C9.05351 9.1285 11.0762 7.2556 13.3612 5.71982C13.4361 5.71982 13.4736 5.68236 13.511 5.6449Z" fill="#6E5FA7"/>
<path d="M28.6816 12.275C28.6067 12.275 28.5317 12.2001 28.5317 12.1252V6.35662C28.5317 6.28171 28.6067 6.20679 28.6816 6.20679C28.7565 6.20679 28.8314 6.28171 28.8314 6.35662V12.1252C28.8314 12.2375 28.7939 12.275 28.6816 12.275Z" stroke="#6E5FA7" stroke-miterlimit="10"/>
<path d="M25.1979 12.7244C25.123 12.7244 25.0856 12.687 25.0481 12.612L23.8495 6.95586C23.8495 6.88094 23.8869 6.80603 23.9618 6.80603C24.0367 6.80603 24.1117 6.84349 24.1117 6.91841L25.3103 12.5746C25.3478 12.612 25.2729 12.687 25.1979 12.7244Z" stroke="#6E5FA7" stroke-miterlimit="10"/>
<path d="M21.8267 13.8856C21.7893 13.8856 21.7143 13.8482 21.7143 13.8107L19.3545 8.52913C19.317 8.45422 19.3545 8.3793 19.4294 8.34184C19.5043 8.30439 19.5792 8.34184 19.6167 8.41676L21.9765 13.6984C22.014 13.7733 21.9765 13.8482 21.9016 13.8856C21.8642 13.8856 21.8642 13.8856 21.8267 13.8856Z" stroke="#6E5FA7" stroke-miterlimit="10"/>
<path d="M18.7926 15.6837C18.7552 15.6837 18.7177 15.6462 18.6802 15.6088L15.2716 10.9265C15.2341 10.8516 15.2341 10.7767 15.309 10.7392C15.3839 10.7017 15.4588 10.7017 15.4963 10.7767L18.905 15.4589C18.9425 15.5338 18.9425 15.6088 18.8675 15.6462C18.8675 15.6837 18.8301 15.6837 18.7926 15.6837Z" stroke="#6E5FA7" stroke-miterlimit="10"/>
<path d="M16.208 18.1185C16.1705 18.1185 16.1331 18.1185 16.0956 18.081L11.7879 14.2228C11.713 14.1854 11.713 14.073 11.7879 14.0356C11.8254 13.9606 11.9378 13.9606 11.9752 14.0356L16.2829 17.8937C16.3578 17.9312 16.3578 18.0436 16.2829 18.081C16.2829 18.081 16.2455 18.1185 16.208 18.1185Z" stroke="#6E5FA7" stroke-miterlimit="10"/>
<path d="M14.1853 21.0027C14.1478 21.0027 14.1478 21.0028 14.1104 20.9653L9.09096 18.081C9.01604 18.0436 9.01605 17.9686 9.05351 17.8937C9.09096 17.8188 9.16588 17.8188 9.2408 17.8563L14.2602 20.7405C14.3351 20.778 14.3351 20.8529 14.2976 20.9278C14.2602 20.9653 14.2227 21.0027 14.1853 21.0027Z" stroke="#6E5FA7" stroke-miterlimit="10"/>
<path d="M12.7993 24.2617H12.7618L7.2555 22.4637C7.18059 22.4262 7.14313 22.3513 7.18059 22.2764C7.21805 22.2015 7.29296 22.164 7.36788 22.2015L12.8742 23.9994C12.9491 24.0369 12.9866 24.1118 12.9491 24.1867C12.9117 24.2242 12.8368 24.2617 12.7993 24.2617Z" stroke="#6E5FA7" stroke-miterlimit="10"/>
<path d="M12.1251 27.7452L6.3565 27.1458C6.28158 27.1458 6.20667 27.0709 6.24412 26.996C6.24412 26.9211 6.31904 26.8462 6.39395 26.8836L12.1625 27.4829C12.2374 27.4829 12.3123 27.5579 12.2749 27.6328C12.2374 27.6702 12.2 27.7452 12.1251 27.7452Z" stroke="#6E5FA7" stroke-miterlimit="10"/>
<path d="M6.43142 31.8656C6.35651 31.8656 6.28159 31.8281 6.28159 31.7532C6.28159 31.6783 6.31904 31.6034 6.39396 31.6034L12.1625 31.004C12.2374 31.004 12.3123 31.0415 12.3123 31.1164C12.3123 31.1913 12.2749 31.2662 12.2 31.2662L6.43142 31.8656Z" stroke="#6E5FA7" stroke-miterlimit="10"/>
<path d="M7.48027 36.5104C7.40535 36.5104 7.36789 36.473 7.33043 36.398C7.29297 36.3231 7.33043 36.2482 7.40535 36.2108L12.9117 34.4128C12.9866 34.3753 13.0615 34.4128 13.099 34.4877C13.1364 34.5626 13.099 34.6375 13.0241 34.675L7.51772 36.473C7.48026 36.5104 7.48027 36.5104 7.48027 36.5104Z" stroke="#6E5FA7" stroke-miterlimit="10"/>
<path d="M9.46553 40.8181C9.42807 40.8181 9.35316 40.7807 9.35316 40.7432C9.3157 40.6683 9.35316 40.5934 9.39062 40.5559L14.41 37.6716C14.4849 37.6342 14.5598 37.6716 14.5973 37.7091C14.6348 37.784 14.5973 37.8589 14.5598 37.8964L9.54045 40.7807C9.503 40.8181 9.46553 40.8181 9.46553 40.8181Z" stroke="#6E5FA7" stroke-miterlimit="10"/>
<path d="M12.2749 44.6389C12.2374 44.6389 12.2 44.6389 12.1625 44.6014C12.1251 44.5265 12.1251 44.4516 12.1625 44.4141L16.4702 40.5559C16.5451 40.5185 16.62 40.5185 16.6575 40.5559C16.695 40.6308 16.695 40.7058 16.6575 40.7432L12.3498 44.6014C12.3498 44.6389 12.3124 44.6389 12.2749 44.6389Z" stroke="#6E5FA7" stroke-miterlimit="10"/>
<path d="M15.8709 47.7852C15.8334 47.7852 15.796 47.7852 15.796 47.7478C15.721 47.7103 15.721 47.5979 15.7585 47.5605L19.1672 42.8782C19.2046 42.8033 19.317 42.8033 19.3545 42.8408C19.4294 42.8782 19.4294 42.9906 19.3919 43.0281L15.9832 47.7103C15.9458 47.7478 15.9083 47.7852 15.8709 47.7852Z" stroke="#6E5FA7" stroke-miterlimit="10"/>
<path d="M19.9913 50.1077C19.9538 50.1077 19.9538 50.1077 19.9164 50.1077C19.8414 50.0702 19.804 49.9953 19.8414 49.9204L22.2013 44.6388C22.2388 44.5639 22.3137 44.5264 22.3886 44.5639C22.4635 44.6013 22.501 44.6763 22.4635 44.7512L20.1037 50.0328C20.1037 50.0702 20.0662 50.1077 19.9913 50.1077Z" stroke="#6E5FA7" stroke-miterlimit="10"/>
<path d="M24.5237 51.4937C24.4113 51.4562 24.3739 51.3813 24.3739 51.3064L25.5725 45.6502C25.5725 45.5753 25.6474 45.5378 25.7224 45.5378C25.7973 45.5378 25.8347 45.6128 25.8347 45.6877L24.6361 51.3439C24.6735 51.4562 24.5986 51.4937 24.5237 51.4937Z" stroke="#6E5FA7" stroke-miterlimit="10"/>
<path d="M29.2809 51.9431C29.206 51.9431 29.131 51.8682 29.131 51.7933V46.0247C29.131 45.9498 29.206 45.8749 29.2809 45.8749C29.3558 45.8749 29.4307 45.9498 29.4307 46.0247V51.7933C29.3933 51.8682 29.3558 51.9431 29.2809 51.9431Z" stroke="#6E5FA7" stroke-miterlimit="10"/>
<path d="M33.9632 51.3813C33.8883 51.3813 33.8508 51.3438 33.8133 51.2689L32.6147 45.6127C32.6147 45.5378 32.6521 45.4629 32.7271 45.4629C32.802 45.4629 32.8769 45.5003 32.8769 45.5753L34.0756 51.2314C34.1505 51.3064 34.0755 51.3813 33.9632 51.3813Z" stroke="#6E5FA7" stroke-miterlimit="10"/>
<path d="M38.4956 49.8455C38.4581 49.8455 38.3832 49.808 38.3832 49.7706L36.0234 44.489C35.9859 44.4141 36.0234 44.3391 36.0983 44.3017C36.1732 44.2642 36.2481 44.3017 36.2856 44.3766L38.6454 49.6582C38.6829 49.7331 38.6454 49.808 38.5705 49.8455C38.5331 49.8455 38.4956 49.8455 38.4956 49.8455Z" stroke="#6E5FA7" stroke-miterlimit="10"/>
<path d="M42.5785 47.4481C42.5411 47.4481 42.5036 47.4106 42.4662 47.3732L39.0575 42.6909C39.02 42.616 39.02 42.5411 39.0949 42.5036C39.1698 42.4661 39.2448 42.4662 39.2822 42.5411L42.6909 47.2233C42.7284 47.2983 42.7284 47.3732 42.6535 47.4106C42.616 47.4106 42.5785 47.4481 42.5785 47.4481Z" stroke="#6E5FA7" stroke-miterlimit="10"/>
<path d="M46.0621 44.2268C46.0247 44.2268 45.9872 44.2268 45.9497 44.1893L41.6421 40.3311C41.5671 40.2937 41.5671 40.1813 41.6421 40.1438C41.6795 40.0689 41.7919 40.0689 41.8294 40.1438L46.137 44.002C46.212 44.0395 46.212 44.1518 46.137 44.1893C46.137 44.1893 46.0996 44.2268 46.0621 44.2268Z" stroke="#6E5FA7" stroke-miterlimit="10"/>
<path d="M48.7966 40.3311C48.7591 40.3311 48.7591 40.3311 48.7217 40.2937L43.7023 37.4094C43.6273 37.3719 43.6273 37.297 43.6648 37.2221C43.7023 37.1472 43.7772 37.1472 43.8521 37.1846L48.8715 40.0689C48.9464 40.1064 48.9464 40.1813 48.9089 40.2562C48.9089 40.2937 48.834 40.3311 48.7966 40.3311Z" stroke="#6E5FA7" stroke-miterlimit="10"/>
<path d="M50.6695 35.986H50.632L45.1257 34.188C45.0508 34.1506 45.0133 34.0757 45.0508 34.0007C45.0882 33.9258 45.1631 33.8884 45.2381 33.9258L50.7444 35.7238C50.8193 35.7613 50.8568 35.8362 50.8193 35.9111C50.7819 35.9486 50.7444 35.986 50.6695 35.986Z" stroke="#6E5FA7" stroke-miterlimit="10"/>
<path d="M51.6059 31.3037L45.8374 30.7044C45.7625 30.7044 45.6876 30.6295 45.725 30.5546C45.725 30.4797 45.7999 30.4048 45.8749 30.4422L51.6434 31.0415C51.7183 31.0415 51.7932 31.1165 51.7558 31.1914C51.7183 31.2663 51.6809 31.3037 51.6059 31.3037Z" stroke="#6E5FA7" stroke-miterlimit="10"/>
<path d="M45.7999 27.1833C45.725 27.1833 45.6501 27.1459 45.6501 27.0709C45.6501 26.996 45.6875 26.9211 45.7625 26.9211L51.531 26.3218C51.6059 26.3218 51.6808 26.3592 51.6808 26.4341C51.6808 26.5091 51.6434 26.584 51.5685 26.584L45.7999 27.1833Z" stroke="#6E5FA7" stroke-miterlimit="10"/>
<path d="M45.0133 23.7372C44.9384 23.7372 44.9009 23.6998 44.8635 23.6248C44.826 23.5499 44.8635 23.475 44.9384 23.4376L50.4447 21.6396C50.5197 21.6021 50.5946 21.6396 50.632 21.7145C50.6695 21.7894 50.632 21.8643 50.5571 21.9018L45.0508 23.6998C45.0133 23.7372 45.0133 23.7372 45.0133 23.7372Z" stroke="#6E5FA7" stroke-miterlimit="10"/>
<path d="M43.515 20.5158C43.4775 20.5158 43.4026 20.4783 43.4026 20.4408C43.3651 20.3659 43.4026 20.291 43.4401 20.2536L48.4594 17.3693C48.5344 17.3318 48.6093 17.3693 48.6467 17.4067C48.6842 17.4817 48.6467 17.5566 48.6093 17.594L43.5899 20.4783C43.5524 20.5158 43.515 20.5158 43.515 20.5158Z" stroke="#6E5FA7" stroke-miterlimit="10"/>
<path d="M41.3799 17.669C41.3424 17.669 41.3049 17.669 41.2675 17.6316C41.23 17.5566 41.23 17.4817 41.2675 17.4443L45.5752 13.5861C45.6501 13.5486 45.725 13.5486 45.7625 13.5861C45.7999 13.661 45.7999 13.7359 45.7625 13.7734L41.4548 17.6316C41.4548 17.669 41.4173 17.669 41.3799 17.669Z" stroke="#6E5FA7" stroke-miterlimit="10"/>
<path d="M38.7204 15.3465C38.6829 15.3465 38.6454 15.3465 38.6454 15.3091C38.5705 15.2716 38.5705 15.1592 38.608 15.1218L42.0167 10.4395C42.0541 10.3646 42.1665 10.3646 42.204 10.402C42.2789 10.4395 42.2789 10.5519 42.2414 10.5893L38.8327 15.2716C38.7953 15.3465 38.7578 15.3465 38.7204 15.3465Z" stroke="#6E5FA7" stroke-miterlimit="10"/>
<path d="M35.6113 13.6234C35.5739 13.6234 35.5739 13.6234 35.5364 13.6234C35.4615 13.586 35.424 13.5111 35.4615 13.4361L37.8213 8.15456C37.8588 8.07964 37.9337 8.04218 38.0086 8.07964C38.0835 8.11709 38.121 8.19201 38.0835 8.26693L35.7237 13.5485C35.7237 13.6234 35.6488 13.6234 35.6113 13.6234Z" stroke="#6E5FA7" stroke-miterlimit="10"/>
<path d="M32.2401 12.6121C32.1277 12.5746 32.0902 12.4997 32.0902 12.4248L33.2889 6.76862C33.2889 6.6937 33.3638 6.65625 33.4387 6.65625C33.5137 6.65625 33.5511 6.73116 33.5511 6.80608L32.3525 12.4623C32.3525 12.5746 32.2775 12.6121 32.2401 12.6121Z" stroke="#6E5FA7" stroke-miterlimit="10"/>
<path d="M20.8528 27.8576C20.8528 27.2957 20.4033 26.7713 19.5043 26.7713C18.6053 26.7713 18.1184 27.1834 18.1184 27.8576C18.1184 28.5693 18.6053 28.9064 19.4669 28.9064C20.3284 28.9064 20.8528 28.5319 20.8528 27.8576ZM21.7518 28.2697C21.7518 29.8054 20.8903 31.9406 18.0809 32.0155V31.1914C19.4294 31.1165 20.3659 30.5171 20.7404 29.281C20.3284 29.6181 19.9164 29.768 19.1672 29.768C18.0809 29.768 17.1819 29.1686 17.1819 27.8951C17.1819 26.584 18.1933 25.9098 19.5043 25.9098C20.7779 25.9098 21.7518 26.584 21.7518 28.2697Z" fill="#6E5FA7"/>
<path d="M26.4715 28.9814C26.4715 27.7452 26.0595 26.7713 25.0107 26.7713C23.9618 26.7713 23.5873 27.7078 23.5873 28.9439C23.5873 30.18 23.9993 31.1539 25.0481 31.1539C26.097 31.1539 26.4715 30.2175 26.4715 28.9814ZM27.3705 28.9439C27.3705 30.7419 26.5464 32.0155 25.0107 32.0155C23.4749 32.0155 22.6883 30.7793 22.6883 28.9814C22.6883 27.1834 23.5123 25.9098 25.0481 25.9098C26.5839 25.9098 27.3705 27.1459 27.3705 28.9439Z" fill="#6E5FA7"/>
<path d="M34.9371 30.18C34.9371 29.5058 34.6749 29.0563 34.2254 29.0563C33.7759 29.0563 33.5137 29.4683 33.5137 30.1425C33.5137 30.8168 33.7759 31.2663 34.2254 31.2663C34.7123 31.3037 34.9371 30.8168 34.9371 30.18ZM35.7237 30.18C35.7237 31.2663 35.1244 32.0155 34.2628 32.0155C33.4013 32.0155 32.802 31.2663 32.802 30.18C32.802 29.0937 33.4013 28.3071 34.2628 28.3071C35.1618 28.3446 35.7237 29.0937 35.7237 30.18ZM34.2254 25.9847L30.5919 31.9031H29.7304L33.3638 25.9847H34.2254ZM30.4421 27.7452C30.4421 27.071 30.1799 26.6215 29.7304 26.6215C29.2809 26.6215 29.0187 27.0335 29.0187 27.7078C29.0187 28.382 29.2809 28.8315 29.7304 28.8315C30.1799 28.869 30.4421 28.382 30.4421 27.7452ZM31.1913 27.7452C31.1913 28.8315 30.5919 29.5807 29.7304 29.5807C28.8689 29.5807 28.2695 28.8315 28.2695 27.7452C28.2695 26.6589 28.8689 25.8723 29.7304 25.8723C30.6294 25.9098 31.1913 26.6589 31.1913 27.7452Z" fill="#6E5FA7"/>
</svg>
