<svg width="81" height="81" viewBox="0 0 81 81" fill="none" xmlns="http://www.w3.org/2000/svg">
<path d="M78.615 8.90577H74.6333V7.57852C74.6333 6.82834 74.0563 6.25127 73.3061 6.25127H64.0731V4.92403C64.0731 2.73118 62.2842 1 60.149 1C57.9562 1 56.225 2.78889 56.225 4.92403V6.25127H53.5705V4.92403C53.5705 2.73118 51.7816 1 49.6465 1C47.4536 1 45.7224 2.78889 45.7224 4.92403V6.25127H29.9109V4.92403C29.9109 2.73118 28.122 1 25.9869 1C23.8517 1 22.0628 2.78889 22.0628 4.92403V6.25127H19.4083V4.92403C19.4083 2.73118 17.6194 1 15.4843 1C13.3492 1 11.5603 2.78889 11.5603 4.92403V6.25127H2.32725C1.57707 6.25127 1 6.82834 1 7.57852V73.4215C1 74.1717 1.57707 74.7487 2.32725 74.7487H3.6545V78.6728C3.6545 79.4229 4.23156 80 4.98174 80H78.7305C79.4807 80 80.0577 79.4229 80.0577 78.6728V10.233C79.9423 9.48283 79.3075 8.90577 78.615 8.90577ZM3.53908 72.0942V24.7173H72.0365V72.0942H3.53908ZM58.8795 4.98174C58.8795 4.23155 59.4565 3.65449 60.2067 3.65449C60.9569 3.65449 61.534 4.23155 61.534 4.98174V6.30898H58.8795V4.98174ZM48.3192 4.98174C48.3192 4.23155 48.8963 3.65449 49.6465 3.65449C50.3967 3.65449 50.9737 4.23155 50.9737 4.98174V6.30898H48.3192V4.98174ZM24.6019 4.98174C24.6019 4.23155 25.179 3.65449 25.9292 3.65449C26.6793 3.65449 27.2564 4.23155 27.2564 4.98174V6.30898H24.6019V4.98174V4.98174ZM14.0993 4.98174C14.0993 4.23155 14.6764 3.65449 15.4266 3.65449C16.1768 3.65449 16.7538 4.23155 16.7538 4.98174V6.30898H14.0993V4.98174V4.98174ZM11.4449 8.90577V10.233C11.4449 12.4259 13.2338 14.157 15.3689 14.157C16.1191 14.157 16.6961 13.58 16.6961 12.8298C16.6961 12.0796 16.1191 11.5026 15.3689 11.5026C14.6187 11.5026 14.0416 10.9255 14.0416 10.1753V8.84806H21.9474V10.1753C21.9474 12.3681 23.7363 14.0993 25.8714 14.0993C26.6216 14.0993 27.1987 13.5223 27.1987 12.7721C27.1987 12.0219 26.6216 11.4448 25.8714 11.4448C25.1213 11.4448 24.5442 10.8678 24.5442 10.1176V8.79036H45.607V10.1176C45.607 12.3104 47.3959 14.0416 49.531 14.0416C50.2812 14.0416 50.8583 13.4646 50.8583 12.7144C50.8583 11.9642 50.2812 11.3871 49.531 11.3871C48.7809 11.3871 48.2038 10.8101 48.2038 10.0599V8.73265H56.1096V10.0599C56.1096 12.2527 57.8985 13.9839 60.0336 13.9839C60.7838 13.9839 61.3609 13.4069 61.3609 12.6567C61.3609 11.9065 60.7838 11.3294 60.0336 11.3294C59.2834 11.3294 58.7064 10.7524 58.7064 10.0022V8.67494H71.8634V21.832H3.53908V8.67494H11.4449V8.90577ZM77.2878 77.4032H6.19357V74.7487H73.3638C74.1139 74.7487 74.691 74.1717 74.691 73.4215V11.5603H77.3455V77.4032H77.2878Z" stroke="#914B97" stroke-miterlimit="10"/>
<path d="M52.243 62.919C52.9932 62.919 53.5703 62.342 53.5703 61.5918V35.2777C53.5703 34.5275 52.9932 33.9504 52.243 33.9504C51.9545 33.9504 51.7237 34.0082 51.4929 34.1813L40.9326 41.7408C40.3555 42.1447 40.1824 43.0103 40.6441 43.5874C41.048 44.1645 41.9136 44.3376 42.4907 43.8759L50.9158 37.8168V61.5918C50.9735 62.2843 51.5506 62.919 52.243 62.919Z" stroke="#914B97" stroke-miterlimit="10"/>
<path d="M37.7588 41.8562C37.7588 37.4705 34.2387 33.9504 29.853 33.9504C25.4674 33.9504 21.9473 37.4705 21.9473 41.8562C21.9473 42.6064 22.5243 43.1835 23.2745 43.1835C24.0247 43.1835 24.6018 42.6064 24.6018 41.8562C24.6018 38.9709 26.9677 36.6049 29.853 36.6049C32.7384 36.6049 35.1043 38.9709 35.1043 41.8562C35.1043 44.7415 32.7384 47.1075 29.853 47.1075C29.1029 47.1075 28.5258 47.6846 28.5258 48.4347C28.5258 49.1849 29.1029 49.762 29.853 49.762C32.7384 49.762 35.1043 52.128 35.1043 55.0133C35.1043 57.8986 32.7384 60.2645 29.853 60.2645C26.9677 60.2645 24.6018 57.8986 24.6018 55.0133C24.6018 54.2631 24.0247 53.686 23.2745 53.686C22.5243 53.686 21.9473 54.2631 21.9473 55.0133C21.9473 59.399 25.4674 62.919 29.853 62.919C34.2387 62.919 37.7588 59.399 37.7588 55.0133C37.7588 52.3588 36.4316 49.8774 34.2387 48.4347C36.4316 46.9344 37.7588 44.453 37.7588 41.8562Z" stroke="#914B97" stroke-miterlimit="10"/>
</svg>
