<svg width="41" height="65" viewBox="0 0 41 65" fill="none" xmlns="http://www.w3.org/2000/svg">
<path d="M38.2372 31.3477V25.8652C38.2372 23.9973 36.8059 22.4932 34.9623 22.3477L29.8679 13.4447C29.407 12.6199 28.6307 12.0377 27.7331 11.7951C26.8356 11.5525 25.8652 11.6738 25.0647 12.159L7.59838 22.3234H4.54178C2.57682 22.3234 1 23.9245 1 25.8652V47.1401C1 49.1051 2.60108 50.6819 4.54178 50.6819H34.6954C36.6604 50.6819 38.2372 49.0808 38.2372 47.1401V41.6576C39.2561 41.2938 40.0081 40.3234 40.0081 39.159V33.8463C40.0081 32.6819 39.2561 31.7116 38.2372 31.3477ZM32.9003 22.2992H25.1617L30.9596 18.9272L32.9003 22.2992ZM30.0862 17.3989L21.6442 22.3234H18.1509L29.2129 15.8706L30.0862 17.3989ZM25.9623 13.6873C26.3747 13.4447 26.8356 13.3962 27.2722 13.5175C27.7331 13.6388 28.097 13.9299 28.3396 14.3423L14.6334 22.2992H11.1402L25.9623 13.6873ZM36.4663 47.1401C36.4663 48.1105 35.6658 48.911 34.6954 48.911H4.54178C3.57143 48.911 2.77089 48.1105 2.77089 47.1401V25.8652C2.77089 24.8948 3.57143 24.0943 4.54178 24.0943H34.6954C35.6658 24.0943 36.4663 24.8948 36.4663 25.8652V31.1779H31.1294C28.1941 31.1779 25.8167 33.5552 25.8167 36.4905C25.8167 39.4258 28.1941 41.8032 31.1294 41.8032H36.4663V47.1401ZM38.2372 39.159C38.2372 39.6442 37.849 40.0566 37.3396 40.0566H31.1294C29.1644 40.0566 27.5876 38.4555 27.5876 36.5148C27.5876 34.5498 29.1887 32.973 31.1294 32.973H37.3396C37.8248 32.973 38.2372 33.3612 38.2372 33.8706V39.159Z" stroke="white" stroke-width="0.75" stroke-miterlimit="10"/>
<path d="M31.1298 34.7197C30.1594 34.7197 29.3589 35.5203 29.3589 36.4906C29.3589 37.461 30.1594 38.2615 31.1298 38.2615C32.1001 38.2615 32.9007 37.461 32.9007 36.4906C32.9249 35.5203 32.1244 34.7197 31.1298 34.7197Z" stroke="white" stroke-width="0.75" stroke-miterlimit="10"/>
<path d="M21.4506 34.9379L20.1649 33.7735V29.8678C20.1649 29.6252 19.9708 29.4069 19.7039 29.4069H16.5988C16.3562 29.4069 16.1379 29.601 16.1379 29.8678V30.1104L14.5853 28.6791C14.2942 28.4123 13.8333 28.4123 13.5422 28.6791L6.67698 34.9136C6.4344 35.132 6.36162 35.4716 6.48291 35.787C6.60421 36.1023 6.89531 36.2964 7.21067 36.2964H8.30232V42.5551C8.30232 42.7977 8.49639 43.0161 8.76324 43.0161H12.5233C12.7659 43.0161 12.9843 42.822 12.9843 42.5551V38.7708H15.1918V42.5794C15.1918 42.822 15.3859 43.0403 15.6527 43.0403H19.4128C19.6554 43.0403 19.8737 42.8463 19.8737 42.5794V36.3206H20.9654C21.2808 36.3206 21.5719 36.1266 21.6932 35.8112C21.7659 35.4958 21.6932 35.1562 21.4506 34.9379ZM19.3886 35.3988C19.146 35.3988 18.9277 35.5929 18.9277 35.8597V42.1185H16.0651V38.3099C16.0651 38.0673 15.8711 37.849 15.6042 37.849H12.4991C12.2565 37.849 12.0382 38.043 12.0382 38.3099V42.1185H9.17564V35.8597C9.17564 35.6171 8.98157 35.3988 8.71472 35.3988H7.47752L14.0274 29.4312L16.2592 31.4689C16.3805 31.5902 16.5746 31.6144 16.7444 31.5417C16.9142 31.4689 17.0112 31.2991 17.0112 31.1293V30.3045H19.2188V33.9433C19.2188 34.0646 19.2673 34.1859 19.3643 34.2829L20.5773 35.3988H19.3886V35.3988Z" stroke="white" stroke-width="0.75" stroke-miterlimit="10"/>
<path d="M21.5716 1L27.709 8.0593H24.5554L20.5284 3.3531L16.4772 8.0593H13.2993L19.4368 1H21.5716Z" stroke="white" stroke-width="0.75" stroke-miterlimit="10"/>
<path d="M19.4368 64L13.2993 56.9407H16.453L20.4799 61.6469L24.5311 56.9407H27.709L21.5716 64H19.4368Z" stroke="white" stroke-width="0.75" stroke-miterlimit="10"/>
</svg>
