<svg xmlns="http://www.w3.org/2000/svg" width="62" height="58" fill="none" viewBox="0 0 62 58">
  <defs/>
  <path stroke="#fff" stroke-miterlimit="10" stroke-width=".7" d="M49.257 27.2h2.553c.544 0 .963-.334 1.13-.837.168-.502 0-1.13-.418-1.38-.251-.168-.544-.294-.88-.294h-4.854c-.628 0-1.172.502-1.214 1.172-.084.753.46 1.34 1.214 1.34.837.041 1.674 0 2.47 0zm-36.12-6.738c.126 0 .21-.084.293-.126.67-.418 1.382-.795 2.051-1.213 1.633-.963 3.307-1.884 4.939-2.847 1.172-.67 2.344-1.38 3.516-2.05 2.009-1.172 4.018-2.302 5.985-3.432 1.297-.754 2.553-1.465 3.85-2.219.126-.083.377-.125.335-.292 0-.168-.21-.21-.377-.293-.962-.586-1.967-1.13-2.93-1.675-.962-.544-1.883-1.088-2.845-1.632l-2.637-1.507c-.712-.376-.419-.376-1.088 0-1.13.628-2.26 1.298-3.39 1.968-1.423.795-2.805 1.632-4.228 2.427-1.13.67-2.26 1.297-3.39 1.967-1.172.67-2.344 1.34-3.474 2.01-1.13.627-2.218 1.296-3.348 1.924-.837.46-1.632.963-2.47 1.423-.209.126-.209.252 0 .377l1.507.879c1.047.586 2.093 1.172 3.098 1.8l2.385 1.38c.628.336 1.214.712 1.842 1.047.125 0 .251.084.377.084zm32.688-5.4c0-.083-.084-.125-.125-.167-.335-.209-.712-.418-1.047-.627l-2.888-1.633c-.753-.46-1.548-.879-2.302-1.339-1.046-.628-2.134-1.214-3.18-1.842-.21-.125-.377-.125-.586 0a80.55 80.55 0 01-3.223 1.842c-.963.586-1.967 1.13-2.93 1.716-1.046.586-2.093 1.214-3.18 1.8-1.173.67-2.303 1.339-3.475 2.009-.878.502-1.716 1.004-2.595 1.506-1.255.712-2.51 1.423-3.766 2.177-.503.293-.963.544-1.465.837-.21.125-.21.21 0 .335.25.125.46.25.711.418.963.544 1.926 1.13 2.93 1.674.753.46 1.549.88 2.302 1.34 1.172.67 2.344 1.339 3.474 2.009a.534.534 0 00.502 0c.251-.168.544-.293.795-.46 1.214-.67 2.386-1.382 3.6-2.052 1.213-.711 2.427-1.38 3.6-2.092l2.636-1.507c.879-.502 1.758-1.046 2.637-1.549 1.004-.586 1.967-1.13 2.971-1.716 1.13-.627 2.219-1.297 3.349-1.925.334-.21.67-.377 1.004-.586.167-.042.251-.084.251-.167zM25.694 40.887V52.856c0 .21.083.252.25.126.796-.46 1.633-.92 2.428-1.381a244.046 244.046 0 004.437-2.595l4.143-2.386c.21-.125.293-.293.293-.544v-1.34V28.75c0-.251 0-.46.042-.712.21-.795.586-1.506 1.214-2.05.628-.545 1.38-.88 2.218-.88h2.762c.377 0 .377 0 .544-.376.21-.46.503-.879.921-1.214.46-.335.963-.544 1.549-.628.25-.041.25-.083.25-.293v-.167-5.441-.21c-.041-.167-.083-.208-.25-.125-.21.126-.419.251-.628.335-1.046.586-2.093 1.214-3.097 1.8-1.088.628-2.177 1.255-3.307 1.925-1.13.628-2.218 1.297-3.348 1.925-1.004.586-1.967 1.13-2.971 1.716-.712.419-1.382.796-2.093 1.214-.963.544-1.925 1.13-2.888 1.674-.753.46-1.549.88-2.302 1.34-.167.083-.251.209-.251.418v.293c.084 3.892.084 7.743.084 11.593zm13.309.252v12.346c0 .837.712 1.674 1.465 1.8.251.042.502.084.753.084H57.42c.25 0 .502-.042.753-.084.753-.21 1.214-.712 1.381-1.465.042-.251.084-.502.084-.753V29.167c0-.25-.042-.544-.084-.795-.21-.879-.963-1.506-1.841-1.506h-2.888c-.168 0-.252.041-.335.209-.168.46-.46.837-.837 1.172-.46.418-1.005.67-1.633.67-1.841.041-3.64.041-5.482 0-.544 0-1.089-.21-1.549-.587-.377-.334-.712-.67-.92-1.172-.084-.209-.21-.293-.461-.293H40.76c-.377 0-.712.126-.963.335-.544.377-.837.921-.837 1.59.042 4.144.042 8.246.042 12.348zM2.716 28.748v11.804c0 .25.084.376.293.502.544.293 1.088.628 1.632.962 1.047.586 2.093 1.214 3.14 1.8 1.13.67 2.26 1.298 3.39 1.967 1.422.795 2.804 1.633 4.227 2.428 1.088.628 2.218 1.255 3.306 1.883.837.502 1.674.963 2.511 1.423.796.46 1.59.921 2.428 1.381.335.168.335.168.335-.209v-3.348-20.215c0-.293-.084-.46-.335-.628a102.33 102.33 0 01-2.888-1.674c-2.051-1.172-4.06-2.344-6.11-3.516-1.926-1.13-3.851-2.218-5.777-3.348-1.883-1.088-3.724-2.135-5.608-3.223-.502-.293-.502-.251-.502.293-.042 3.976-.042 7.868-.042 11.719zM1 28.248V15.356c0-.544.21-.88.67-1.172 1.255-.712 2.51-1.423 3.766-2.176L9.58 9.622c1.423-.837 2.888-1.632 4.31-2.47 1.34-.753 2.638-1.548 3.977-2.301 1.046-.628 2.134-1.214 3.18-1.842 1.005-.586 1.968-1.13 2.972-1.716.126-.042.21-.126.335-.167a.985.985 0 01.963 0c.962.544 1.883 1.088 2.846 1.632 1.34.753 2.637 1.507 3.976 2.302 1.046.628 2.134 1.214 3.18 1.841.88.503 1.717 1.005 2.596 1.507 1.255.712 2.511 1.465 3.767 2.177.795.46 1.59.92 2.343 1.339 1.13.628 2.219 1.297 3.349 1.925.209.126.46.251.67.377.334.167.502.46.502.837v1.172c.041.92 0 1.883 0 2.804V22.638c0 .251.041.293.334.293h2.847c1.046.042 1.883.419 2.51 1.298.126.167.21.335.294.544.167.377.167.377.586.377h2.678c1.298 0 2.72.878 3.265 2.176.21.46.293.962.293 1.465V53.4c0 1.674-1.172 3.18-2.93 3.557-.21.042-.377.042-.586.042H40.844c-1.004 0-1.841-.377-2.553-1.088a3.352 3.352 0 01-1.004-2.428V48.88c0-.125.042-.25-.084-.334-.125-.084-.209.041-.335.125-1.213.712-2.469 1.381-3.683 2.093-1.255.711-2.51 1.465-3.808 2.218-1.088.628-2.135 1.214-3.223 1.842-.251.167-.502.293-.753.46-.377.251-.754.251-1.172.042-1.298-.754-2.637-1.507-3.976-2.302-1.298-.753-2.595-1.507-3.893-2.218-1.13-.67-2.26-1.298-3.39-1.967-1.423-.796-2.804-1.633-4.227-2.428-1.214-.711-2.47-1.423-3.683-2.135-1.13-.67-2.26-1.339-3.39-1.967-.46-.25-.67-.585-.67-1.13V28.247z"/>
  <path stroke="#fff" stroke-miterlimit="10" stroke-width=".7" d="M44.11 41.472h-.796c-.21 0-.25.042-.25.21v1.632c0 .167.04.21.208.21h1.633c.167 0 .209-.043.209-.21v-1.59c0-.21-.042-.252-.251-.252h-.754zm-.042 3.684H42.31c-.544 0-.837-.294-.837-.838v-3.515c0-.544.334-.88.837-.88h3.474c.502 0 .92.294.879.922v3.39c0 .25-.042.46-.21.627-.167.168-.335.294-.586.294h-1.8zM41.472 50.429V48.67c0-.502.334-.837.837-.837h3.557c.502 0 .837.335.837.837v.628c0 .335-.25.711-.628.795-.334.084-.711-.042-.878-.419-.126-.334-.335-.376-.628-.334h-1.256c-.25 0-.293.042-.335.334v1.465c0 .293 0 .293.252.377.418.167.627.544.502.963-.084.335-.335.544-.712.544h-.879c-.418.042-.795-.377-.753-.754v-1.632c.084-.084.084-.125.084-.21zM41.472 34.692v-1.758c-.042-.502.376-.92.92-.879 1.13.042 2.26 0 3.39 0 .628 0 .921.335.921.921v.377c0 .335-.25.628-.502.753a.84.84 0 01-.92-.25.464.464 0 00-.42-.21h-1.506c-.293 0-.293.042-.293.293v1.507c0 .167.042.25.21.293a.767.767 0 01.418.293c.167.25.21.502.084.753-.126.25-.335.46-.67.46h-.837c-.335.042-.795-.418-.795-.795.041-.544 0-1.172 0-1.758z"/>
  <path stroke="#fff" stroke-miterlimit="10" stroke-width=".7" d="M49.255 33.646c0 .25-.125.46-.334.627-.335.335-.628.628-.963.921-.502.502-1.046 1.005-1.548 1.507-.126.126-.252.21-.377.293-.293.21-.712.167-.921-.042-.46-.419-.92-.879-1.34-1.297a.72.72 0 010-1.005.83.83 0 011.089-.084c.167.168.335.335.502.46.251.21.251.21.46 0 .628-.627 1.256-1.213 1.884-1.84.084-.084.21-.168.293-.252.251-.167.502-.167.795-.042.335.21.46.46.46.754zM49.258 49.55c.042.21-.125.419-.293.544-.46.419-.878.837-1.339 1.298-.46.46-.962.92-1.423 1.38-.377.378-.837.378-1.214 0l-1.13-1.13c-.209-.209-.334-.46-.25-.794.167-.544.836-.754 1.255-.335.167.167.335.335.544.502.21.167.21.21.419 0 .67-.67 1.339-1.297 2.009-1.967a.999.999 0 01.544-.293c.544 0 .878.335.878.795zM54.237 49.885h2.428c.25 0 .46.042.628.167.209.168.293.335.209.586a.864.864 0 01-.67.419h-4.897c-.167 0-.293 0-.46-.042-.335-.084-.544-.335-.46-.67.041-.251.334-.46.711-.46h2.511zM54.238 42.017h2.427c.251 0 .46.083.628.209.377.293.251.753-.293.92-.126.042-.293.042-.419.042h-4.729c-.251 0-.46-.041-.628-.167-.293-.167-.293-.377-.209-.628.084-.25.377-.376.712-.376h2.51zM54.237 34.148h2.51c.42 0 .796.335.796.544 0 .21-.126.418-.419.502-.167.084-.334.084-.544.084h-4.645c-.126 0-.251 0-.377-.042-.419-.084-.628-.335-.586-.67.042-.25.377-.46.753-.46.837.042 1.675.042 2.512.042z"/>
</svg>
