<svg width="61" height="58" viewBox="0 0 61 58" fill="none" xmlns="http://www.w3.org/2000/svg">
<path d="M40.2795 22.8601C40.0356 18.9584 36.8307 15.8579 32.9638 15.8579C30.6297 15.8579 28.3305 17.0075 26.9371 18.8887C26.9022 18.8887 26.8674 18.8539 26.8325 18.8539C26.7629 18.819 26.6584 18.7842 26.5538 18.7494C26.519 18.7145 26.4493 18.7145 26.4145 18.6797C26.3448 18.6448 26.2403 18.61 26.1358 18.61C26.101 18.61 26.0313 18.5752 25.9965 18.5752C25.892 18.5403 25.7874 18.5403 25.6829 18.5055C25.6481 18.5055 25.6133 18.5055 25.5436 18.4707C25.4042 18.4707 25.2649 18.4358 25.0907 18.4358C22.9308 18.4358 21.189 20.1777 21.189 22.3375C21.189 22.4072 21.189 22.442 21.189 22.5117C19.3775 23.4872 18.1582 25.5774 18.1582 27.6327C18.1582 30.6983 20.6664 33.2066 23.7321 33.2066H34.3573C34.3921 33.2066 34.4618 33.2066 34.4966 33.2066H34.5314H34.6011C34.636 33.2066 34.6708 33.2066 34.7405 33.2066H38.9906C41.8472 33.2066 44.1812 30.8725 44.1812 28.0159C44.1812 25.5774 42.5091 23.4523 40.2795 22.8601ZM38.9557 32.3008H34.7056C34.6708 32.3008 34.6708 32.3008 34.636 32.3008H34.5314H34.4618C34.4269 32.3008 34.4269 32.3008 34.3921 32.3008H23.7669C21.189 32.3008 19.064 30.2106 19.064 27.5979C19.064 25.7864 20.2484 23.94 21.8509 23.1736L22.0948 23.0691V22.7904C22.0948 22.7207 22.0948 22.6859 22.0948 22.6162V22.5466V22.4421C22.0948 22.4072 22.0948 22.3724 22.0948 22.3375C22.0948 20.6654 23.4534 19.3067 25.1255 19.3067C25.2649 19.3067 25.4042 19.3067 25.5087 19.3416C25.5436 19.3416 25.5784 19.3416 25.6133 19.3416C25.7178 19.3764 25.8571 19.3764 25.9616 19.4113H25.9965C26.101 19.4461 26.2403 19.4809 26.3448 19.5506C26.3797 19.5506 26.4145 19.5854 26.4493 19.5854C26.5538 19.6203 26.6584 19.69 26.7629 19.7596C27.5989 20.2822 28.1563 21.2228 28.1563 22.3027C28.1563 22.5466 28.3654 22.7207 28.5744 22.7207C28.8182 22.7207 28.9924 22.5117 28.9924 22.3027C28.9924 21.1183 28.4699 20.0383 27.5989 19.3416C28.8531 17.7043 30.8736 16.694 32.929 16.694C36.2733 16.694 39.0602 19.3416 39.3738 22.7207C38.9209 22.6859 38.259 22.6859 37.5971 22.7904C37.3532 22.8253 37.179 23.0343 37.2487 23.2781C37.2836 23.4871 37.4577 23.6613 37.6668 23.6613C37.7016 23.6613 37.7016 23.6613 37.7364 23.6613C38.7119 23.522 39.7221 23.6613 39.757 23.6613C41.7775 24.0445 43.3103 25.8909 43.3103 27.9811C43.3103 30.35 41.3594 32.3008 38.9557 32.3008Z" stroke="white" stroke-width="0.75" stroke-miterlimit="10"/>
<path d="M58.9871 25.8908L54.0054 21.3621V6.3126C54.0054 5.37201 53.239 4.57076 52.2636 4.57076H40.2798C39.3392 4.57076 38.5379 5.33717 38.5379 6.3126V7.28803L32.5112 1.78383C31.3616 0.738725 29.5849 0.738725 28.4353 1.78383L1.99423 25.8908C1.05364 26.7269 0.74011 28.0507 1.22782 29.2003C1.6807 30.3848 2.79548 31.1163 4.0496 31.1163H8.26484V55.2582C8.26484 56.1988 9.03124 57 10.0067 57H24.4987C25.4393 57 26.2406 56.2336 26.2406 55.2582V40.5919H34.7756V55.2582C34.7756 56.1988 35.542 57 36.5174 57H50.9746C51.9152 57 52.7165 56.2336 52.7165 55.2582V31.1163H56.9317C58.1858 31.1163 59.3006 30.3499 59.7535 29.2003C60.2064 28.0507 59.8928 26.7617 58.9871 25.8908ZM50.9746 27.7023C50.034 27.7023 49.2328 28.4687 49.2328 29.4442V53.586H38.1896V38.9198C38.1896 37.9792 37.4232 37.1779 36.4477 37.1779H24.4987C23.5582 37.1779 22.7569 37.9443 22.7569 38.9198V53.586H11.7137V29.4442C11.7137 28.5036 10.9473 27.7023 9.97184 27.7023H5.16437L30.4558 4.64043L39.0605 12.4787C39.583 12.9316 40.3146 13.0709 40.9417 12.7922C41.5687 12.5135 41.9868 11.8865 41.9868 11.1897V8.01959H50.5218V22.0936C50.5218 22.5813 50.7308 23.0342 51.0791 23.3826L55.7821 27.6675H50.9746V27.7023Z" stroke="white" stroke-width="0.75" stroke-miterlimit="10"/>
</svg>
