<svg width="48" height="59" viewBox="0 0 48 59" fill="none" xmlns="http://www.w3.org/2000/svg">
<path d="M9.70367 19.4749V24.5948C8.59374 24.9887 7.66284 25.8122 7.16158 26.9221L4.97754 31.6482C3.54538 34.6916 4.26145 38.272 6.69613 40.5992L13.1051 46.6501V56.8901C13.1051 57.4987 13.6063 58 14.215 58H19.2275C19.8362 58 20.3375 57.4987 20.3375 56.8901C20.3375 56.2814 19.8362 55.7801 19.2275 55.7801H15.3249V46.1489C15.3249 45.8266 15.1817 45.5402 14.9669 45.3254L8.1999 38.9881C6.4455 37.3411 5.98005 34.7632 6.98256 32.5791L9.16661 27.853C9.70367 26.7073 11.0284 26.2776 12.1383 26.7789L23.1302 31.8989C21.5906 33.9755 18.7263 34.7632 16.2916 33.6174L13.2483 32.2211C12.6754 31.9705 12.0309 32.1853 11.7803 32.7582C11.5297 33.331 11.7445 33.9755 12.3174 34.2261L15.3607 35.6225C16.6138 36.1953 18.0102 36.446 19.4424 36.3027C21.8054 38.8448 23.0944 42.103 23.0944 45.6118C23.0944 46.2205 23.5956 46.7217 24.2043 46.7217C24.813 46.7217 25.3142 46.2205 25.3142 45.6118C25.3142 41.9598 24.0969 38.4868 21.8412 35.6941C23.4882 34.9422 24.9204 33.6533 25.7439 31.8631C26.2809 32.1137 26.9254 32.2569 27.5341 32.2569C28.5366 32.2569 29.4317 31.9347 30.1836 31.3618C30.8997 32.8656 32.4392 33.9039 34.1936 33.9039C34.8739 33.9039 35.5184 33.7607 36.0912 33.4742C35.769 35.4793 35.3035 37.3053 34.7665 39.1671C33.943 42.2462 33.0479 45.4328 33.0479 49.4786V55.7085H29.1453C28.5366 55.7085 28.0353 56.2098 28.0353 56.8185C28.0353 57.4271 28.5366 57.9284 29.1453 57.9284H34.1578C34.7665 57.9284 35.2677 57.4271 35.2677 56.8185V49.4786C35.2677 45.7192 36.0554 42.8191 36.9147 39.7399C37.7382 36.6608 38.6333 33.4742 38.6333 29.4284V22.7688C38.6333 20.2983 36.6283 18.3291 34.1936 18.3291C33.1911 18.3291 32.296 18.6514 31.5441 19.2242C30.828 17.7205 29.2885 16.6821 27.5341 16.6821C26.5316 16.6821 25.6365 17.0044 24.8846 17.5772C24.1685 16.0735 22.6289 15.0352 20.8745 15.0352C19.5498 15.0352 18.3682 15.608 17.5447 16.5389C16.7213 15.608 15.5397 15.0352 14.215 15.0352C11.7087 15.0352 9.70367 17.0402 9.70367 19.4749ZM31.9738 22.8046C31.9738 21.5873 32.9763 20.5848 34.1936 20.5848C35.411 20.5848 36.4135 21.5873 36.4135 22.8046V29.4642C36.4135 30.6815 35.411 31.684 34.1936 31.684C32.9763 31.684 31.9738 30.6815 31.9738 29.4642V22.8046ZM25.2784 21.1576C25.2784 19.9403 26.2809 18.9378 27.4983 18.9378C28.7156 18.9378 29.7181 19.9403 29.7181 21.1576V27.8172C29.7181 29.0345 28.7156 30.037 27.4983 30.037C26.2809 30.037 25.2784 29.0345 25.2784 27.8172V21.1576ZM18.6189 19.4749C18.6189 18.2575 19.6214 17.255 20.8387 17.255C22.0561 17.255 23.0586 18.2575 23.0586 19.4749V27.8172C23.0586 28.4617 23.2018 29.0703 23.4166 29.6074L18.5831 27.3517V19.4749H18.6189ZM11.9235 19.4749C11.9235 18.2575 12.926 17.255 14.1434 17.255C15.3607 17.255 16.3632 18.2575 16.3632 19.4749V26.3134L13.0334 24.7739C12.6754 24.5948 12.2816 24.4874 11.8877 24.4158V19.4749H11.9235Z" stroke="#6E5FA7" stroke-width="0.75" stroke-miterlimit="10"/>
<path d="M25.278 6.11998V2.10993C25.278 1.50126 24.7768 1 24.1681 1C23.5594 1 23.0582 1.50126 23.0582 2.10993V6.11998C23.0582 6.72865 23.5594 7.22991 24.1681 7.22991C24.7768 7.22991 25.278 6.72865 25.278 6.11998Z" stroke="#6E5FA7" stroke-width="0.75" stroke-miterlimit="10"/>
<path d="M14.7167 9.7717C15.2538 9.44946 15.4328 8.76918 15.1106 8.26793L13.4278 5.3678C13.1055 4.83074 12.4253 4.65172 11.924 4.97396C11.387 5.29619 11.2079 5.97647 11.5302 6.47773L13.213 9.37785C13.4994 9.87911 14.1797 10.0939 14.7167 9.7717Z" stroke="#6E5FA7" stroke-width="0.75" stroke-miterlimit="10"/>
<path d="M5.72935 15.1784L2.82923 13.4956C2.29217 13.1734 1.61189 13.3882 1.32545 13.8895C1.00322 14.4265 1.21804 15.1068 1.7193 15.3932L4.61943 17.076C5.15649 17.3983 5.83677 17.2192 6.1232 16.6822C6.44543 16.1451 6.23061 15.4648 5.72935 15.1784Z" stroke="#6E5FA7" stroke-width="0.75" stroke-miterlimit="10"/>
<path d="M35.1598 9.37828L36.8426 6.47815C37.1649 5.94109 36.95 5.26081 36.4488 4.97438C35.9117 4.65214 35.2314 4.86697 34.945 5.36823L33.2622 8.26835C32.94 8.80541 33.1548 9.48569 33.6561 9.77212C34.1573 10.0944 34.8376 9.91534 35.1598 9.37828Z" stroke="#6E5FA7" stroke-width="0.75" stroke-miterlimit="10"/>
<path d="M43.7534 17.1117L46.6535 15.4289C47.1905 15.1067 47.3696 14.4264 47.0473 13.9252C46.7251 13.3881 46.0448 13.2091 45.5436 13.5313L42.6434 15.2141C42.1064 15.5364 41.9274 16.2166 42.2496 16.7179C42.536 17.2191 43.2163 17.3982 43.7534 17.1117Z" stroke="#6E5FA7" stroke-width="0.75" stroke-miterlimit="10"/>
<path d="M24.1681 57.9645C24.7811 57.9645 25.278 57.4676 25.278 56.8546C25.278 56.2416 24.7811 55.7446 24.1681 55.7446C23.5551 55.7446 23.0582 56.2416 23.0582 56.8546C23.0582 57.4676 23.5551 57.9645 24.1681 57.9645Z" stroke="#6E5FA7" stroke-width="0.75" stroke-miterlimit="10"/>
</svg>
