<svg width="48" height="59" viewBox="0 0 48 59" fill="none" xmlns="http://www.w3.org/2000/svg">
<path d="M9.7041 19.4749V24.5948C8.59417 24.9887 7.66326 25.8122 7.16201 26.9221L4.97797 31.6482C3.5458 34.6916 4.26188 38.272 6.69655 40.5992L13.1055 46.6501V56.8901C13.1055 57.4987 13.6067 58 14.2154 58H19.228C19.8366 58 20.3379 57.4987 20.3379 56.8901C20.3379 56.2814 19.8366 55.7801 19.228 55.7801H15.3253V46.1489C15.3253 45.8266 15.1821 45.5402 14.9673 45.3254L8.20033 38.9881C6.44593 37.3411 5.98047 34.7632 6.98299 32.5791L9.16704 27.853C9.7041 26.7073 11.0288 26.2776 12.1388 26.7789L23.1306 31.8989C21.591 33.9755 18.7267 34.7632 16.292 33.6174L13.2487 32.2211C12.6758 31.9705 12.0314 32.1853 11.7807 32.7582C11.5301 33.331 11.7449 33.9755 12.3178 34.2261L15.3611 35.6225C16.6143 36.1953 18.0106 36.446 19.4428 36.3027C21.8059 38.8448 23.0948 42.103 23.0948 45.6118C23.0948 46.2205 23.5961 46.7217 24.2047 46.7217C24.8134 46.7217 25.3146 46.2205 25.3146 45.6118C25.3146 41.9598 24.0973 38.4868 21.8417 35.6941C23.4886 34.9422 24.9208 33.6533 25.7443 31.8631C26.2814 32.1137 26.9258 32.2569 27.5345 32.2569C28.537 32.2569 29.4321 31.9347 30.184 31.3618C30.9001 32.8656 32.4397 33.9039 34.1941 33.9039C34.8743 33.9039 35.5188 33.7607 36.0917 33.4742C35.7694 35.4793 35.304 37.3053 34.7669 39.1671C33.9434 42.2462 33.0483 45.4328 33.0483 49.4786V55.7085H29.1457C28.537 55.7085 28.0358 56.2098 28.0358 56.8185C28.0358 57.4271 28.537 57.9284 29.1457 57.9284H34.1582C34.7669 57.9284 35.2682 57.4271 35.2682 56.8185V49.4786C35.2682 45.7192 36.0559 42.8191 36.9152 39.7399C37.7386 36.6608 38.6338 33.4742 38.6338 29.4284V22.7688C38.6338 20.2983 36.6287 18.3291 34.1941 18.3291C33.1915 18.3291 32.2964 18.6514 31.5445 19.2242C30.8285 17.7205 29.2889 16.6821 27.5345 16.6821C26.532 16.6821 25.6369 17.0044 24.885 17.5772C24.1689 16.0735 22.6293 15.0352 20.875 15.0352C19.5502 15.0352 18.3687 15.608 17.5452 16.5389C16.7217 15.608 15.5401 15.0352 14.2154 15.0352C11.7091 15.0352 9.7041 17.0402 9.7041 19.4749ZM31.9742 22.8046C31.9742 21.5873 32.9767 20.5848 34.1941 20.5848C35.4114 20.5848 36.4139 21.5873 36.4139 22.8046V29.4642C36.4139 30.6815 35.4114 31.684 34.1941 31.684C32.9767 31.684 31.9742 30.6815 31.9742 29.4642V22.8046ZM25.2788 21.1576C25.2788 19.9403 26.2814 18.9378 27.4987 18.9378C28.716 18.9378 29.7185 19.9403 29.7185 21.1576V27.8172C29.7185 29.0345 28.716 30.037 27.4987 30.037C26.2814 30.037 25.2788 29.0345 25.2788 27.8172V21.1576ZM18.6193 19.4749C18.6193 18.2575 19.6218 17.255 20.8391 17.255C22.0565 17.255 23.059 18.2575 23.059 19.4749V27.8172C23.059 28.4617 23.2022 29.0703 23.417 29.6074L18.5835 27.3517V19.4749H18.6193ZM11.9239 19.4749C11.9239 18.2575 12.9265 17.255 14.1438 17.255C15.3611 17.255 16.3636 18.2575 16.3636 19.4749V26.3134L13.0339 24.7739C12.6758 24.5948 12.282 24.4874 11.8881 24.4158V19.4749H11.9239Z" stroke="#00B4C2" stroke-width="0.75" stroke-miterlimit="10"/>
<path d="M25.2784 6.11998V2.10993C25.2784 1.50126 24.7772 1 24.1685 1C23.5599 1 23.0586 1.50126 23.0586 2.10993V6.11998C23.0586 6.72865 23.5599 7.22991 24.1685 7.22991C24.7772 7.22991 25.2784 6.72865 25.2784 6.11998Z" stroke="#00B4C2" stroke-width="0.75" stroke-miterlimit="10"/>
<path d="M14.7172 9.7717C15.2542 9.44946 15.4332 8.76918 15.111 8.26793L13.4282 5.3678C13.106 4.83074 12.4257 4.65172 11.9244 4.97396C11.3874 5.29619 11.2084 5.97647 11.5306 6.47773L13.2134 9.37785C13.4998 9.87911 14.1801 10.0939 14.7172 9.7717Z" stroke="#00B4C2" stroke-width="0.75" stroke-miterlimit="10"/>
<path d="M5.72984 15.1784L2.82972 13.4956C2.29266 13.1734 1.61237 13.3882 1.32594 13.8895C1.00371 14.4265 1.21853 15.1068 1.71979 15.3932L4.61992 17.076C5.15698 17.3983 5.83725 17.2192 6.12369 16.6822C6.44592 16.1451 6.2311 15.4648 5.72984 15.1784Z" stroke="#00B4C2" stroke-width="0.75" stroke-miterlimit="10"/>
<path d="M35.1606 9.37828L36.8434 6.47815C37.1656 5.94109 36.9508 5.26081 36.4495 4.97438C35.9125 4.65214 35.2322 4.86697 34.9457 5.36823L33.263 8.26835C32.9407 8.80541 33.1555 9.48569 33.6568 9.77212C34.1581 10.0944 34.8383 9.91534 35.1606 9.37828Z" stroke="#00B4C2" stroke-width="0.75" stroke-miterlimit="10"/>
<path d="M43.7536 17.1117L46.6537 15.4289C47.1908 15.1067 47.3698 14.4264 47.0476 13.9252C46.7253 13.3881 46.0451 13.2091 45.5438 13.5313L42.6437 15.2141C42.1066 15.5364 41.9276 16.2166 42.2498 16.7179C42.5363 17.2191 43.2165 17.3982 43.7536 17.1117Z" stroke="#00B4C2" stroke-width="0.75" stroke-miterlimit="10"/>
<path d="M24.1685 57.9645C24.7815 57.9645 25.2784 57.4676 25.2784 56.8546C25.2784 56.2416 24.7815 55.7446 24.1685 55.7446C23.5555 55.7446 23.0586 56.2416 23.0586 56.8546C23.0586 57.4676 23.5555 57.9645 24.1685 57.9645Z" stroke="#00B4C2" stroke-width="0.75" stroke-miterlimit="10"/>
</svg>
