<svg width="53" height="52" viewBox="0 0 53 52" fill="none" xmlns="http://www.w3.org/2000/svg">
<path d="M5.29572 3.94117H7.77251V1H2.39325V6.37925H5.33443V3.94117H5.29572Z" stroke="#6E5FA7" stroke-width="0.75" stroke-miterlimit="10"/>
<path d="M2.39313 9.9397H5.3343V15.319H2.39313V9.9397Z" stroke="#6E5FA7" stroke-width="0.75" stroke-miterlimit="10"/>
<path d="M2.39313 18.8406H5.3343V24.2198H2.39313V18.8406Z" stroke="#6E5FA7" stroke-width="0.75" stroke-miterlimit="10"/>
<path d="M38.0743 1H43.4535V3.94117H38.0743V1Z" stroke="#6E5FA7" stroke-width="0.75" stroke-miterlimit="10"/>
<path d="M29.1346 1H34.5138V3.94117H29.1346V1V1Z" stroke="#6E5FA7" stroke-width="0.75" stroke-miterlimit="10"/>
<path d="M20.2335 1H25.6128V3.94117H20.2335V1Z" stroke="#6E5FA7" stroke-width="0.75" stroke-miterlimit="10"/>
<path d="M11.294 1H16.6733V3.94117H11.294V1Z" stroke="#6E5FA7" stroke-width="0.75" stroke-miterlimit="10"/>
<path d="M46.9754 1V3.94117H49.4522V6.41795H52.3934V1.0387H46.9754V1Z" stroke="#6E5FA7" stroke-width="0.75" stroke-miterlimit="10"/>
<path d="M49.4519 9.9397H52.3931V15.319H49.4519V9.9397Z" stroke="#6E5FA7" stroke-width="0.75" stroke-miterlimit="10"/>
<path d="M49.4519 18.8406H52.3931V24.2198H49.4519V18.8406Z" stroke="#6E5FA7" stroke-width="0.75" stroke-miterlimit="10"/>
<path d="M49.4519 27.7803H52.3931V33.1595H49.4519V27.7803Z" stroke="#6E5FA7" stroke-width="0.75" stroke-miterlimit="10"/>
<path d="M49.4519 36.6812H52.3931V42.0604H49.4519V36.6812Z" stroke="#6E5FA7" stroke-width="0.75" stroke-miterlimit="10"/>
<path d="M49.4522 48.0587H46.9754V50.9999H52.3547V45.6206H49.4135V48.0587H49.4522Z" stroke="#6E5FA7" stroke-width="0.75" stroke-miterlimit="10"/>
<path d="M38.0743 48.0588H43.4535V51H38.0743V48.0588Z" stroke="#6E5FA7" stroke-width="0.75" stroke-miterlimit="10"/>
<path d="M37.5325 12.339H39.0031L31.147 20.195V18.7244H28.2059V25.1873H34.6687V22.2461H33.1981L41.0542 14.3901V15.8607H43.9953V9.39783H37.5325V12.339Z" stroke="#6E5FA7" stroke-width="0.75" stroke-miterlimit="10"/>
<path d="M33.7399 47.0139H32.8885V30.0634C32.8885 28.9411 31.9597 28.0123 30.8374 28.0123H4.36687C3.24458 28.0123 2.31579 28.9411 2.31579 30.0634V47.0139H1.54179C1.2322 47.0139 1 47.2461 1 47.5557V49.0263C1 49.9937 1.77399 50.7677 2.74148 50.7677H32.5789C33.5464 50.7677 34.3204 49.9937 34.3204 49.0263V47.5557C34.2817 47.2461 34.0495 47.0139 33.7399 47.0139ZM3.43807 30.0634C3.43807 29.5216 3.86377 29.0959 4.40557 29.0959H30.8761C31.4179 29.0959 31.8436 29.5216 31.8436 30.0634V47.0139H3.43807V30.0634ZM16.0929 48.0588H19.2275V48.3297C19.2275 48.4458 19.1114 48.5619 18.9953 48.5619H16.3251C16.209 48.5619 16.0929 48.4458 16.0929 48.3297V48.0588ZM33.1981 48.9876C33.1981 49.3359 32.8885 49.6454 32.5402 49.6454H2.70278C2.35449 49.6454 2.04489 49.3359 2.04489 48.9876V48.0588H2.89628H15.3576V48.3297C15.3576 48.8328 15.7833 49.2584 16.2864 49.2584H18.9566C19.4597 49.2584 19.8854 48.8328 19.8854 48.3297V48.0588H32.3467H33.1981V48.9876Z" stroke="#6E5FA7" stroke-width="0.75" stroke-miterlimit="10"/>
</svg>
