<svg width="53" height="52" viewBox="0 0 53 52" fill="none" xmlns="http://www.w3.org/2000/svg">
<path d="M5.29554 3.94117H7.77232V1H2.39307V6.37925H5.33424V3.94117H5.29554Z" stroke="#00B4C2" stroke-width="0.75" stroke-miterlimit="10"/>
<path d="M2.39307 9.9397H5.33424V15.319H2.39307V9.9397Z" stroke="#00B4C2" stroke-width="0.75" stroke-miterlimit="10"/>
<path d="M2.39307 18.8406H5.33424V24.2198H2.39307V18.8406Z" stroke="#00B4C2" stroke-width="0.75" stroke-miterlimit="10"/>
<path d="M38.0742 1H43.4535V3.94117H38.0742V1Z" stroke="#00B4C2" stroke-width="0.75" stroke-miterlimit="10"/>
<path d="M29.1348 1H34.514V3.94117H29.1348V1V1Z" stroke="#00B4C2" stroke-width="0.75" stroke-miterlimit="10"/>
<path d="M20.2334 1H25.6127V3.94117H20.2334V1Z" stroke="#00B4C2" stroke-width="0.75" stroke-miterlimit="10"/>
<path d="M11.2939 1H16.6732V3.94117H11.2939V1Z" stroke="#00B4C2" stroke-width="0.75" stroke-miterlimit="10"/>
<path d="M46.9751 1V3.94117H49.4519V6.41795H52.3931V1.0387H46.9751V1Z" stroke="#00B4C2" stroke-width="0.75" stroke-miterlimit="10"/>
<path d="M49.4517 9.9397H52.3928V15.319H49.4517V9.9397Z" stroke="#00B4C2" stroke-width="0.75" stroke-miterlimit="10"/>
<path d="M49.4517 18.8406H52.3928V24.2198H49.4517V18.8406Z" stroke="#00B4C2" stroke-width="0.75" stroke-miterlimit="10"/>
<path d="M49.4517 27.7803H52.3928V33.1595H49.4517V27.7803Z" stroke="#00B4C2" stroke-width="0.75" stroke-miterlimit="10"/>
<path d="M49.4517 36.6812H52.3928V42.0604H49.4517V36.6812Z" stroke="#00B4C2" stroke-width="0.75" stroke-miterlimit="10"/>
<path d="M49.4519 48.0587H46.9751V50.9999H52.3543V45.6206H49.4132V48.0587H49.4519Z" stroke="#00B4C2" stroke-width="0.75" stroke-miterlimit="10"/>
<path d="M38.0742 48.0588H43.4535V51H38.0742V48.0588Z" stroke="#00B4C2" stroke-width="0.75" stroke-miterlimit="10"/>
<path d="M37.5327 12.3391H39.0033L31.1472 20.1952V18.7246H28.2061V25.1874H34.6689V22.2462H33.1983L41.0544 14.3902V15.8608H43.9955V9.39795H37.5327V12.3391Z" stroke="#00B4C2" stroke-width="0.75" stroke-miterlimit="10"/>
<path d="M33.7399 47.0137H32.8885V30.0633C32.8885 28.941 31.9597 28.0122 30.8374 28.0122H4.36687C3.24458 28.0122 2.31579 28.941 2.31579 30.0633V47.0137H1.54179C1.2322 47.0137 1 47.2459 1 47.5555V49.0261C1 49.9936 1.77399 50.7676 2.74148 50.7676H32.5789C33.5464 50.7676 34.3204 49.9936 34.3204 49.0261V47.5555C34.2817 47.2459 34.0495 47.0137 33.7399 47.0137ZM3.43807 30.0633C3.43807 29.5215 3.86377 29.0958 4.40557 29.0958H30.8761C31.4179 29.0958 31.8436 29.5215 31.8436 30.0633V47.0137H3.43807V30.0633ZM16.0929 48.0586H19.2275V48.3295C19.2275 48.4456 19.1114 48.5617 18.9953 48.5617H16.3251C16.209 48.5617 16.0929 48.4456 16.0929 48.3295V48.0586ZM33.1981 48.9874C33.1981 49.3357 32.8885 49.6453 32.5402 49.6453H2.70278C2.35449 49.6453 2.04489 49.3357 2.04489 48.9874V48.0586H2.89628H15.3576V48.3295C15.3576 48.8326 15.7833 49.2583 16.2864 49.2583H18.9566C19.4597 49.2583 19.8854 48.8326 19.8854 48.3295V48.0586H32.3467H33.1981V48.9874Z" stroke="#00B4C2" stroke-width="0.75" stroke-miterlimit="10"/>
</svg>
