<svg width="44" height="52" viewBox="0 0 44 52" fill="none" xmlns="http://www.w3.org/2000/svg">
<path d="M42.0197 9.07566L22.875 1.14803C22.3816 0.950658 21.8553 0.950658 21.3618 1.14803L2.2171 9.07566C1.49342 9.37171 1 10.0954 1 10.8849V20.5559C1 33.8454 9.02632 45.8191 21.3618 50.852C21.8224 51.0493 22.3487 51.0493 22.8421 50.852C35.1447 45.8191 43.2039 33.8783 43.2039 20.5559V10.8849C43.2368 10.0954 42.7763 9.37171 42.0197 9.07566ZM39.3224 20.5559C39.3224 31.8717 32.6776 42.2664 22.1513 46.9046C11.8882 42.398 4.98027 32.1678 4.98027 20.5559V12.2007L22.1513 5.0625L39.3224 12.2007V20.5559ZM19.9803 27.1349L28.3684 18.7467C29.125 17.9901 30.375 17.9901 31.1316 18.7467C31.8882 19.5033 31.8882 20.7533 31.1316 21.5099L21.3618 31.2796C20.6053 32.0362 19.3553 32.0362 18.5987 31.2796L13.1382 25.8191C12.3816 25.0625 12.3816 23.8125 13.1382 23.0559C13.8947 22.2993 15.1447 22.2993 15.9013 23.0559L19.9803 27.1349Z" stroke="#00B4C2" stroke-width="0.75" stroke-miterlimit="10"/>
</svg>
