<svg xmlns="http://www.w3.org/2000/svg" width="205" height="137" fill="none" viewBox="0 0 205 137">
  <defs/>
  <path fill="url(#paint0_linear)" d="M70.6 35.044c-.4-.2-.7-.3-1-.4-10.5-2.7-21.6 3.7-24.5 14.2-1.4 5-.9 9.8 1.2 14.5 1.4 3-.3 5.4-3.6 5.1-.5 0-.9-.1-1.4-.1-20.7-2.8-38.2 16-33.8 36.4 3.1 14.7 15.4 24.5 30.9 24.5h120.5c2.1 0 4.3-.1 6.4-.4 21.2-3.2 35.4-23.4 31.3-43.7-2.8-14.1-11.1-23.8-24.6-28.5-13.8-4.8-26.5-2-37.4 7.8-8 7.1-11.8 16.3-12.1 27-.1 2.4-1.4 3.8-3.4 3.8s-3.4-1.5-3.3-3.9c0-1.5.2-2.9.3-4.4 1.8-19.6 18.3-36.6 37.9-38.8 3-.4 6-.4 9.3-.6-.2-1.7-.4-3.3-.7-4.9-5.1-24.6-27.9-39.6-52.7-34.7-21.9 4.3-37.8 26.6-34.5 48.6.5 3.5 1.6 6.8 2.5 10.2.4 1.5.4 3.1-1.1 3.9-1 .5-2.6.7-3.7.3-.8-.3-1.5-1.6-1.9-2.6-4-11-4.1-22-.6-33.3zM0 94.744c.5-2.1.8-4.1 1.4-6.2 4.5-16.1 18.6-26.9 35.4-27.3.5 0 .9-.1 1.4-.1-4.8-21.1 14.2-38.9 34.7-32.7 2.5-3.5 4.7-7.2 7.4-10.4 8.3-10 19.1-15.9 32-17.6 28.6-3.7 53.2 16.2 57.3 42.8.1.5.3.9.2 1.4-.5 3.5 1.6 4.4 4.5 5.5 16.8 6.1 27 18.1 29.5 35.9 3.7 25.9-16.4 50-43.7 50.1-40.8.2-81.7.1-122.5 0-19.1-.1-34.1-13.5-37-32.4-.1-.4-.2-.9-.4-1.3v-7.7H0z"/>
  <path fill="#2E3131" d="M33.2 96.543c0 .7-.6 1.4-1.4 1.4-.8 0-1.4-.6-1.4-1.4 0-.8.6-1.4 1.4-1.4.8 0 1.4.7 1.4 1.4zm-.3 13.601h-2.1v-10.8h2.1v10.8zM44.9 110.144h-2.1v-6.1c0-2.2-.8-3-2.2-3-1.4 0-2.2 1-2.2 2.8v6.3h-2.1v-10.8h2.1v1c.5-.8 1.6-1.3 2.7-1.3 2.5 0 3.9 1.7 3.9 4.9v6.2h-.1zM53.3 108.044l-.2 1.9c-.5.3-1.2.5-2.1.5-1.5 0-2.4-.9-2.4-2.9v-6.3H47v-1.9h1.6v-3.1l2.1-1.1v4.2h2.7v1.9h-2.7v5.9c0 1 .3 1.3 1.1 1.3.5 0 1.1-.2 1.5-.4zM64.6 104.544c0 .4 0 .7-.1 1h-7.2c.2 2.1 1.4 3 2.7 3 .9 0 1.6-.3 2.4-.9l1.3 1.4c-1 .9-2.1 1.4-3.7 1.4-2.5 0-4.7-2-4.7-5.6 0-3.7 1.9-5.7 4.8-5.7 3 0 4.5 2.5 4.5 5.4zm-2.2-.8c-.1-1.5-.8-2.7-2.6-2.7-1.4 0-2.3 1-2.5 2.7h5.1zM73.7 99.544l-.6 2c-.5-.2-.9-.4-1.6-.4-1.3 0-2.1 1-2.1 2.8v6.2h-2.1v-10.8h2.1v1c.5-.7 1.4-1.3 2.5-1.3.8.1 1.4.2 1.8.5zM84.6 110.144h-2.1v-6.1c0-2.2-.8-3-2.2-3-1.4 0-2.2 1-2.2 2.8v6.3H76v-10.8h2.1v1c.5-.8 1.6-1.3 2.7-1.3 2.5 0 3.9 1.7 3.9 4.9v6.2h-.1zM96.5 104.544c0 .4 0 .7-.1 1h-7.2c.2 2.1 1.4 3 2.7 3 .9 0 1.6-.3 2.4-.9l1.3 1.4c-1 .9-2.1 1.4-3.7 1.4-2.5 0-4.7-2-4.7-5.6 0-3.7 1.9-5.7 4.8-5.7 3 0 4.5 2.5 4.5 5.4zm-2.2-.8c-.1-1.5-.8-2.7-2.6-2.7-1.4 0-2.3 1-2.5 2.7h5.1zM104.4 108.044l-.2 1.9c-.5.3-1.2.5-2.1.5-1.5 0-2.4-.9-2.4-2.9v-6.3h-1.6v-1.9h1.6v-3.1l2.1-1.1v4.2h2.7v1.9h-2.7v5.9c0 1 .3 1.3 1.1 1.3.5 0 1.1-.2 1.5-.4z"/>
  <defs>
    <linearGradient id="paint0_linear" x1="0" x2="204.03" y1="68.129" y2="68.129" gradientUnits="userSpaceOnUse">
      <stop stop-color="#00B4C2"/>
      <stop offset=".296" stop-color="#5962A0"/>
      <stop offset=".564" stop-color="#A51B82"/>
      <stop offset=".665" stop-color="#982587"/>
      <stop offset=".854" stop-color="#753F95"/>
      <stop offset="1" stop-color="#5656A1"/>
    </linearGradient>
  </defs>
</svg>
