<svg xmlns="http://www.w3.org/2000/svg" width="56" height="56" fill="none" viewBox="0 0 56 56">
  <defs/>
  <path fill="#6E5FA7" d="M22.579 40.642v-7.225a2.71 2.71 0 10-5.42 0v7.225a4.516 4.516 0 001.635 7.984 4.86 4.86 0 001.075.144 4.516 4.516 0 002.71-8.128zm-1.03 5.717a2.708 2.708 0 01-4.421-1.582 2.711 2.711 0 011.387-2.87.904.904 0 00.451-.79v-7.7a.903.903 0 011.806 0v7.722a.904.904 0 00.452.79 2.709 2.709 0 01.325 4.453v-.023z"/>
  <path fill="#6E5FA7" d="M54.388 33.417l-2.99-.66a11.404 11.404 0 01-7.225-5.238.904.904 0 00-1.553 0 11.33 11.33 0 01-4.688 4.3v-3.821a4.516 4.516 0 00-2.709-4.137v-8.507a15.353 15.353 0 10-30.707 0v8.507a4.516 4.516 0 00-2.71 4.137v2.71H.903A.903.903 0 000 31.61v16.257a.903.903 0 00.903.903h.903v2.71a4.515 4.515 0 004.516 4.516h27.095a4.516 4.516 0 004.515-4.516v-.113a26.262 26.262 0 004.155 3.91l.722.542a.903.903 0 001.084 0l.723-.541A26.328 26.328 0 0055.092 34.32a.903.903 0 00-.704-.903zM6.322 15.354a13.547 13.547 0 1127.095 0v8.128h-3.613v-8.128a9.934 9.934 0 10-19.87 0v8.128H6.323v-8.128zm21.676 8.128H11.74v-8.128a8.129 8.129 0 0116.257 0v8.128zm-17.16 9.032v3.612H1.806v-3.612h9.032zm-9.032 14.45v-3.613h9.032v3.613H1.806zm9.032-5.419H1.806v-3.613h9.032v3.613zm25.288 9.935a2.71 2.71 0 01-2.71 2.71H6.323a2.71 2.71 0 01-2.71-2.71v-2.71h8.129a.903.903 0 00.903-.903V31.61a.903.903 0 00-.903-.903H3.613v-2.71a2.71 2.71 0 012.71-2.709h27.094a2.709 2.709 0 012.71 2.71v4.515c-.272.082-.543.163-.823.226l-2.99.678a.902.902 0 00-.704.903 26.32 26.32 0 004.516 14.667v2.493zm7.406 2.348l-.18.135-.181-.135a24.519 24.519 0 01-9.754-18.786l2.267-.505a13.208 13.208 0 007.667-4.923 13.215 13.215 0 007.66 4.923l2.275.505a24.519 24.519 0 01-9.754 18.786z"/>
  <path fill="#6E5FA7" d="M48.67 35.63l-1.607-.813-.614 1.219a6.404 6.404 0 101.418 1.138l.804-1.544zm-.803 5.915a4.562 4.562 0 11-2.231-3.874l-2.439 4.877-1.806-2.448-1.445 1.084 2.71 3.613a.903.903 0 00.722.36h.086a.903.903 0 00.722-.496l2.863-5.726a4.44 4.44 0 01.818 2.61z"/>
</svg>
