<svg xmlns="http://www.w3.org/2000/svg" width="161" height="107" fill="none" viewBox="0 0 161 107">
  <defs/>
  <path fill="url(#paint0_linear)" d="M56.2 27.548c-.3-.1-.6-.3-.8-.3-8.2-2.1-16.9 2.9-19.2 11.1-1.1 3.9-.7 7.7 1 11.4 1.1 2.4-.2 4.2-2.8 4-.4 0-.7-.1-1.1-.1-16.3-2.2-30.1 12.6-26.6 28.6 2.5 11.5 12.1 19.2 24.2 19.2h94.501c1.7 0 3.3-.1 5-.3 16.7-2.5 27.7-18.3 24.5-34.3-2.2-11.1-8.7-18.7-19.3-22.4-10.8-3.7-20.8-1.5-29.3 6.1-6.2 5.6-9.2 12.8-9.5 21.2-.1 1.9-1.1 3-2.7 3s-2.6-1.2-2.6-3c0-1.1.1-2.3.2-3.4 1.4-15.4 14.4-28.7 29.7-30.5 2.4-.3 4.7-.3 7.3-.5-.2-1.3-.3-2.6-.6-3.9-4-19.3-21.9-31-41.3-27.2-17.1 3.4-29.6 20.9-27 38.1.4 2.7 1.3 5.3 1.9 8 .3 1.2.3 2.5-.9 3.1-.8.4-2 .5-2.9.2-.7-.2-1.2-1.3-1.5-2-2.9-8.6-3-17.3-.2-26.1zM.8 74.348c.4-1.6.6-3.2 1.1-4.8 3.6-12.7 14.6-21.2 27.8-21.5.4 0 .7-.1 1.1-.1-3.8-16.5 11.1-30.4 27.1-25.6 1.9-2.8 3.6-5.6 5.8-8.2 6.5-7.8 15-12.5 25.1-13.8 22.401-2.9 41.701 12.7 44.901 33.6.1.4.2.7.2 1.1-.4 2.7 1.2 3.4 3.5 4.3 13.2 4.8 21.2 14.2 23.1 28.2 2.9 20.3-12.8 39.2-34.3 39.3-32 .1-64 .1-96.1 0-15-.1-26.8-10.6-29-25.4-.1-.3-.2-.7-.3-1v-6.1z"/>
  <defs>
    <linearGradient id="paint0_linear" x1="1" x2="161" y1=".048" y2="107.048" gradientUnits="userSpaceOnUse">
      <stop stop-color="#00FFEF"/>
      <stop offset="1" stop-color="#D424E3"/>
    </linearGradient>
  </defs>
</svg>
