<svg xmlns="http://www.w3.org/2000/svg" width="22" height="26" fill="none" viewBox="0 0 22 26">
  <defs/>
  <path fill="url(#paint0_linear)" d="M19.64 9.06a8.62 8.62 0 00-17.24 0c-1.24.16-2.4.96-2.4 2.82v4.5c0 2.1 1.48 2.88 2.88 2.88h1.38c.26 0 .48-.22.48-.48V9.52c0-.26-.22-.48-.48-.48h-.92A7.66 7.66 0 0111 1.38c4.22 0 7.66 3.44 7.66 7.66h-.92c-.26 0-.48.22-.48.48v9.26c0 .26.22.48.48.48h.92c-.14 3.3-1.72 4.06-4.88 4.2v-.32a.96.96 0 00-.96-.96H9.8a.96.96 0 00-.96.96v1.56c0 .52.42.96.96.96h3.02c.52 0 .96-.42.96-.96v-.28c3.04-.14 5.66-.76 5.82-5.2 1.239-.16 2.399-.96 2.399-2.82v-4.5c.04-1.88-1.12-2.68-2.36-2.84zm-15.86.9v8.34h-.94c-.7 0-1.92-.24-1.92-1.92v-4.5c0-1.66 1.2-1.92 1.92-1.92h.94zm9.08 14.02v.72H9.84v-1.56h3.02v.84zm8.219-7.58c0 1.66-1.2 1.92-1.92 1.92h-.92V10h.94c.7 0 1.92.24 1.92 1.92l-.02 4.48z"/>
  <defs>
    <linearGradient id="paint0_linear" x1="22.228" x2=".383" y1="16.289" y2="9.993" gradientUnits="userSpaceOnUse">
      <stop stop-color="#00B3BE"/>
      <stop offset=".46" stop-color="#5E5DA5"/>
      <stop offset=".998" stop-color="#784996"/>
    </linearGradient>
  </defs>
</svg>
