<svg width="59" height="58" viewBox="0 0 59 58" fill="none" xmlns="http://www.w3.org/2000/svg">
<path d="M5.51843 26.061C6.9866 17.7891 12.8235 10.9854 20.5582 8.19232L20.2001 8.83688C19.6988 9.73211 19.9853 10.8422 20.8805 11.3435C21.167 11.5226 21.4892 11.5942 21.8115 11.5942C22.4561 11.5942 23.0648 11.2719 23.3871 10.6631L25.9296 6.29445C26.1802 5.86474 26.2518 5.36341 26.1086 4.89789C25.9654 4.43238 25.6789 4.03848 25.2492 3.78782L20.8447 1.24537C19.9495 0.744049 18.8394 1.03052 18.3381 1.92574C17.8367 2.82097 18.1232 3.93105 19.0184 4.43237L19.4839 4.68304C10.4601 7.87004 3.62056 15.7838 1.90172 25.4165C1.07812 30.0716 1.50782 34.87 3.11923 39.3104C3.4057 40.0623 4.08607 40.5279 4.83806 40.5279C5.05292 40.5279 5.26777 40.4921 5.48262 40.4204C6.44947 40.0623 6.91498 39.0239 6.5927 38.057C5.16034 34.2255 4.80225 30.0716 5.51843 26.061Z" stroke="#6E5FA7" stroke-miterlimit="10"/>
<path d="M48.8473 44.8249C48.0595 44.1803 46.9137 44.2877 46.2691 45.0397C40.9335 51.3779 32.5542 54.4575 24.3898 52.9893C20.415 52.2731 16.7267 50.5901 13.6471 48.0477H14.22C15.2227 48.0477 16.0463 47.2241 16.0463 46.2214C16.0463 45.2188 15.2227 44.3951 14.22 44.3951H9.35C8.88448 44.3593 8.38316 44.5026 7.98926 44.8249C7.59536 45.1471 7.38051 45.5768 7.3447 46.0424C7.3447 46.0782 7.3447 46.1498 7.3447 46.1856V46.2214V51.2705C7.3447 52.2731 8.1683 53.0967 9.17095 53.0967C10.1736 53.0967 10.9972 52.2731 10.9972 51.2705V50.6259C14.6139 53.6697 19.0184 55.7466 23.7094 56.606C25.2492 56.8925 26.8248 56.9999 28.3646 56.9999C36.2426 56.9999 43.8699 53.5264 49.0264 47.3673C49.7426 46.6511 49.6351 45.4694 48.8473 44.8249Z" stroke="#6E5FA7" stroke-miterlimit="10"/>
<path d="M58.0144 35.4788C57.5131 34.5835 56.403 34.2971 55.5078 34.7984L54.899 35.1565C54.9349 35.0132 54.9707 34.9058 54.9707 34.7626C56.224 27.6724 54.6484 20.5106 50.4945 14.6379C46.3407 8.76523 40.1815 4.79043 33.0914 3.57293C32.0887 3.39388 31.1577 4.07425 30.9786 5.0769C30.7996 6.07956 31.48 7.01059 32.4826 7.18964C38.6059 8.26391 43.9415 11.6658 47.5224 16.7506C51.0675 21.8355 52.464 27.9947 51.3898 34.118L51.1033 33.6525C50.602 32.7573 49.4919 32.4708 48.5967 32.9721C47.7014 33.4734 47.415 34.5835 47.9163 35.4788L50.4587 39.8474C50.7094 40.2772 51.1033 40.5636 51.5688 40.7069C51.712 40.7427 51.8911 40.7785 52.0343 40.7785C52.3566 40.7785 52.6789 40.7069 52.9654 40.5278L57.3341 37.9854C58.1935 37.4841 58.5158 36.3382 58.0144 35.4788Z" stroke="#6E5FA7" stroke-miterlimit="10"/>
<path d="M38.8924 21.0836H17.98C17.6219 21.0836 17.2996 21.3701 17.2996 21.764V34.1539C17.2996 34.512 17.5861 34.8343 17.98 34.8343H38.9282C39.2863 34.8343 39.6086 34.5478 39.6086 34.1539V21.764C39.5728 21.3701 39.2505 21.0836 38.8924 21.0836ZM38.9999 34.1181C38.9999 34.1539 38.964 34.2255 38.8924 34.2255H17.98C17.9442 34.2255 17.8725 34.1897 17.8725 34.1181V21.7282C17.8725 21.6924 17.9083 21.6208 17.98 21.6208H38.9282C38.964 21.6208 39.0357 21.6566 39.0357 21.7282V34.1181H38.9999Z" stroke="#6E5FA7" stroke-miterlimit="10"/>
<path d="M41.5423 35.2281H40.8619V21.4416C40.8619 20.5106 40.1099 19.7944 39.2147 19.7944H17.6577C16.7267 19.7944 16.0105 20.5464 16.0105 21.4416V35.2281H15.3301C15.0794 35.2281 14.9004 35.4072 14.9004 35.6578V36.8395C14.9004 37.6273 15.545 38.2361 16.2969 38.2361H40.6113C41.3991 38.2361 42.0078 37.5915 42.0078 36.8395V35.6578C41.972 35.443 41.793 35.2281 41.5423 35.2281ZM16.8699 21.4416C16.8699 21.0119 17.228 20.6538 17.6577 20.6538H39.2147C39.6444 20.6538 40.0025 21.0119 40.0025 21.4416V35.2281H16.8699V21.4416ZM27.1471 36.1233H29.6895V36.3382C29.6895 36.4456 29.6179 36.5172 29.5105 36.5172H27.3261C27.2187 36.5172 27.1471 36.4456 27.1471 36.3382V36.1233ZM41.1126 36.8753C41.1126 37.1618 40.8619 37.4125 40.5755 37.4125H16.2611C15.9747 37.4125 15.724 37.1618 15.724 36.8753V36.1233H16.4044H26.5741V36.3382C26.5741 36.7679 26.9322 37.0902 27.3261 37.0902H29.5105C29.9402 37.0902 30.2625 36.7321 30.2625 36.3382V36.1233H40.3964H41.0768V36.8753H41.1126Z" stroke="#6E5FA7" stroke-miterlimit="10"/>
</svg>
