<svg width="64" height="58" viewBox="0 0 64 58" fill="none" xmlns="http://www.w3.org/2000/svg">
<path d="M11.3874 21.8994C17.1129 21.8994 21.7744 26.5102 21.8251 32.3371C21.8251 38.2146 17.3156 42.7748 11.4381 42.7748C5.6619 42.7748 1.00041 38.1133 1.00041 32.3878C0.949741 26.5609 5.61123 21.8994 11.3874 21.8994Z" stroke="#6E5FA7" stroke-miterlimit="10"/>
<path d="M17.0116 49.2606C17.0116 50.3247 17.0116 51.2367 17.0116 52.1487C17.0116 52.4527 17.0116 52.7061 16.9609 53.0101C16.8596 53.5168 16.5049 53.7701 16.0489 53.7194C15.5422 53.7194 15.1369 53.4154 15.1369 52.9087C15.0862 50.882 15.0355 48.8046 15.0355 46.7779C15.0355 46.2712 15.5422 45.8658 16.1502 45.9165C18.0756 45.9672 20.001 46.0685 21.9264 46.1192C22.5344 46.1698 22.8891 46.5245 22.8891 47.1325C22.8891 47.6899 22.4838 48.0952 21.8758 48.0952C21.0651 48.0952 20.2544 48.0446 19.4437 47.9939C19.1903 47.9939 18.937 47.9939 18.5823 48.1459C19.4437 48.8553 20.2544 49.6153 21.1664 50.274C24.4598 52.7567 28.1586 54.3781 32.3134 54.8848C38.343 55.6955 43.9671 54.3781 49.0846 51.186C55.2155 47.3352 58.965 41.711 60.3837 34.6175C60.4344 34.3135 60.485 34.0094 60.5357 33.7054C60.6877 33.0467 61.0931 32.7934 61.7011 32.8947C62.2078 32.9961 62.6131 33.4521 62.5118 34.0094C62.3091 35.1748 62.1064 36.3402 61.8024 37.4549C58.6103 47.7406 51.6181 54.1248 41.1804 56.3542C32.2628 58.2796 24.3585 55.8475 17.569 49.7673C17.3663 49.5646 17.2649 49.4633 17.0116 49.2606Z" stroke="#6E5FA7" stroke-miterlimit="10"/>
<path d="M9.91804 20.0247C13.0088 10.8538 19.0383 4.77357 28.3106 2.13882C37.5323 -0.495937 45.8926 1.48013 53.3915 7.66167C53.3915 6.54697 53.3915 5.58426 53.3915 4.5709C53.3915 4.01355 53.7461 3.55753 54.2528 3.55753C54.5568 3.55753 54.9115 3.91221 55.2155 4.16555C55.3169 4.26689 55.3169 4.46956 55.3169 4.62157C55.3675 6.44563 55.4182 8.32035 55.4182 10.1444C55.4182 11.1071 55.1142 11.4618 54.1008 11.4111C52.2768 11.3605 50.4527 11.3098 48.6286 11.2591C47.8686 11.2591 47.4633 10.8538 47.4633 10.2457C47.4633 9.63773 47.8686 9.28305 48.6286 9.28305C49.7433 9.28305 50.9087 9.28305 52.1754 9.28305C51.2127 8.5737 50.402 7.86434 49.49 7.30698C46.5006 5.28025 43.2578 3.96288 39.711 3.40552C33.6815 2.49349 28.0573 3.55753 22.8385 6.69897C17.7716 9.6884 14.2248 14.0459 12.1981 19.6194C12.0461 20.0754 11.8434 20.1767 11.3874 20.1261C10.9821 19.9741 10.5261 20.0247 9.91804 20.0247Z" stroke="#6E5FA7" stroke-miterlimit="10"/>
<path d="M37.583 27.6755C41.5351 27.6755 44.7272 24.4834 44.6765 20.5313C44.6765 16.5792 41.4338 13.3871 37.4816 13.3871C33.5295 13.4377 30.3374 16.6805 30.3881 20.582C30.3881 24.5341 33.5802 27.6755 37.583 27.6755ZM37.5323 11.4617C42.4978 11.4617 46.6526 15.6165 46.6019 20.582C46.6019 25.5475 42.4471 29.7023 37.4816 29.6516C32.4655 29.6009 28.3613 25.4968 28.412 20.5313C28.412 15.5658 32.5668 11.4617 37.5323 11.4617Z" stroke="#6E5FA7" stroke-miterlimit="10"/>
<path d="M37.5323 32.5398C43.1565 32.8438 47.4126 35.3266 50.0474 40.3934C50.1487 40.5961 50.3514 40.8494 50.3514 41.0014C50.3007 41.5081 50.098 42.0148 49.9967 42.5215C49.5407 42.2681 48.9326 42.1668 48.6286 41.7614C47.8686 40.7481 47.4126 39.5827 46.6019 38.62C40.9777 32.0838 30.54 33.4518 26.7399 41.2041C26.4359 41.8628 26.1826 42.9268 25.1692 42.4201C24.0545 41.9134 24.7132 41.0014 25.0679 40.2921C27.6013 35.3266 31.8574 32.8438 37.5323 32.5398Z" stroke="#6E5FA7" stroke-miterlimit="10"/>
<path d="M19.089 28.0811C15.6942 31.8306 12.2994 35.5294 8.90466 39.2788C7.02994 37.5054 5.20588 35.7827 3.33115 34.0093C3.68583 33.604 4.0405 33.2493 4.44585 32.8439C5.91523 34.212 7.33395 35.58 8.80333 36.9987C11.8434 33.7053 14.8329 30.3612 17.873 27.0677C18.2783 27.3718 18.6837 27.7264 19.089 28.0811Z" stroke="#6E5FA7" stroke-miterlimit="10"/>
</svg>
