<svg width="65" height="56" viewBox="0 0 65 56" fill="none" xmlns="http://www.w3.org/2000/svg">
<path fill-rule="evenodd" clip-rule="evenodd" d="M46.8951 0.0151666L17.3222 0.0151692C17.1541 -0.00599694 16.9835 -0.00574964 16.8147 0.0161924C16.5532 0.0501851 16.301 0.135572 16.0726 0.267437C15.8442 0.399303 15.6442 0.575044 15.484 0.784539C15.3865 0.911975 15.305 1.05037 15.2409 1.19663L0.622733 26.5213C0.483991 26.653 0.364578 26.8043 0.268427 26.9706C0.133456 27.2041 0.0471131 27.4625 0.0145917 27.7302C0.00317813 27.8242 -0.00152345 27.9186 0.000429786 28.0128C-0.00152199 28.107 0.00317978 28.2014 0.0145922 28.2954C0.0471137 28.5631 0.133457 28.8215 0.268428 29.055C0.365253 29.2225 0.485668 29.3747 0.625657 29.5071L15.3297 54.9999C15.5052 55.3039 15.7577 55.5564 16.0616 55.7319C16.3656 55.9074 16.7105 55.9998 17.0615 55.9998L47.0575 55.9998H47.0581C46.7073 55.9997 46.3627 55.9073 46.0589 55.7319L39.5996 52.0003H45.074V54.0001C45.074 54.5304 45.2847 55.0391 45.6597 55.4141C46.0327 55.7871 46.5379 55.9975 47.0651 55.9998L47.0657 55.9998L47.0737 55.9998C47.6041 55.9998 48.1127 55.7891 48.4877 55.4141C48.8628 55.0391 49.0734 54.5304 49.0734 54.0001V47.7624L63.4422 29.4533C63.4546 29.4415 63.4668 29.4296 63.4789 29.4175C63.8539 29.0425 64.0646 28.5338 64.0646 28.0035C64.0646 27.6009 63.9432 27.2108 63.7207 26.8822L48.8671 1.12219C48.7713 0.928004 48.6437 0.748885 48.4877 0.592887C48.1127 0.217863 47.6041 0.00717884 47.0737 0.00717889C47.0138 0.00717889 46.9542 0.00986368 46.8951 0.0151666Z" fill="url(#paint0_linear)"/>
<defs>
<linearGradient id="paint0_linear" x1="-4.91734e-07" y1="5.62246e-07" x2="64.0002" y2="56.0013" gradientUnits="userSpaceOnUse">
<stop stop-color="#AB35E5"/>
<stop offset="1" stop-color="#00B3BF"/>
</linearGradient>
</defs>
</svg>
