<svg xmlns="http://www.w3.org/2000/svg" width="57" height="56" fill="none" viewBox="0 0 57 56">
  <defs/>
  <path fill="#6E5FA7" d="M28.5 0a5.6 5.6 0 100 11.2 5.6 5.6 0 000-11.2zm0 9.333a3.733 3.733 0 110-7.466 3.733 3.733 0 010 7.466zM32.233 12.133h-.22l-.198.098a7.44 7.44 0 01-6.631 0l-.197-.098h-.22A4.673 4.673 0 0020.1 16.8v5.6a2.8 2.8 0 002.8 2.8h11.2a2.8 2.8 0 002.8-2.8v-5.6a4.673 4.673 0 00-4.667-4.667zm2.8 10.267a.933.933 0 01-.933.933H22.9a.933.933 0 01-.934-.933v-5.6a2.8 2.8 0 012.602-2.793 9.334 9.334 0 007.863 0 2.8 2.8 0 012.602 2.793v5.6zM48.1 30.8a5.6 5.6 0 100 11.2 5.6 5.6 0 000-11.2zm0 9.333a3.733 3.733 0 110-7.466 3.733 3.733 0 010 7.466zM51.834 42.933h-.221l-.197.094a7.44 7.44 0 01-6.631 0l-.198-.094h-.22A4.673 4.673 0 0039.7 47.6v5.6a2.8 2.8 0 002.8 2.8h11.2a2.8 2.8 0 002.8-2.8v-5.6a4.672 4.672 0 00-4.666-4.667zm2.8 10.267a.933.933 0 01-.934.933H42.5a.934.934 0 01-.933-.933v-5.6a2.8 2.8 0 012.602-2.793 9.334 9.334 0 007.863 0 2.8 2.8 0 012.602 2.793v5.6zM8.9 30.8a5.6 5.6 0 100 11.2 5.6 5.6 0 000-11.2zm0 9.333a3.734 3.734 0 110-7.467 3.734 3.734 0 010 7.467zM12.633 42.933h-.22l-.197.094a7.44 7.44 0 01-6.632 0l-.197-.094h-.22A4.673 4.673 0 00.5 47.6v5.6A2.8 2.8 0 003.3 56h11.2a2.8 2.8 0 002.8-2.8v-5.6a4.672 4.672 0 00-4.667-4.667zm2.8 10.267a.933.933 0 01-.933.933H3.3a.933.933 0 01-.933-.933v-5.6a2.8 2.8 0 012.601-2.793 9.334 9.334 0 007.864 0 2.8 2.8 0 012.601 2.793v5.6zM37.76 47.4a.934.934 0 00-1.226-.5 20.703 20.703 0 01-13.313.917l.874-.257a.934.934 0 00-.525-1.792l-3.733 1.095c-.014 0-.023.016-.037.02a.952.952 0 00-.24.134.69.69 0 00-.094.06.91.91 0 00-.233.317.946.946 0 00-.072.385c.023.126.055.25.094.373 0 .013 0 .028.01.04l1.867 3.573a.934.934 0 101.655-.864l-.76-1.453a22.466 22.466 0 0015.232-.828.933.933 0 00.5-1.22zM53.427 24.54a.932.932 0 00-1.32 0l-1.323 1.32A22.368 22.368 0 0037.267 7.38a.935.935 0 00-.733 1.72A20.502 20.502 0 0148.88 25.593l-1.05-1.05a.934.934 0 00-1.32 1.32l2.8 2.8a.934.934 0 001.32 0l2.8-2.8a.935.935 0 00-.003-1.323zM21.006 8.081a.942.942 0 00-.024-.16c0-.009-.01-.015-.014-.024a.054.054 0 010-.023.967.967 0 00-.088-.13 1.059 1.059 0 00-.106-.154.96.96 0 00-.182-.123.743.743 0 00-.105-.076l-3.733-1.705a.933.933 0 00-.775 1.697l1.933.884A22.368 22.368 0 006.1 28a.934.934 0 001.866 0 20.502 20.502 0 0110.101-17.681l-.674 1.41a.934.934 0 001.336 1.194.933.933 0 00.344-.386l1.867-3.894a.045.045 0 01.007-.03.873.873 0 00.05-.197c.017-.05.028-.102.036-.154a.936.936 0 00-.027-.18z"/>
</svg>
