<svg width="56" height="58" viewBox="0 0 56 58" fill="none" xmlns="http://www.w3.org/2000/svg">
<path d="M55.1127 35.0686C55.1127 31.3916 53.3881 28.1377 50.7199 26.0552V23.0941C50.7199 10.9245 40.828 1 28.6258 1C16.4561 1 6.53167 10.8919 6.53167 23.0941V25.2743C3.21267 27.2917 1 30.9361 1 35.1011C1 41.4462 6.1412 46.5875 12.4863 46.5875V23.6473C11.6729 23.6473 10.8594 23.7449 10.111 23.9076V23.1592C10.111 12.9419 18.4085 4.64439 28.6258 4.64439C38.8431 4.64439 47.1406 12.9419 47.1406 23.1592V24.233C46.0343 23.8751 44.8629 23.6798 43.6264 23.6798V46.62C44.3748 46.62 45.0906 46.5549 45.8065 46.3922C44.6351 48.8652 41.9994 52.6072 36.3701 53.6485C36.0122 53.2254 35.4916 52.9651 34.8733 52.9651H31.294C30.1877 52.9651 29.2766 53.8762 29.2766 54.9826C29.2766 56.0889 30.1877 57 31.294 57H34.8733C35.7193 57 36.4678 56.4468 36.7606 55.6984C44.6676 54.2016 47.4986 48.0843 48.3446 45.5787C52.3144 43.724 55.1127 39.7217 55.1127 35.0686Z" stroke="white" stroke-width="0.75" stroke-miterlimit="10"/>
</svg>
