<svg width="80" height="83" viewBox="0 0 80 83" fill="none" xmlns="http://www.w3.org/2000/svg">
<path d="M79 50.1076C79 44.8076 76.5141 40.1173 72.6681 37.1155V32.8473C72.6681 15.3055 58.4095 1 40.8208 1C23.279 1 8.97354 15.2586 8.97354 32.8473V35.9898C4.18942 38.8978 1 44.1509 1 50.1545C1 59.3007 8.4107 66.7114 17.5568 66.7114V33.6446C16.3842 33.6446 15.2117 33.7853 14.1329 34.0198V32.9411C14.1329 18.2135 26.0932 6.25316 40.8208 6.25316C55.5484 6.25316 67.5087 18.2135 67.5087 32.9411V34.4889C65.914 33.9729 64.2255 33.6915 62.4432 33.6915V66.7583C63.5219 66.7583 64.5538 66.6645 65.5857 66.4299C63.8972 69.9946 60.098 75.3885 51.9838 76.8894C51.4678 76.2796 50.7174 75.9044 49.8262 75.9044H44.6669C43.0722 75.9044 41.7589 77.2177 41.7589 78.8124C41.7589 80.4071 43.0722 81.7204 44.6669 81.7204H49.8262C51.0457 81.7204 52.1245 80.923 52.5466 79.8443C63.9441 77.6867 68.0246 68.8689 69.2441 65.2574C75.0132 62.5839 79 56.8148 79 50.1076Z" stroke="#6E5FA7" stroke-miterlimit="10"/>
</svg>
