<svg width="56" height="56" viewBox="0 0 56 56" fill="none" xmlns="http://www.w3.org/2000/svg">
<path d="M54.3594 0H1.64062C1.2055 0 0.788205 0.173189 0.480528 0.481468C0.172851 0.789747 0 1.20786 0 1.64384L0 54.3562C0 54.7921 0.172851 55.2103 0.480528 55.5185C0.788205 55.8268 1.2055 56 1.64062 56H54.3594C54.7945 56 55.2118 55.8268 55.5195 55.5185C55.8271 55.2103 56 54.7921 56 54.3562V1.64384C56 1.20786 55.8271 0.789747 55.5195 0.481468C55.2118 0.173189 54.7945 0 54.3594 0ZM52.7188 26.411H46.1562C45.286 26.411 44.4514 26.7573 43.8361 27.3739C43.2207 27.9905 42.875 28.8267 42.875 29.6986V31.5014C42.875 31.9519 42.6964 32.3839 42.3785 32.7025C42.0605 33.021 41.6293 33.2 41.1797 33.2C40.7301 33.2 40.2989 33.021 39.9809 32.7025C39.663 32.3839 39.4844 31.9519 39.4844 31.5014V29.6986C39.4844 28.8267 39.1387 27.9905 38.5233 27.3739C37.908 26.7573 37.0734 26.411 36.2031 26.411H29.6406V19.8356H31.4398C32.7597 19.8356 34.0255 19.3103 34.9588 18.3752C35.8921 17.44 36.4164 16.1718 36.4164 14.8493C36.4164 13.5269 35.8921 12.2586 34.9588 11.3235C34.0255 10.3884 32.7597 9.86301 31.4398 9.86301H29.6406V3.28767H52.7188V26.411ZM3.28125 3.28767H26.3594V9.86301C26.3594 10.735 26.7051 11.5712 27.3204 12.1877C27.9358 12.8043 28.7704 13.1507 29.6406 13.1507H31.4398C31.8895 13.1507 32.3207 13.3296 32.6386 13.6482C32.9565 13.9668 33.1352 14.3988 33.1352 14.8493C33.1352 15.2998 32.9565 15.7319 32.6386 16.0504C32.3207 16.369 31.8895 16.5479 31.4398 16.5479H29.6406C28.7704 16.5479 27.9358 16.8943 27.3204 17.5109C26.7051 18.1274 26.3594 18.9637 26.3594 19.8356V26.411H3.28125V3.28767ZM3.28125 29.6986H26.3594V36.274H24.5547C23.2348 36.274 21.969 36.7993 21.0357 37.7344C20.1024 38.6695 19.5781 39.9378 19.5781 41.2603C19.5781 42.5827 20.1024 43.851 21.0357 44.7861C21.969 45.7212 23.2348 46.2466 24.5547 46.2466H26.3594V52.7123H3.28125V29.6986ZM52.7188 52.7123H29.6406V46.2466C29.6406 45.3746 29.2949 44.5384 28.6796 43.9218C28.0642 43.3053 27.2296 42.9589 26.3594 42.9589H24.5547C24.1051 42.9589 23.6739 42.7799 23.3559 42.4614C23.038 42.1428 22.8594 41.7108 22.8594 41.2603C22.8594 40.8098 23.038 40.3777 23.3559 40.0592C23.6739 39.7406 24.1051 39.5616 24.5547 39.5616H26.3594C27.2296 39.5616 28.0642 39.2153 28.6796 38.5987C29.2949 37.9821 29.6406 37.1459 29.6406 36.274V29.6986H36.2031V31.5014C36.2031 32.8238 36.7274 34.0921 37.6607 35.0272C38.594 35.9623 39.8598 36.4877 41.1797 36.4877C42.4996 36.4877 43.7654 35.9623 44.6987 35.0272C45.6319 34.0921 46.1562 32.8238 46.1562 31.5014V29.6986H52.7188V52.7123Z" fill="white"/>
</svg>
