<svg width="58" height="58" viewBox="0 0 58 58" fill="none" xmlns="http://www.w3.org/2000/svg">
<path d="M49.7549 22.1077L35.8685 8.23692L8.18203 35.8923C12.8396 40.5446 17.454 45.1539 22.0684 49.7631L49.7549 22.1077ZM50.0568 13.4062C50.5743 13.9231 51.2643 14.1815 51.0056 15.0862C50.8762 15.56 51.4368 15.9046 51.9974 15.7754C52.6875 15.6462 53.1187 16.0769 52.9893 16.7662C52.86 17.4554 53.2912 17.8862 54.0243 17.7569C54.6281 17.6277 55.1025 18.1446 54.9731 18.7477C54.8437 19.3508 55.2319 19.8246 55.7925 19.7815C56.5688 19.7385 56.5687 19.7385 57 20.3846C44.7955 32.5754 32.591 44.7662 20.3434 57C19.9121 56.6985 19.4809 56.4831 19.7396 55.7939C19.9553 55.1908 19.3515 54.76 18.7046 54.9323C18.1009 55.1046 17.6265 54.6308 17.7559 53.9846C17.9284 53.2092 17.454 52.7785 16.6777 52.9508C16.1171 53.08 15.6427 52.6062 15.7721 52.0462C15.9446 51.4 15.5134 50.7969 14.9958 50.9692C14.3058 51.2277 14.0471 50.7969 13.659 50.4092C13.5727 50.3231 13.4865 50.1938 13.3571 50.0646C13.5296 49.8492 13.7021 49.5908 13.8746 49.3754C14.8665 47.8677 14.5646 45.7138 13.1846 44.4646C11.8908 43.2585 9.77767 43.1723 8.31141 44.2492C8.13891 44.3785 7.70765 44.5077 7.66453 44.4215C7.40577 44.0769 6.71577 43.9477 6.88827 43.3015C7.1039 42.44 6.67264 42.0092 5.81013 42.2246C5.33575 42.3539 4.81825 41.7939 4.94762 41.3631C5.16325 40.5015 4.732 40.0708 3.86949 40.2862C3.35198 40.4154 2.83448 39.8554 2.96386 39.3385C3.17949 38.52 2.66198 38.0462 1.88572 38.3046C1.36822 38.4769 1.23884 38.0462 1.02322 37.8308C0.936965 37.7446 1.10947 37.4 1.23884 37.2708C9.51892 28.9569 17.8421 20.6431 26.1653 12.3723C29.7879 8.75385 33.3673 5.17846 36.9898 1.56L37.5504 1C37.9817 1.34462 38.4561 1.51692 38.1973 2.20616C38.0248 2.72308 38.5854 3.15385 39.1461 3.06769C39.8361 2.93846 40.2673 3.36923 40.1811 4.05846C40.0517 4.74769 40.483 5.17847 41.2161 5.04923C41.7767 4.92 42.2942 5.43693 42.1649 5.99693C42.0355 6.77231 42.4236 7.20308 43.1567 7.03077C43.8467 6.85846 43.9761 7.50462 44.3643 7.80616C44.4505 7.84923 44.278 8.32308 44.1486 8.49539C43.1136 9.96 43.2861 12.1138 44.5799 13.4062C45.9168 14.7415 48.0299 14.9569 49.5393 13.88C49.7118 13.6646 49.8843 13.5354 50.0568 13.4062Z" stroke="#6E5FA7" stroke-miterlimit="10"/>
</svg>
