<svg xmlns="http://www.w3.org/2000/svg" width="136" height="136" fill="none" viewBox="0 0 136 136">
  <defs/>
  <path fill="url(#paint0_linear)" d="M111.9 54c0 1.6-1.3 2.8-2.8 2.8H72.7c-1.6 0-2.9-1.3-2.9-2.8V43c0-1.6 1.3-2.8 2.9-2.8h36.4c1.6 0 2.8 1.3 2.8 2.8v11zm0 20.7c0 1.6-1.3 2.9-2.8 2.9H95.4c-1.6 0-2.8-1.3-2.8-2.9V63.8c0-1.6 1.3-2.8 2.8-2.8h13.7c1.6 0 2.8 1.3 2.8 2.8v10.9zm0 20.7c0 1.6-1.3 2.9-2.8 2.9H72.7c-1.6 0-2.9-1.3-2.9-2.9V84.5c0-1.6 1.3-2.8 2.9-2.8h36.4c1.6 0 2.8 1.3 2.8 2.8v10.9zM49.6 77.5c-1.6 0-2.8-1.3-2.8-2.9V63.7c0-1.6 1.3-2.8 2.8-2.8H86c1.6 0 2.8 1.3 2.8 2.8v10.9c0 1.6-1.3 2.9-2.8 2.9H49.6zm16.2 17.9c0 1.6-1.3 2.9-2.8 2.9H26.6c-1.6 0-2.8-1.3-2.8-2.9V84.5c0-1.6 1.3-2.8 2.8-2.8H63c1.6 0 2.8 1.3 2.8 2.8v10.9zM23.7 63.8c0-1.6 1.3-2.8 2.8-2.8h13.7c1.6 0 2.8 1.3 2.8 2.8v10.9c0 1.6-1.3 2.9-2.8 2.9H26.5c-1.6 0-2.8-1.3-2.8-2.9V63.8zm0-20.8c0-1.6 1.3-2.8 2.8-2.8h36.4c1.6 0 2.8 1.3 2.8 2.8v11c0 1.6-1.3 2.8-2.8 2.8H26.5c-1.6 0-2.8-1.3-2.8-2.8V43zM67.8 0C30.4 0 0 30.4 0 67.8s30.4 67.8 67.8 67.8c37.5 0 67.8-30.4 67.8-67.8C135.6 30.3 105.2 0 67.8 0z"/>
  <defs>
    <linearGradient id="paint0_linear" x1="-.036" x2="135.591" y1="67.774" y2="67.774" gradientUnits="userSpaceOnUse">
      <stop stop-color="#00B4C2"/>
      <stop offset=".525" stop-color="#5962A0"/>
      <stop offset="1" stop-color="#A51B82"/>
    </linearGradient>
  </defs>
</svg>
