<svg width="168" height="123" viewBox="0 0 168 123" fill="none" xmlns="http://www.w3.org/2000/svg">
<path d="M55.3 28.1475C55 28.0475 54.7 27.8475 54.5 27.8475C46.3 25.7475 37.6 30.7475 35.3 38.9475C34.2 42.8475 34.6 46.6475 36.3 50.3475C37.4 52.7475 36.1 54.5475 33.5 54.3475C33.1 54.3475 32.8 54.2475 32.4 54.2475C16.2 52.0475 2.5 66.8475 5.9 82.8475C8.3 94.4475 17.9 102.048 30.1 102.048C61.6 102.048 93.1 102.048 124.6 102.048C126.3 102.048 127.9 101.948 129.6 101.748C146.3 99.2476 157.3 83.4475 154.1 67.4475C151.9 56.3475 145.4 48.7475 134.8 45.0475C124 41.3475 114 43.5475 105.5 51.1475C99.3 56.7475 96.3 63.9475 96 72.3475C95.9 74.2475 94.9 75.3475 93.3 75.3475C91.7 75.3475 90.7 74.1475 90.7 72.3475C90.7 71.2475 90.8 70.0475 90.9 68.9475C92.3 53.5475 105.3 40.2475 120.6 38.4475C123 38.1475 125.3 38.1475 127.9 37.9475C127.7 36.6475 127.6 35.3475 127.3 34.0475C123.3 14.7475 105.4 3.04754 86 6.84754C68.9 10.2475 56.4 27.7475 59 44.9475C59.4 47.6475 60.3 50.2475 60.9 52.9475C61.2 54.1475 61.2 55.4475 60 56.0475C59.2 56.4475 58 56.5475 57.1 56.2475C56.4 56.0475 55.9 54.9475 55.6 54.2475C52.7 45.6475 52.6 37.0475 55.3 28.1475ZM0 75.0475C0.4 73.4475 0.6 71.8475 1.1 70.2475C4.6 57.6475 15.7 49.1475 28.8 48.8475C29.2 48.8475 29.5 48.7475 29.9 48.7475C26.2 32.1475 41 18.1475 57.1 23.0475C59 20.2475 60.7 17.4475 62.9 14.8475C69.4 7.04754 77.9 2.34754 88 1.04754C110.4 -1.85246 129.7 13.7475 132.9 34.6475C133 35.0475 133.1 35.3475 133.1 35.7475C132.7 38.4475 134.3 39.1475 136.6 40.0475C149.8 44.8475 157.8 54.2475 159.7 68.2475C162.6 88.5475 146.9 107.448 125.4 107.548C93.4 107.648 61.4 107.648 29.3 107.548C14.3 107.448 2.5 96.9475 0.3 82.1475C0.2 81.8475 0.1 81.4475 0 81.1475V75.0475H0Z" fill="url(#paint0_linear)"/>
<path d="M81.0016 83.4475C77.2016 83.4475 74.1016 86.5475 74.1016 90.3475V114.348C74.1016 118.148 77.2016 121.248 81.0016 121.248H159.502C163.302 121.248 166.402 118.148 166.402 114.348V90.3475C166.402 86.5475 163.302 83.4475 159.502 83.4475H81.0016Z" stroke="url(#paint1_linear)" stroke-width="3"/>
<path d="M94.0008 96.2475C93.6008 96.0475 93.1008 96.1475 92.8008 96.5475L82.9008 113.347C82.7008 113.747 82.8008 114.247 83.2008 114.547C83.6008 114.747 84.1008 114.647 84.4008 114.247L94.3008 97.4474C94.5008 97.0474 94.4008 96.5475 94.0008 96.2475Z" fill="url(#paint2_linear)"/>
<path d="M104.399 96.2475C103.999 96.0475 103.499 96.1475 103.199 96.5475L93.2992 113.347C93.0992 113.747 93.1992 114.247 93.5992 114.547C93.9992 114.747 94.4992 114.647 94.7992 114.247L104.699 97.4474C104.899 97.0474 104.799 96.5475 104.399 96.2475Z" fill="url(#paint3_linear)"/>
<path d="M114.7 96.2475C114.3 96.0475 113.8 96.1475 113.5 96.5475L103.6 113.347C103.4 113.747 103.5 114.247 103.9 114.547C104.3 114.747 104.8 114.647 105.1 114.247L115 97.4474C115.3 97.0474 115.2 96.5475 114.7 96.2475Z" fill="url(#paint4_linear)"/>
<path d="M125.098 96.2475C124.698 96.0475 124.198 96.1475 123.898 96.5475L113.998 113.347C113.798 113.747 113.898 114.247 114.298 114.547C114.698 114.747 115.198 114.647 115.498 114.247L125.398 97.4474C125.698 97.0474 125.498 96.5475 125.098 96.2475Z" fill="url(#paint5_linear)"/>
<path d="M154.599 104.647C155.899 104.647 156.999 103.547 156.999 102.247C156.999 100.947 155.899 99.8474 154.599 99.8474C153.299 99.8474 152.199 100.947 152.199 102.247C152.199 103.547 153.199 104.647 154.599 104.647Z" fill="url(#paint6_linear)"/>
<defs>
<linearGradient id="paint0_linear" x1="-1.07453e-06" y1="0.999941" x2="160" y2="108" gradientUnits="userSpaceOnUse">
<stop stop-color="#00FFFF"/>
<stop offset="1" stop-color="#C036E2"/>
</linearGradient>
<linearGradient id="paint1_linear" x1="74" y1="82.9999" x2="166" y2="124" gradientUnits="userSpaceOnUse">
<stop stop-color="#00FFFF"/>
<stop offset="1" stop-color="#BF36E2"/>
</linearGradient>
<linearGradient id="paint2_linear" x1="88.6008" y1="96.1475" x2="88.6008" y2="114.647" gradientUnits="userSpaceOnUse">
<stop stop-color="#06FFFF"/>
<stop offset="1" stop-color="#BE37E2"/>
</linearGradient>
<linearGradient id="paint3_linear" x1="98.9992" y1="96.1475" x2="98.9992" y2="114.647" gradientUnits="userSpaceOnUse">
<stop stop-color="#06FFFF"/>
<stop offset="1" stop-color="#BE37E2"/>
</linearGradient>
<linearGradient id="paint4_linear" x1="109.334" y1="96.1475" x2="109.334" y2="114.647" gradientUnits="userSpaceOnUse">
<stop stop-color="#06FFFF"/>
<stop offset="1" stop-color="#BE37E2"/>
</linearGradient>
<linearGradient id="paint5_linear" x1="119.721" y1="96.1475" x2="119.721" y2="114.647" gradientUnits="userSpaceOnUse">
<stop stop-color="#06FFFF"/>
<stop offset="1" stop-color="#BE37E2"/>
</linearGradient>
<linearGradient id="paint6_linear" x1="154.599" y1="99.8474" x2="154.599" y2="104.647" gradientUnits="userSpaceOnUse">
<stop stop-color="#06FFFF"/>
<stop offset="1" stop-color="#BE37E2"/>
</linearGradient>
</defs>
</svg>
