<svg xmlns="http://www.w3.org/2000/svg" width="213" height="155" fill="none" viewBox="0 0 213 155">
  <defs/>
  <path fill="url(#paint0_linear)" d="M70.5 35.044c-.4-.2-.7-.3-1-.4-10.5-2.7-21.6 3.7-24.5 14.2-1.4 5-.9 9.8 1.2 14.5 1.4 3-.3 5.4-3.6 5.1-.5 0-.9-.1-1.4-.1-20.7-2.8-38.2 16-33.8 36.4 3.1 14.7 15.4 24.5 30.9 24.5h120.6c2.1 0 4.3-.1 6.4-.4 21.2-3.2 35.4-23.4 31.3-43.7-2.8-14.1-11.1-23.8-24.6-28.5-13.8-4.8-26.5-2-37.4 7.8-8 7.1-11.8 16.3-12.1 27-.1 2.4-1.4 3.8-3.4 3.8s-3.4-1.5-3.3-3.9c0-1.5.2-2.9.3-4.4 1.8-19.6 18.3-36.6 37.9-38.8 3-.4 6-.4 9.3-.6-.2-1.7-.4-3.3-.7-4.9-5.1-24.6-27.9-39.6-52.7-34.7-21.9 4.3-37.8 26.6-34.5 48.6.5 3.5 1.6 6.8 2.5 10.2.4 1.5.4 3.1-1.1 3.9-1 .5-2.6.7-3.7.3-.8-.3-1.5-1.6-1.9-2.6-4.1-11-4.1-22-.7-33.3zM0 94.744c.5-2.1.8-4.1 1.4-6.2 4.5-16.1 18.6-26.9 35.4-27.3.5 0 .9-.1 1.4-.1-4.8-21.1 14.2-38.9 34.7-32.7 2.5-3.5 4.7-7.2 7.4-10.4 8.3-10 19.1-15.9 32-17.6 28.6-3.7 53.2 16.2 57.3 42.8.1.5.3.9.2 1.4-.5 3.5 1.6 4.4 4.5 5.5 16.8 6.1 27 18.1 29.5 35.9 3.7 25.9-16.4 50-43.7 50.1-40.8.2-81.7.1-122.5 0-19.1-.1-34.1-13.5-37-32.4-.1-.4-.2-.9-.4-1.3v-7.7H0z"/>
  <path fill="#fff" d="M103.3 105.444c-4.8 0-8.8 3.9-8.8 8.8v30.6c0 4.8 3.9 8.8 8.8 8.8h100.2c4.8 0 8.8-3.9 8.8-8.8v-30.6c0-4.8-3.9-8.8-8.8-8.8H103.3z"/>
  <path stroke="url(#paint1_linear)" stroke-width="1.195" d="M103.3 105.444c-4.8 0-8.8 3.9-8.8 8.8v30.6c0 4.8 3.9 8.8 8.8 8.8h100.2c4.8 0 8.8-3.9 8.8-8.8v-30.6c0-4.8-3.9-8.8-8.8-8.8H103.3z"/>
  <path fill="url(#paint2_linear)" d="M119.8 121.844c-.5-.3-1.2-.1-1.5.4l-12.7 21.5c-.3.5-.1 1.2.4 1.5.5.3 1.2.1 1.5-.4l12.7-21.5c.3-.5.1-1.2-.4-1.5z"/>
  <path fill="url(#paint3_linear)" d="M133.1 121.844c-.5-.3-1.2-.1-1.5.4l-12.7 21.5c-.3.5-.1 1.2.4 1.5.5.3 1.2.1 1.5-.4l12.7-21.5c.3-.5.1-1.2-.4-1.5z"/>
  <path fill="url(#paint4_linear)" d="M146.3 121.844c-.5-.3-1.2-.1-1.5.4l-12.7 21.5c-.3.5-.1 1.2.4 1.5.5.3 1.2.1 1.5-.4l12.7-21.5c.3-.5.1-1.2-.4-1.5z"/>
  <path fill="url(#paint5_linear)" d="M159.6 121.844c-.5-.3-1.2-.1-1.5.4l-12.7 21.5c-.3.5-.1 1.2.4 1.5.5.3 1.2.1 1.5-.4l12.7-21.5c.3-.5.1-1.2-.4-1.5z"/>
  <path stroke="url(#paint6_linear)" stroke-miterlimit="10" d="M197.1 132.544c1.7 0 3.1-1.4 3.1-3.1 0-1.7-1.4-3.1-3.1-3.1-1.7 0-3.1 1.4-3.1 3.1 0 1.7 1.4 3.1 3.1 3.1z"/>
  <defs>
    <linearGradient id="paint0_linear" x1="-.012" x2="204.018" y1="68.071" y2="68.071" gradientUnits="userSpaceOnUse">
      <stop stop-color="#00B4C2"/>
      <stop offset=".525" stop-color="#5962A0"/>
      <stop offset="1" stop-color="#A51B82"/>
    </linearGradient>
    <linearGradient id="paint1_linear" x1="153.396" x2="153.396" y1="104.863" y2="154.139" gradientUnits="userSpaceOnUse">
      <stop stop-color="#00B4C2"/>
      <stop offset=".525" stop-color="#5962A0"/>
      <stop offset="1" stop-color="#A51B82"/>
    </linearGradient>
    <linearGradient id="paint2_linear" x1="105.514" x2="120.363" y1="133.561" y2="133.561" gradientUnits="userSpaceOnUse">
      <stop stop-color="#00B4C2"/>
      <stop offset=".525" stop-color="#5962A0"/>
      <stop offset="1" stop-color="#A51B82"/>
    </linearGradient>
    <linearGradient id="paint3_linear" x1="118.76" x2="133.609" y1="133.561" y2="133.561" gradientUnits="userSpaceOnUse">
      <stop stop-color="#00B4C2"/>
      <stop offset=".525" stop-color="#5962A0"/>
      <stop offset="1" stop-color="#A51B82"/>
    </linearGradient>
    <linearGradient id="paint4_linear" x1="132.005" x2="146.854" y1="133.561" y2="133.561" gradientUnits="userSpaceOnUse">
      <stop stop-color="#00B4C2"/>
      <stop offset=".525" stop-color="#5962A0"/>
      <stop offset="1" stop-color="#A51B82"/>
    </linearGradient>
    <linearGradient id="paint5_linear" x1="145.251" x2="160.1" y1="133.561" y2="133.561" gradientUnits="userSpaceOnUse">
      <stop stop-color="#00B4C2"/>
      <stop offset=".525" stop-color="#5962A0"/>
      <stop offset="1" stop-color="#A51B82"/>
    </linearGradient>
    <linearGradient id="paint6_linear" x1="193.525" x2="200.713" y1="129.453" y2="129.453" gradientUnits="userSpaceOnUse">
      <stop stop-color="#00B4C2"/>
      <stop offset=".525" stop-color="#5962A0"/>
      <stop offset="1" stop-color="#A51B82"/>
    </linearGradient>
  </defs>
</svg>
