<svg xmlns="http://www.w3.org/2000/svg" width="81" height="84" fill="none" viewBox="0 0 81 84">
  <defs/>
  <path stroke="#6E5FA7" stroke-miterlimit="10" stroke-width="1.38" d="M47.41 83H7.002A5.971 5.971 0 011 76.998v-10.82a5.971 5.971 0 016.002-6.003H47.41a5.971 5.971 0 016.002 6.002v10.82C53.497 80.296 50.792 83 47.41 83zm26.291-29.419H33.293a5.971 5.971 0 01-6.002-6.002V36.76c0-3.382 2.79-6.002 6.002-6.002H73.7a5.971 5.971 0 016.002 6.002v10.82c0 3.297-2.79 6.002-6.002 6.002zm-26.29-29.587H7.001A5.971 5.971 0 011 17.992V7.002A5.971 5.971 0 017.002 1H47.41a5.971 5.971 0 016.002 6.002v10.82c.085 3.467-2.62 6.172-6.002 6.172z"/>
</svg>
