<svg width="121" height="83" viewBox="0 0 121 83" fill="none" xmlns="http://www.w3.org/2000/svg">
<path d="M55.3008 73.1476C55.1008 74.7476 55.2008 74.8477 56.7008 74.8477C59.5008 74.8477 62.2008 74.8477 65.0008 74.8477C66.4008 74.8477 66.6008 74.6476 66.3008 73.1476H55.3008ZM52.4008 73.1476H4.70078C4.70078 73.9476 4.70078 74.6477 4.70078 75.3477C4.70078 78.0477 5.40078 78.7477 8.10078 78.7477C43.3008 78.7477 78.4008 78.7477 113.601 78.7477C114.001 78.7477 114.301 78.7477 114.701 78.7477C115.901 78.6477 116.801 77.9477 116.901 76.7477C117.001 75.5477 116.901 74.3476 116.901 73.1476H69.1008C69.1008 73.4476 69.1008 73.7477 69.1008 74.0477C69.0008 76.0477 67.7008 77.4477 65.7008 77.4477C62.5008 77.4477 59.3008 77.4477 56.1008 77.4477C54.9008 77.4477 53.9008 76.9477 53.4008 75.9477C52.8008 75.1477 52.7008 74.1476 52.4008 73.1476ZM112.001 69.1476V67.7477C112.001 48.2477 112.001 28.7477 112.001 9.24768C112.001 5.94768 110.801 4.84766 107.601 4.84766C76.5008 4.84766 45.3008 4.84766 14.2008 4.84766C11.0008 4.84766 9.80078 6.04768 9.80078 9.24768C9.80078 28.7477 9.80078 48.2477 9.80078 67.7477V69.1476H112.001ZM0.900782 70.5477C1.50078 69.5477 2.30078 69.0476 3.50078 69.1476C4.20078 69.2476 5.00078 69.1476 5.80078 69.1476V67.6476C5.80078 48.1476 5.80078 28.5477 5.80078 9.04767C5.80078 3.84767 8.80078 0.847656 14.0008 0.847656C45.2008 0.847656 76.4008 0.847656 107.601 0.847656C112.801 0.847656 115.801 3.84767 115.801 9.04767C115.801 28.5477 115.801 48.1476 115.801 67.6476V69.1476C116.801 69.1476 117.601 69.1476 118.501 69.1476C120.001 69.1476 120.701 69.8477 120.801 71.3477C120.801 73.0477 120.801 74.7477 120.801 76.4477C120.701 79.5477 118.501 82.0477 115.401 82.4477C114.701 82.5477 114.101 82.5477 113.401 82.5477C78.5008 82.5477 43.6008 82.5477 8.60078 82.5477C4.10078 82.5477 2.60078 81.5477 0.800781 77.4477V70.5477H0.900782Z" fill="url(#paint0_linear)"/>
<defs>
<linearGradient id="paint0_linear" x1="0.999998" y1="1" x2="121" y2="83" gradientUnits="userSpaceOnUse">
<stop stop-color="#00FFFF"/>
<stop offset="1" stop-color="#C035E1"/>
</linearGradient>
</defs>
</svg>
