<svg xmlns="http://www.w3.org/2000/svg" width="108" height="107" fill="none" viewBox="0 0 108 107">
  <defs/>
  <path fill="url(#paint0_linear)" d="M53.802 106.448c29.4 0 53.2-23.8 53.2-53.2 0-29.4-23.8-53.2-53.2-53.2-29.4 0-53.2 23.8-53.2 53.2 0 29.4 23.9 53.2 53.2 53.2z"/>
  <path fill="#fff" d="M21.5 44.748c-1.2 0-2.2-1-2.2-2.2v-8.6c0-1.2 1-2.2 2.2-2.2H50c1.2 0 2.2 1 2.2 2.2v8.6c0 1.2-1 2.2-2.2 2.2H21.5zM57.602 44.748c-1.2 0-2.2-1-2.2-2.2v-8.6c0-1.2 1-2.2 2.2-2.2h28.6c1.2 0 2.2 1 2.2 2.2v8.6c0 1.2-1 2.2-2.2 2.2h-28.6zM39.5 60.948c-1.2 0-2.2-1-2.2-2.2v-8.6c0-1.2 1-2.2 2.2-2.2h28.6c1.2 0 2.2 1 2.2 2.2v8.6c0 1.2-1 2.2-2.2 2.2H39.5zM21.5 77.248c-1.2 0-2.2-1-2.2-2.2v-8.6c0-1.2 1-2.2 2.2-2.2H50c1.2 0 2.2 1 2.2 2.2v8.6c0 1.2-1 2.2-2.2 2.2H21.5zM57.602 77.248c-1.2 0-2.2-1-2.2-2.2v-8.6c0-1.2 1-2.2 2.2-2.2h28.6c1.2 0 2.2 1 2.2 2.2v8.6c0 1.2-1 2.2-2.2 2.2h-28.6zM75.5 60.948c-1.2 0-2.2-1-2.2-2.2v-8.6c0-1.2 1-2.2 2.2-2.2h10.7c1.2 0 2.2 1 2.2 2.2v8.6c0 1.2-1 2.2-2.2 2.2H75.5zM21.5 60.948c-1.2 0-2.2-1-2.2-2.2v-8.6c0-1.2 1-2.2 2.2-2.2h10.7c1.2 0 2.2 1 2.2 2.2v8.6c0 1.2-1 2.2-2.2 2.2H21.5z"/>
  <defs>
    <linearGradient id="paint0_linear" x1="1" x2="107" y1="0" y2="106" gradientUnits="userSpaceOnUse">
      <stop stop-color="#0FF"/>
      <stop offset="1" stop-color="#C431E1"/>
    </linearGradient>
  </defs>
</svg>
