<svg width="34" height="34" viewBox="0 0 34 34" fill="none" xmlns="http://www.w3.org/2000/svg">
<path d="M17 1C8.18605 1 1 8.18605 1 17C1 25.814 8.18605 33 17 33C25.814 33 33 25.814 33 17C33 8.18605 25.814 1 17 1ZM17 30.5814C9.51163 30.5814 3.41861 24.4884 3.41861 17C3.41861 9.51163 9.51163 3.44186 17 3.44186C24.4884 3.44186 30.5814 9.53488 30.5814 17.0233C30.5814 24.5116 24.4884 30.5814 17 30.5814Z" stroke="#6E5FA7" stroke-width="0.75" stroke-miterlimit="10"/>
<path d="M17.7906 17.6048V9.76758H15.3488V18.8839L21.6046 23.1629L22.9767 21.1397L17.7906 17.6048Z" stroke="#6E5FA7" stroke-width="0.75" stroke-miterlimit="10"/>
</svg>
