<svg xmlns="http://www.w3.org/2000/svg" width="86" height="78" fill="none" viewBox="0 0 86 78">
  <defs/>
  <path fill="#6E5FA7" d="M22.512 22L43 31.65 63.49 22 43 12.351l-20.488 9.65zM43 34.543c-.227 0-.398-.056-.624-.113L18.595 23.249A1.36 1.36 0 0117.801 22c0-.567.34-1.022.794-1.249l23.782-11.18c.397-.17.794-.17 1.191 0L67.35 20.694c.511.227.795.738.795 1.248 0 .568-.34 1.022-.795 1.249L43.57 34.373c-.17.17-.398.17-.568.17z"/>
  <path fill="#6E5FA7" d="M27.621 35.11l15.381 7.72 15.381-7.72V27.45l-14.813 6.98c-.398.171-.795.171-1.192 0L27.62 27.45v7.662zm15.381 10.671c-.227 0-.454-.057-.624-.17l-16.8-8.4c-.454-.227-.795-.738-.795-1.249v-10.67c0-.454.227-.908.624-1.192.398-.284.909-.284 1.363-.114l16.175 7.606 16.176-7.605c.454-.227.965-.17 1.362.113.398.284.625.681.625 1.192v10.67a1.36 1.36 0 01-.795 1.249l-16.8 8.4c-.114.113-.284.17-.51.17zM66.782 23.362H43.001a1.405 1.405 0 01-1.419-1.419c0-.794.624-1.419 1.419-1.419h23.781c.795 0 1.419.625 1.419 1.42 0 .794-.681 1.418-1.419 1.418z"/>
  <path fill="#6E5FA7" d="M66.782 35.962a1.405 1.405 0 01-1.419-1.419V22c0-.795.625-1.419 1.42-1.419.794 0 1.418.624 1.418 1.419v12.6c0 .738-.681 1.362-1.419 1.362zM43.001 26.143a1.405 1.405 0 01-1.419-1.419v-5.619c0-.794.624-1.419 1.419-1.419.794 0 1.419.625 1.419 1.42v5.618c-.057.795-.681 1.42-1.419 1.42z"/>
  <path fill="#6E5FA7" d="M64 40.162c-.284 0-.511-.057-.795-.227-.625-.454-.795-1.305-.398-1.93l2.782-4.2c.454-.624 1.305-.794 1.93-.397.624.454.794 1.306.397 1.93l-2.781 4.2c-.284.397-.682.624-1.136.624z"/>
  <path fill="#6E5FA7" d="M69.561 40.162a1.48 1.48 0 01-1.192-.624l-2.78-4.2c-.455-.625-.228-1.533.397-1.93.624-.454 1.532-.284 1.93.397l2.78 4.2c.455.625.228 1.533-.397 1.93-.17.17-.454.227-.738.227zM43.001 38.743a1.405 1.405 0 01-1.419-1.419v-4.143c0-.795.624-1.419 1.419-1.419.794 0 1.419.624 1.419 1.419v4.2c-.057.738-.681 1.362-1.419 1.362z"/>
  <path stroke="#6E5FA7" stroke-miterlimit="10" d="M1 52.762V6.62C1 3.554 3.497 1 6.619 1H79.38C82.446 1 85 3.497 85 6.619v46.143M3.838 51.4h78.324V6.619a2.786 2.786 0 00-2.78-2.781H6.618a2.786 2.786 0 00-2.781 2.78V51.4zM1 52.762v6.981c0 3.122 2.554 5.62 5.619 5.62H79.38c3.065 0 5.562-2.498 5.619-5.62v-6.98M3.838 54.18V59.8a2.786 2.786 0 002.78 2.781h72.763a2.786 2.786 0 002.781-2.781V54.18H3.838z"/>
  <path stroke="#6E5FA7" stroke-miterlimit="10" d="M47.202 59.8h-8.4a1.405 1.405 0 01-1.42-1.419c0-.794.625-1.419 1.42-1.419h8.4c.794 0 1.419.624 1.419 1.42-.057.794-.681 1.418-1.42 1.418zM34.43 65.362c0 6.527-2.156 8.4-6.81 8.4-.794 0-1.419.624-1.419 1.419s.625 1.419 1.42 1.419h30.761c.795 0 1.476-.624 1.476-1.419s-.624-1.419-1.419-1.419c-4.654 0-6.868-1.93-6.868-8.4m-17.14 8.4h17.14c-1.702-1.93-2.724-4.767-2.95-8.4H37.324c-.17 3.69-1.191 6.527-2.894 8.4z"/>
</svg>
