<svg width="32" height="27" viewBox="0 0 32 27" fill="none" xmlns="http://www.w3.org/2000/svg">
<path d="M9.05347 7.96595L9.07282 7.9853C9.15022 8.024 9.24697 8.04335 9.32437 8.04335C9.55657 8.04335 9.76941 7.9079 9.86616 7.69505C10.0016 7.40481 9.86616 7.03716 9.57591 6.90171L9.55657 6.88236C9.26632 6.74691 8.89867 6.88236 8.76322 7.17261C8.62777 7.46286 8.76322 7.8305 9.05347 7.96595Z" stroke="#00B4C2" stroke-width="0.75" stroke-miterlimit="10"/>
<path d="M30.918 4.01858C30.7439 3.82508 30.4536 3.74768 30.2214 3.86378C29.8538 4.01858 29.4861 4.17337 29.1185 4.28947C29.6022 3.67028 29.9892 2.97368 30.2214 2.21904C30.2988 1.98684 30.2214 1.71595 30.0279 1.56115C29.8344 1.40635 29.5635 1.387 29.3507 1.52245C28.3058 2.14164 27.1835 2.58669 26.0225 2.83824C24.8035 1.65789 23.1587 1 21.4366 1C17.7988 1 14.8383 3.96053 14.8383 7.5983C14.8383 7.8305 14.8576 8.08204 14.877 8.31424C13.9482 8.21749 13.0194 8.06269 12.11 7.81115C11.8004 7.73375 11.4714 7.9079 11.3747 8.23684C11.2973 8.54644 11.4714 8.87539 11.8004 8.97214C13.0194 9.30108 14.2772 9.51393 15.5542 9.57198C15.7477 9.57198 15.9219 9.49458 16.038 9.35913C16.1541 9.22368 16.2121 9.03019 16.1734 8.83669C16.0767 8.43034 16.038 8.00465 16.038 7.5983C16.038 4.61842 18.4761 2.18034 21.4559 2.18034C22.9459 2.18034 24.3778 2.79954 25.4033 3.88313C25.5388 4.03793 25.7516 4.09598 25.9451 4.05728C26.7578 3.90248 27.5511 3.65093 28.3251 3.34133C27.8994 3.94118 27.3383 4.44427 26.6998 4.83127C26.4676 4.96672 26.3515 5.27632 26.4482 5.52787C26.545 5.79876 26.7965 5.95356 27.0868 5.93421C27.6285 5.87616 28.1897 5.76006 28.7121 5.62462C28.2284 6.12771 27.6866 6.59211 27.1061 7.0178C26.9513 7.1339 26.8546 7.3274 26.8546 7.5209L26.8739 8.29489C26.8739 16.4025 20.7013 24.8003 10.3685 24.8003C8.0078 24.8003 5.70517 24.2972 3.57669 23.3297C6.07282 23.1362 8.4335 22.2268 10.4265 20.6788C10.62 20.524 10.6974 20.2531 10.62 20.0209C10.5426 19.7887 10.3104 19.6146 10.0589 19.6146C8.06585 19.5759 6.28567 18.4536 5.37622 16.7314C5.43427 16.7314 5.51167 16.7314 5.56972 16.7314C6.16957 16.7314 6.75006 16.654 7.31121 16.4992C7.58211 16.4218 7.75626 16.1896 7.75626 15.8994C7.75626 15.6285 7.54341 15.3963 7.27251 15.3382C5.04728 14.8932 3.36384 13.0937 2.99619 10.9071C3.65409 11.1393 4.33133 11.2748 5.02793 11.2941C5.29882 11.2941 5.53102 11.1393 5.60842 10.8878C5.68582 10.6362 5.58907 10.3653 5.37622 10.2105C3.86694 9.20434 2.97685 7.5209 2.97685 5.70201C2.97685 5.02477 3.09294 4.36687 3.34449 3.74768C4.31198 4.81192 5.41493 5.76006 6.61462 6.57276C6.88551 6.7469 7.25316 6.68885 7.44666 6.41796C7.62081 6.14706 7.56276 5.77941 7.29186 5.58591C5.93737 4.67647 4.71833 3.57353 3.67344 2.29644C3.55734 2.14164 3.36384 2.06424 3.17034 2.08359C2.97685 2.10294 2.80269 2.19969 2.70595 2.37384C2.12545 3.38003 1.81585 4.52167 1.81585 5.70201C1.81585 7.15325 2.28025 8.54644 3.13164 9.66873C2.97685 9.59133 2.8027 9.51393 2.6479 9.43653C2.4544 9.33978 2.24155 9.33978 2.04805 9.43653C1.8739 9.55263 1.7578 9.74613 1.7578 9.95898V10.0364C1.7578 12.2423 2.86075 14.2353 4.58288 15.4543C4.58288 15.4543 4.58288 15.4543 4.56353 15.4543C4.35068 15.4156 4.13784 15.493 4.00239 15.6478C3.86694 15.8026 3.80889 16.0155 3.88629 16.2283C4.58288 18.3955 6.34372 20.0209 8.4722 20.6014C6.71136 21.6463 4.69898 22.2074 2.58985 22.2074C2.12545 22.2074 1.6804 22.1881 1.21601 22.13C0.94511 22.0913 0.674213 22.2655 0.596814 22.517C0.500064 22.7686 0.596813 23.0588 0.829011 23.2136C3.67344 25.0325 6.98226 26 10.3685 26C13.0968 26 15.651 25.4582 17.9536 24.394C20.0628 23.4071 21.9397 22.0139 23.507 20.2337C26.4095 16.9443 28.0542 12.6099 28.0542 8.31424C28.0542 8.31424 28.0542 8.31424 28.0542 8.29489L28.0349 7.8305C29.1765 6.9791 30.144 5.93421 30.9374 4.75387C31.1115 4.50232 31.0922 4.21208 30.918 4.01858Z" stroke="#00B4C2" stroke-width="0.75" stroke-miterlimit="10"/>
<path d="M23.0039 15.4544C22.7137 15.2803 22.3654 15.377 22.1912 15.6673C22.0171 15.9575 22.1138 16.3058 22.4041 16.4799C22.5008 16.538 22.5976 16.5573 22.7137 16.5573C22.9072 16.5573 23.12 16.4606 23.2168 16.2671C23.3716 15.9769 23.2748 15.6286 23.0039 15.4544Z" stroke="#00B4C2" stroke-width="0.75" stroke-miterlimit="10"/>
<path d="M21.8429 17.2344C21.5914 17.0215 21.2044 17.0602 21.0109 17.3118C19.966 18.5695 18.7276 19.6144 17.3538 20.4077C17.0635 20.5625 16.9668 20.9302 17.1409 21.2204C17.257 21.4139 17.4505 21.53 17.6634 21.53C17.7601 21.53 17.8569 21.5107 17.9536 21.4526C19.4629 20.5819 20.8174 19.4596 21.9397 18.0664C22.1332 17.8342 22.0945 17.4472 21.8429 17.2344Z" stroke="#00B4C2" stroke-width="0.75" stroke-miterlimit="10"/>
</svg>
