<svg width="31" height="28" viewBox="0 0 31 28" fill="none" xmlns="http://www.w3.org/2000/svg">
<path fill-rule="evenodd" clip-rule="evenodd" d="M19.0104 2.81608L12.3956 6.8234L10.1915 2.81608H19.0104ZM4.1825 11.7989L8.59247 3.78606L10.796 7.7924L4.1825 11.7989ZM0.995972 13.7182L7.74115 1.46388C7.77124 1.38988 7.81012 1.31993 7.85693 1.25573C7.93091 1.15426 8.02332 1.06913 8.12878 1.00526C8.23431 0.941391 8.35077 0.900032 8.47156 0.883568C8.54865 0.873055 8.62659 0.872826 8.70343 0.882737H22.3652C22.3926 0.880165 22.4201 0.878861 22.4478 0.878861C22.6927 0.878861 22.9277 0.980912 23.1009 1.16256C23.1687 1.23364 23.2249 1.31464 23.2681 1.40231L30.15 13.9185C30.2052 14.0092 30.2457 14.1089 30.2697 14.2134C30.2868 14.2871 30.2957 14.3629 30.296 14.4394C30.296 14.6094 30.2534 14.7765 30.1722 14.9237L23.2933 27.4212C23.2476 27.5302 23.1827 27.6305 23.1009 27.7163C22.9277 27.8979 22.6927 28 22.4478 28H22.4446H22.4415H22.4405H8.58691C8.4248 28 8.2655 27.9552 8.12512 27.8702C7.98474 27.7852 7.8681 27.6629 7.78705 27.5157L0.996399 15.1693C0.930847 15.1047 0.874512 15.0302 0.829285 14.9482C0.766968 14.8351 0.727112 14.71 0.712036 14.5803C0.709473 14.558 0.707642 14.5357 0.706482 14.5134C0.705444 14.4922 0.705078 14.4711 0.705383 14.45L0.705139 14.436L0.705078 14.4206L0.7052 14.4055C0.705811 14.3726 0.708008 14.3398 0.711792 14.3071C0.726868 14.1774 0.766724 14.0522 0.829041 13.9391C0.874207 13.8572 0.930481 13.7828 0.995972 13.7182ZM23.3715 5.46549L27.7726 13.4714H23.3715V5.46549ZM13.8989 8.14575L21.5242 12.764V3.52488L13.8989 8.14575ZM12.9789 19.0557L20.597 14.4392L12.9789 9.82394V19.0557ZM11.1316 19.0599V9.82267L3.50653 14.4434L11.1316 19.0599ZM21.5242 16.1145L13.8976 20.7346L21.5242 25.352V16.1145ZM27.7712 15.4087H23.3715V23.403L27.7712 15.4087ZM10.7893 21.0913L4.18781 17.0919L8.5871 25.0922L10.7893 21.0913ZM10.1858 26.0627L12.3888 22.0603L18.9953 26.0627H10.1858Z" fill="url(#paint0_linear)"/>
<defs>
<linearGradient id="paint0_linear" x1="1.00049" y1="1" x2="30.0005" y2="28" gradientUnits="userSpaceOnUse">
<stop stop-color="#AB35E5"/>
<stop offset="1" stop-color="#00B3BF"/>
</linearGradient>
</defs>
</svg>
