<svg xmlns="http://www.w3.org/2000/svg" width="58" height="58" fill="none" viewBox="0 0 58 58">
  <defs/>
  <path stroke="#fff" stroke-miterlimit="10" d="M53.568 29.045V25.93c0-.497 0-.497-.452-.497h-3.748c-.452 0-.858-.135-1.174-.496a2.25 2.25 0 01-.452-.859 17.96 17.96 0 00-1.265-3.387c-.27-.542-.587-1.084-.858-1.626-.27-.587-.225-1.174.181-1.716.09-.135.18-.225.316-.36.858-.859 1.761-1.717 2.62-2.62.225-.226.18-.226 0-.452l-.09-.09-4.517-4.516-.136-.136c-.135-.135-.18-.135-.316 0l-.135.136-2.53 2.529c-.135.135-.27.27-.406.361-.496.361-1.038.361-1.58.136l-.542-.271c-.678-.407-1.4-.723-2.078-1.04a25.738 25.738 0 00-2.438-.812c-.813-.226-1.355-.903-1.31-1.761.045-1.22 0-2.44 0-3.704 0-.451 0-.451-.452-.451H25.84c-.407 0-.407 0-.407.406v3.794c0 .722-.496 1.445-1.174 1.626-.587.18-1.129.316-1.716.542-.813.316-1.58.632-2.303.993-.407.18-.768.407-1.175.632-.451.226-.948.226-1.445 0a1.233 1.233 0 01-.542-.406c-.858-.858-1.716-1.761-2.619-2.62-.316-.316-.316-.316-.587 0L9.4 13.737l-.135.135c-.136.135-.136.18 0 .361l.135.136 2.574 2.574c.407.406.633.858.587 1.445 0 .316-.135.587-.316.858a20.036 20.036 0 00-1.084 2.213c-.316.813-.632 1.626-.858 2.484-.18.813-.813 1.4-1.716 1.4H4.84c-.407 0-.407 0-.407.452v6.367c0 .407 0 .407.407.407h3.793c.497 0 .949.18 1.31.587.18.226.316.497.406.768a18.8 18.8 0 001.49 3.838c.181.407.407.768.633 1.174.09.181.136.362.136.588.045.587-.181 1.038-.588 1.445-.858.858-1.716 1.761-2.619 2.62-.271.27-.271.27 0 .586l4.516 4.516c.271.271.316.271.587 0l2.665-2.664c.361-.362.768-.542 1.264-.542.316 0 .633.09.904.27.948.543 1.941.994 2.935 1.4.632.272 1.31.452 1.942.633.768.226 1.264.903 1.264 1.716v3.794c0 .316.046.361.362.361h6.413c.406 0 .406 0 .406-.452v-3.883c0-.633.452-1.22.994-1.446.225-.09.451-.135.722-.225 1.355-.407 2.71-.904 3.93-1.626.225-.136.496-.271.722-.407.587-.27 1.129-.225 1.67.136.136.09.272.226.407.361l2.574 2.574c.226.226.271.226.452 0l4.652-4.651c.18-.18.18-.271 0-.452l-.949-.948c-.632-.587-1.22-1.22-1.851-1.807-.497-.451-.633-1.4-.317-1.897.136-.225.271-.496.407-.722.723-1.355 1.31-2.8 1.716-4.29.226-.768.858-1.355 1.761-1.355 1.22.045 2.44 0 3.658 0h.271c.136 0 .181-.09.226-.226v-.226c-.135-.993-.135-2.032-.135-3.07zM1 29v-5.148c0-1.04.813-1.762 1.716-1.762h4.245c.316 0 .407-.045.497-.361.316-.994.723-1.942 1.22-2.89.135-.226.135-.226-.09-.452l-2.982-2.98c-.225-.226-.451-.497-.541-.859-.181-.587 0-1.084.406-1.535l.09-.09 7.271-7.271c.316-.317.632-.497 1.084-.542.407-.045.768.045 1.084.27.18.136.361.272.542.452l2.8 2.8c.226.226.226.226.542.09.858-.406 1.761-.812 2.71-1.128.045 0 .045 0 .09-.046.406-.135.406-.18.406-.587V3.755 2.716c0-.993.813-1.716 1.716-1.716h10.387c.723 0 1.355.452 1.581 1.129.09.271.09.542.09.813v4.155c0 .226.046.27.272.361.858.271 1.716.632 2.528.994.181.09.362.135.497.225.136.09.226.09.316-.045l.136-.135 2.845-2.845c.09-.09.18-.181.316-.271.678-.587 1.626-.497 2.258.135l.136.136 7.135 7.135c.136.136.226.271.361.406.407.543.362 1.446-.09 1.943-.18.18-.316.36-.497.541l-2.664 2.665c-.226.226-.226.27-.09.542.406.768.677 1.58.993 2.348.045.18.136.361.18.542.091.271.136.316.407.316h4.245c.542 0 .949.181 1.31.542.316.361.407.768.452 1.174v10.117c0 .18 0 .36-.045.541-.09.588-.407.949-.858 1.265-.271.18-.633.18-.949.18h-4.065c-.451 0-.451 0-.587.407a20.778 20.778 0 01-1.129 2.755c-.135.316-.135.316.09.542.95.948 1.852 1.852 2.8 2.8.136.135.272.27.362.406.542.678.542 1.581-.09 2.213l-.09.09-7.272 7.272a1.889 1.889 0 01-.813.496c-.632.181-1.174 0-1.625-.406l-.18-.18-2.891-2.891c-.226-.226-.226-.226-.497-.09-.948.451-1.942.858-2.935 1.219-.272.09-.272.135-.317.406v4.065c0 .27 0 .497-.09.768-.136.496-.497.858-.993 1.084-.226.09-.407.135-.633.135H23.761C22.903 57 22 56.323 22 55.284v-4.065-.226c0-.18-.09-.316-.271-.36-.27-.091-.542-.227-.813-.317a29.946 29.946 0 01-2.122-.903c-.271-.136-.271-.136-.497.09l-2.845 2.845c-.181.181-.362.316-.542.452-.587.406-1.4.316-1.987-.18l-.09-.091-7.317-7.316a1.653 1.653 0 01-.451-.723c-.226-.677-.046-1.264.451-1.716.452-.497.949-.948 1.445-1.445l1.626-1.626c.18-.18.18-.18.09-.406-.451-.949-.858-1.897-1.174-2.89-.135-.362-.18-.362-.542-.362h-4.11c-.406 0-.767-.09-1.128-.316-.452-.316-.678-.768-.678-1.264C1 32.568 1 30.76 1 29z"/>
  <path stroke="#fff" stroke-miterlimit="10" d="M25.567 29c-.09-1.58 1.174-3.116 2.89-3.342.271-.045.542-.045.813 0 .226 0 .362-.09.452-.226l1.49-1.896c.407-.542.858-1.04 1.265-1.581L33.56 20.6c.18-.226.36-.452.587-.723.451-.496 1.129-.722 1.761-.496a1.712 1.712 0 011.129 1.49c0 .407-.09.723-.316 1.039-.361.497-.723.993-1.13 1.445l-1.625 2.032c-.542.678-1.084 1.4-1.67 2.078-.136.135-.136.27-.091.496.316.994.226 1.987-.362 2.89-.542.859-1.354 1.4-2.348 1.536-1.264.18-2.348-.226-3.161-1.22a3.713 3.713 0 01-.723-1.535c-.045-.226-.045-.406-.045-.632z"/>
</svg>
