<svg width="60" height="58" viewBox="0 0 60 58" fill="none" xmlns="http://www.w3.org/2000/svg">
<path d="M37.9763 26.3989L44.819 33.2417L37.9763 26.3989ZM36.0212 21.8513V6.89078V21.8513ZM38.6988 24.5714C38.6988 26.0589 37.5088 27.249 36.0212 27.249C34.5337 27.249 33.3436 26.0589 33.3436 24.5714C33.3436 23.0838 34.5337 21.8938 36.0212 21.8938C37.5088 21.8513 38.6988 23.0838 38.6988 24.5714ZM52.9368 39.9569C57.1019 35.5793 59.567 29.5441 59.2695 22.9988C58.6745 10.2909 47.9216 0.430555 35.2137 1.02558C29.3485 1.28058 24.1208 3.70317 20.2107 7.4858L52.9368 39.9569ZM1 12.5435C1.46752 11.1834 2.23254 10.0359 3.38008 9.14336C4.18761 8.50584 4.91014 7.78331 5.54766 7.01828C8.52276 3.40566 15.408 4.25569 17.0656 10.0784C17.6181 11.991 18.0856 13.946 18.7231 15.8586C19.6581 18.7062 18.8506 21.0438 16.938 23.1688C16.8105 23.3388 16.6405 23.5089 16.4705 23.5939C14.898 24.6139 14.983 25.8889 15.6205 27.504C18.7231 35.0692 24.0358 40.2969 31.8561 42.932C32.6636 43.2295 33.2161 43.102 33.8111 42.4645C34.7462 41.5295 35.5537 40.3819 36.7862 39.8294C38.3588 39.1069 40.0163 38.9794 41.6314 39.4044C43.799 39.9569 45.924 40.5519 48.0491 41.232C52.0018 42.507 54.9344 47.6072 52.0018 51.3898C50.4717 53.3874 48.6866 55.2149 46.4766 56.575C46.009 56.8725 45.5415 57 44.989 57C37.5938 56.8725 30.666 55.0874 24.1208 51.6873C19.9557 49.5622 16.343 46.7571 13.1129 43.3995C6.61019 36.5993 2.70006 28.524 1.38252 19.1737C1.21251 18.0262 1.38251 16.8361 1 15.7311V12.5435V12.5435Z" stroke="#6E5FA7" stroke-miterlimit="10"/>
</svg>
